SplineFontDB: 3.0
FontName: DragonLeeOutline
FullName: Dragon Lee Outline
FamilyName: DragonLee
Weight: Black
Copyright: Copyright (c) 2023, Alberto de la Cruz
UComments: "2017-11-29: Created with FontForge (http://fontforge.org)"
Version: 001.000
DefaultBaseFilename: dragon-lee-outline
ItalicAngle: 0
UnderlinePosition: -101.9
UnderlineWidth: 50.9502
Ascent: 799
Descent: 225
InvalidEm: 0
LayerCount: 2
Layer: 0 0 "Back" 1
Layer: 1 0 "Fore" 0
XUID: [1021 97 -1070742597 4711661]
FSType: 0
OS2Version: 0
OS2_WeightWidthSlopeOnly: 0
OS2_UseTypoMetrics: 1
CreationTime: 1511978515
ModificationTime: 1698720385
PfmFamily: 17
TTFWeight: 900
TTFWidth: 5
LineGap: 92
VLineGap: 0
OS2TypoAscent: 0
OS2TypoAOffset: 1
OS2TypoDescent: 0
OS2TypoDOffset: 1
OS2TypoLinegap: 92
OS2WinAscent: 0
OS2WinAOffset: 1
OS2WinDescent: 0
OS2WinDOffset: 1
HheadAscent: 0
HheadAOffset: 1
HheadDescent: 0
HheadDOffset: 1
OS2Vendor: 'PfEd'
Lookup: 258 0 0 "'kern' Horizontal Kerning in Latin lookup 0" { "'kern' Horizontal Kerning in Latin lookup 0-1" [153,15,0] } ['    ' ('DFLT' <'dflt' > 'latn' <'dflt' > ) 'kern' ('DFLT' <'dflt' > 'latn' <'dflt' > ) ]
MarkAttachClasses: 1
DEI: 91125
KernClass2: 1 1 "'kern' Horizontal Kerning in Latin lookup 0-1"
 0 {}
LangName: 1033
Encoding: win
UnicodeInterp: none
NameList: AGL For New Fonts
DisplaySize: -48
AntiAlias: 1
FitToEm: 0
WinInfo: 23 23 11
BeginPrivate: 0
EndPrivate
TeXData: 1 0 0 346030 173015 115343 0 1048576 115343 783286 444596 497025 792723 393216 433062 380633 303038 157286 324010 404750 52429 2506097 1059062 262144
BeginChars: 280 224

StartChar: A
Encoding: 65 65 0
Width: 636
VWidth: 0
Flags: HW
HStem: 0 24<38 267 353 596> 232 24<290 330> 390 24<290 330> 634 24<295 330> 780 24<120 596>
VStem: 14 24<24 686> 267 24<24 232 414 632> 330 24<24 232 414 634> 596 24<24 780>
LayerCount: 2
Fore
SplineSet
619 0 m 5
 330 0 l 5
 330 232 l 5
 290 232 l 5
 290 -0 l 5
 14 -0 l 5
 14 12 l 6
 14 37 15 628 18 652 c 4
 21 677 28 702 39 725 c 4
 51 749 69 768 94 782 c 4
 118 796 150 804 186 804 c 6
 619 804 l 5
 619 0 l 5
353 24 m 5
 596 24 l 5
 596 780 l 5
 186 780 l 6
 154 780 127 774 106 762 c 4
 85 750 71 734 61 714 c 4
 51 693 44 671 42 649 c 4
 40 630 38 203 38 24 c 5
 267 24 l 5
 267 256 l 5
 353 256 l 5
 353 24 l 5
353 390 m 5
 267 390 l 5
 267 514 l 6
 267 602 269 623 272 631 c 4
 275 640 283 657 309 658 c 6
 310 658 l 5
 353 658 l 5
 353 390 l 5
290 414 m 5
 330 414 l 5
 330 634 l 5
 310 634 l 6
 299 633 296 630 295 625 c 4
 293 618 290 592 290 514 c 6
 290 414 l 5
459 48 m 1029
EndSplineSet
Validated: 1
EndChar

StartChar: B
Encoding: 66 66 1
Width: 637
VWidth: 0
Flags: HW
HStem: 0 24<46 504> 149 24<310 352> 353 24<310 357> 505 24<311 357> 659 24<311 357> 780 24<46 506>
VStem: 22 24<24 780> 286 24<173 353 528 659> 361 24<177 350 531 656> 592 23<112 382 496 694>
LayerCount: 2
Fore
SplineSet
22 0 m 1
 22 804 l 1
 433 804 l 2
 472 804 507 796 533 782 c 0
 560 768 579 749 592 725 c 0
 604 702 613 677 616 652 c 0
 618 638 617 619 617 605 c 0
 617 583 618 553 616 538 c 0
 613 513 604 488 592 465 c 0
 587 456 581 447 574 439 c 0
 581 431 587 422 592 413 c 0
 604 390 613 365 616 340 c 0
 619 316 617 194 617 189 c 0
 617 170 616 158 615 152 c 0
 612 127 604 102 592 79 c 0
 579 55 559 36 532 22 c 0
 506 8 472 1 433 1 c 2
 22 0 l 1
46 780 m 1
 46 24 l 1
 433 24 l 2
 469 24 498 31 521 43 c 0
 544 55 560 70 571 90 c 0
 582 111 589 133 592 155 c 0
 592 159 593 167 593 189 c 0
 594 224 594 318 592 337 c 0
 589 359 583 381 572 402 c 0
 566 412 558 422 549 430 c 2
 540 439 l 1
 549 448 l 2
 558 456 566 466 572 476 c 0
 583 497 589 519 592 541 c 0
 593 552 594 575 594 605 c 0
 594 618 594 636 592 649 c 0
 589 671 583 693 572 714 c 0
 561 734 545 750 522 762 c 0
 499 774 469 780 433 780 c 2
 46 780 l 1
335 149 m 1
 286 149 l 1
 286 376 l 1
 335 376 l 2
 365 376 375 361 379 349 c 0
 381 342 384 325 385 263 c 0
 384 200 381 183 379 176 c 0
 377 167 372 161 364 156 c 2
 363 156 l 2
 359 154 355 152 350 151 c 0
 349 151 348 150 347 150 c 2
 347 149 l 1
 335 149 l 1
310 173 m 1
 335 173 l 2
 339 173 342 173 345 174 c 0
 347 175 350 176 352 177 c 0
 354 179 356 180 357 183 c 0
 358 188 360 205 361 263 c 0
 360 321 358 338 357 343 c 0
 356 346 354 353 335 353 c 2
 310 353 l 1
 310 173 l 1
 310 173 l 1
287 505 m 1
 287 682 l 1
 336 682 l 2
 366 682 376 667 380 655 c 0
 382 649 384 637 385 591 c 0
 385 583 382 539 380 532 c 0
 376 520 366 505 336 505 c 2
 287 505 l 1
311 659 m 1
 311 528 l 1
 335 528 l 2
 354 528 356 535 357 538 c 0
 358 544 362 583 362 590 c 0
 361 632 358 645 357 649 c 0
 356 652 355 659 336 659 c 2
 311 659 l 1
 311 659 l 1
EndSplineSet
Validated: 37
EndChar

StartChar: C
Encoding: 67 67 2
Width: 488
VWidth: 0
Flags: HW
HStem: 0 23<133 447> 150 23<303 447> 630 23<313 447> 780 23<133 447>
VStem: 15 23<126 678> 274 23<177 619> 447 23<23 151 653 780>
LayerCount: 2
Fore
SplineSet
471 0 m 1
 207 0 l 2
 166 0 132 8 105 22 c 0
 77 37 57 56 44 81 c 0
 31 105 23 130 20 156 c 0
 17 178 15 217 15 274 c 1
 15 274 l 1
 15 285 l 1
 15 530 l 2
 15 587 17 626 20 648 c 0
 23 674 31 699 44 723 c 0
 57 748 77 767 105 782 c 0
 132 796 166 804 207 804 c 2
 471 804 l 1
 471 630 l 1
 471 630 368 630 336 630 c 2
 325 630 l 2
 307 630 304 622 303 619 c 0
 301 613 297 590 297 505 c 2
 297 298 l 2
 297 213 301 190 303 184 c 0
 304 181 307 174 325 174 c 0
 333 174 454 174 458 174 c 2
 470 174 l 1
 471 162 l 1
 471 0 l 1
 471 0 l 1
39 291 m 1
 39 285 l 2
 39 223 40 181 43 159 c 0
 46 136 54 113 65 92 c 0
 76 72 93 54 116 42 c 0
 140 29 170 23 207 23 c 2
 447 23 l 1
 447 151 l 2
 414 151 326 150 325 150 c 0
 296 150 284 165 280 177 c 0
 277 186 274 207 274 298 c 2
 274 505 l 2
 274 596 277 618 280 627 c 0
 283 637 292 650 313 653 c 2
 325 654 l 2
 326 654 414 653 447 653 c 2
 447 780 l 1
 207 780 l 2
 170 780 140 774 116 761 c 0
 93 749 76 732 65 712 c 0
 54 691 46 668 43 645 c 0
 40 623 39 580 39 518 c 2
 39 508 l 1
 39 291 l 1
 39 291 l 1
EndSplineSet
Validated: 5
EndChar

StartChar: D
Encoding: 68 68 3
Width: 654
VWidth: 0
Flags: HW
HStem: 0 23<37 523> 150 23<304 353> 630 23<304 353> 780 23<37 523>
VStem: 14 23<23 780> 280 23<173 630> 359 23<177 627> 617 23<126 678>
LayerCount: 2
Fore
SplineSet
449 -0 m 6
 14 0 l 5
 14 803 l 5
 449 803 l 6
 490 803 524 796 551 782 c 4
 579 767 599 747 612 722 c 4
 625 698 633 674 636 648 c 4
 639 627 641 587 641 530 c 5
 641 530 l 5
 641 500 l 5
 641 273 l 6
 641 216 639 177 636 156 c 4
 633 130 625 105 612 81 c 4
 599 56 579 37 551 22 c 4
 524 8 490 0 449 -0 c 6
37 23 m 5
 449 23 l 6
 486 23 516 29 540 42 c 4
 563 54 581 72 592 92 c 4
 603 113 610 135 613 158 c 4
 616 180 617 223 617 285 c 6
 617 303 l 5
 617 518 l 6
 617 580 616 623 613 645 c 4
 610 668 603 690 592 711 c 4
 581 731 563 749 540 761 c 4
 516 774 486 780 449 780 c 6
 37 780 l 5
 37 23 l 5
331 150 m 5
 330 150 l 5
 280 150 l 5
 280 653 l 5
 332 653 l 6
 361 653 372 639 376 627 c 4
 379 618 382 596 382 505 c 6
 382 298 l 6
 382 207 379 186 376 177 c 4
 372 165 361 150 332 150 c 6
 332 150 l 5
 331 150 l 5
304 174 m 5
 332 173 l 5
 331 173 l 5
 332 173 l 6
 350 173 353 181 354 184 c 4
 356 190 359 213 359 298 c 6
 359 505 l 6
 359 590 356 613 354 619 c 4
 353 622 350 630 332 630 c 6
 304 630 l 5
 304 174 l 5
 304 174 l 5
EndSplineSet
Validated: 5
EndChar

StartChar: E
Encoding: 69 69 4
Width: 538
VWidth: 0
Flags: HW
HStem: 0 24<37 501> 158 24<303 501> 386 24<303 501> 544 24<303 501> 622 24<303 501> 780 24<37 501>
VStem: 14 24<24 780> 279 24<181 386 567 622> 501 24<24 158 409 544 646 780>
LayerCount: 2
Fore
SplineSet
524 0 m 5
 14 0 l 5
 14 804 l 5
 524 804 l 5
 524 622 l 5
 303 622 l 5
 303 567 l 5
 524 567 l 5
 524 386 l 5
 303 386 l 5
 303 181 l 5
 524 181 l 5
 524 0 l 5
37 24 m 5
 501 24 l 5
 501 158 l 5
 279 158 l 5
 279 409 l 5
 501 409 l 5
 501 544 l 5
 279 544 l 5
 279 646 l 5
 501 646 l 5
 501 780 l 5
 37 780 l 5
 37 24 l 5
EndSplineSet
Validated: 1
EndChar

StartChar: F
Encoding: 70 70 5
Width: 532
VWidth: 0
Flags: HW
HStem: 0 24<34 276> 386 24<300 498> 544 24<300 498> 622 24<300 498> 780 24<34 498>
VStem: 11 24<24 780> 276 24<24 386 567 622> 498 24<409 544 646 780>
LayerCount: 2
Fore
SplineSet
300 0 m 5
 11 0 l 5
 11 804 l 5
 522 804 l 5
 522 622 l 5
 300 622 l 5
 300 567 l 5
 522 567 l 5
 522 386 l 5
 300 386 l 5
 300 0 l 5
34 24 m 5
 276 24 l 5
 276 409 l 5
 498 409 l 5
 498 544 l 5
 276 544 l 5
 276 646 l 5
 498 646 l 5
 498 780 l 5
 34 780 l 5
 34 24 l 5
EndSplineSet
Validated: 1
EndChar

StartChar: G
Encoding: 71 71 6
Width: 647
VWidth: 0
Flags: HW
HStem: 0 23<131 515> 150 23<301 369> 312 23<345 371> 469 23<345 609> 547 23<382 609> 630 23<301 354> 780 23<131 515>
VStem: 14 23<126 678> 272 23<177 619> 321 23<335 469> 359 23<570 620> 369 25<177 312> 605 27<114 469 570 690>
LayerCount: 2
Fore
SplineSet
441 0 m 6xffd8
 206 0 l 6
 165 0 131 8 104 22 c 4
 76 37 55 56 42 81 c 4
 29 105 21 130 18 156 c 4
 15 178 14 217 14 274 c 5
 14 274 l 5
 14 303 l 5
 14 530 l 6
 14 587 15 626 18 648 c 4
 21 674 29 699 42 723 c 4
 55 748 76 767 104 782 c 4
 131 796 165 804 206 804 c 6
 441 804 l 6
 482 804 516 796 543 782 c 4
 571 767 591 748 604 723 c 4
 617 699 625 674 628 648 c 4
 630 630 631 600 632 558 c 6
 632 547 l 5
 359 547 l 5
 359 558 l 6xffe8
 358 603 355 616 354 620 c 4
 353 623 351 630 334 630 c 6
 323 630 l 6
 305 630 302 622 301 619 c 4
 299 613 296 590 296 505 c 6
 296 298 l 6
 296 213 299 190 301 184 c 4
 302 181 305 174 323 174 c 6
 324 174 l 6
 324 174 347 174 349 174 c 5
 365 174 368 180 369 183 c 4
 370 193 371 273 371 312 c 5
 321 312 l 5
 321 492 l 5
 632 492 l 5
 632 480 l 6
 632 468 632 440 632 404 c 4
 631 280 629 168 628 156 c 4
 625 130 617 105 604 81 c 4
 591 56 571 37 543 22 c 4
 516 8 482 0 441 0 c 6xffd8
37 291 m 5
 37 285 l 6
 37 223 39 181 42 159 c 4
 45 136 52 113 63 92 c 4
 74 72 92 55 115 43 c 4
 139 30 169 23 206 23 c 6
 441 23 l 6
 478 23 508 30 532 43 c 4
 555 55 572 72 583 92 c 4
 594 113 602 136 605 159 c 4
 606 171 607 317 608 404 c 4
 608 431 609 454 609 469 c 6
 345 469 l 5
 345 335 l 5
 394 335 l 5
 394 323 l 6xffd8
 394 183 393 180 392 176 c 4
 388 164 377 150 349 150 c 5
 349 150 l 6
 349 151 l 6
 346 151 342 150 337 150 c 6
 324 150 l 6
 294 150 283 165 279 177 c 4
 276 186 272 207 272 298 c 6
 272 505 l 6
 272 596 276 618 279 627 c 4
 282 637 290 650 311 653 c 6
 335 654 l 6
 363 654 373 640 377 628 c 4
 379 622 381 610 382 570 c 5
 609 570 l 6
 608 605 607 630 605 645 c 4
 602 668 594 691 583 712 c 4
 572 732 555 749 532 761 c 4
 508 774 478 780 441 780 c 6
 206 780 l 6
 169 780 139 774 115 761 c 4
 92 749 74 732 63 712 c 4
 52 691 45 668 42 645 c 4
 39 623 37 580 37 518 c 6
 37 508 l 5
 37 291 l 5
EndSplineSet
Validated: 5
EndChar

StartChar: H
Encoding: 72 72 7
Width: 674
VWidth: 0
Flags: HW
HStem: -0 24<38 280 390 630> 392 24<304 367> 553 24<304 367> 780 24<38 280 390 630>
VStem: 14 24<23 780> 280 24<23 392 577 780> 367 24<23 392 577 780> 630 24<23 780>
LayerCount: 2
Fore
SplineSet
654 -0 m 5
 367 -0 l 5
 367 392 l 5
 304 392 l 5
 304 -0 l 5
 14 -0 l 5
 14 803 l 5
 304 803 l 5
 304 577 l 5
 367 577 l 5
 367 803 l 5
 654 803 l 5
 654 -0 l 5
390 23 m 5
 630 23 l 5
 630 780 l 5
 390 780 l 5
 390 553 l 5
 280 553 l 5
 280 780 l 5
 38 780 l 5
 38 23 l 5
 280 23 l 5
 280 416 l 5
 390 416 l 5
 390 23 l 5
 390 23 l 5
EndSplineSet
Validated: 5
EndChar

StartChar: I
Encoding: 73 73 8
Width: 448
VWidth: 0
Flags: HW
HStem: 0 24<38 416> 157 24<38 92 366 416> 623 24<38 92 366 416> 780 24<38 416>
VStem: 14 24<24 157 647 780> 92 24<180 623> 342 24<180 623> 416 24<24 157 647 780>
LayerCount: 2
Fore
SplineSet
439 0 m 1
 14 0 l 1
 14 180 l 1
 92 180 l 1
 92 623 l 1
 14 623 l 1
 14 804 l 1
 439 804 l 1
 439 623 l 1
 366 623 l 1
 366 180 l 1
 439 180 l 1
 439 0 l 1
 439 0 l 1
38 24 m 1
 416 24 l 1
 416 157 l 1
 342 157 l 1
 342 647 l 1
 416 647 l 1
 416 780 l 1
 38 780 l 1
 38 647 l 1
 115 647 l 1
 115 157 l 1
 38 157 l 1
 38 24 l 1
EndSplineSet
Validated: 5
EndChar

StartChar: J
Encoding: 74 74 9
Width: 650
VWidth: 0
Flags: HW
HStem: 0 23<133 518> 151 23<294 314 314 347> 395 23<39 266> 783 23<376 612>
VStem: 16 24<124 395> 266 23<177 395> 353 23<185 783> 612 24<126 783>
LayerCount: 2
Fore
SplineSet
443 0 m 6
 208 0 l 6
 167 0 132 7 105 22 c 4
 77 37 57 56 44 81 c 4
 31 105 23 130 20 156 c 4
 18 169 17 258 16 355 c 4
 16 378 16 397 16 407 c 6
 15 418 l 5
 289 418 l 5
 289 407 l 6
 289 398 290 381 290 359 c 4
 291 301 292 193 294 183 c 4
 295 181 298 174 315 174 c 6
 325 174 l 6
 344 174 347 182 348 185 c 4
 350 191 353 214 353 299 c 6
 353 806 l 5
 636 806 l 5
 636 286 l 6
 636 281 634 179 631 156 c 4
 628 130 620 105 607 81 c 4
 594 56 574 37 546 22 c 4
 519 7 484 0 443 0 c 6
39 395 m 6
 39 385 40 371 40 355 c 4
 41 291 41 172 43 159 c 4
 46 136 53 113 64 92 c 4
 75 72 93 56 116 43 c 4
 140 30 171 23 208 23 c 6
 443 23 l 6
 480 23 511 30 535 43 c 4
 558 56 576 72 587 92 c 4
 598 113 605 136 608 159 c 4
 611 181 612 285 612 286 c 6
 612 783 l 5
 376 783 l 5
 377 299 l 6
 377 208 373 186 370 177 c 4
 366 165 355 151 326 151 c 6
 324 151 l 5
 314 151 l 5
 314 151 l 5
 314 151 l 5
 314 151 l 6
 286 151 276 165 272 177 c 4
 270 183 269 210 267 359 c 4
 267 373 266 386 266 395 c 6
 39 395 l 6
EndSplineSet
Validated: 5
EndChar

StartChar: K
Encoding: 75 75 10
Width: 639
VWidth: 0
Flags: HW
HStem: 0 23<46 286 382 592> 351 24<310 354> 776 23<46 286 440 585>
VStem: 23 23<23 776> 286 23<23 351 545 776> 359 23<23 283> 592 24<23 363>
LayerCount: 2
Fore
SplineSet
616 -0 m 5
 359 -0 l 5
 359 11 l 6
 359 21 358 53 358 93 c 4
 357 175 356 326 354 341 c 4
 351 348 346 351 336 351 c 4
 335 351 321 351 310 351 c 6
 310 0 l 5
 23 0 l 5
 23 800 l 5
 310 800 l 5
 310 545 l 5
 425 800 l 5
 621 800 l 5
 472 469 l 5
 538 461 577 422 589 401 c 4
 601 379 609 356 612 331 c 4
 613 320 614 209 615 88 c 4
 615 52 616 23 616 12 c 6
 616 -0 l 5
382 23 m 6
 592 23 l 6
 592 38 592 61 592 88 c 4
 591 174 589 317 588 328 c 4
 585 350 579 370 569 389 c 4
 558 408 520 445 454 447 c 6
 436 448 l 5
 585 776 l 5
 440 776 l 5
 287 436 l 5
 286 776 l 5
 46 776 l 5
 46 23 l 5
 286 23 l 5
 286 375 l 5
 298 375 l 5
 298 375 334 374 336 374 c 4
 356 374 371 364 377 347 c 4
 379 342 380 316 382 93 c 4
 382 63 382 38 382 23 c 6
EndSplineSet
Validated: 1
EndChar

StartChar: L
Encoding: 76 76 11
Width: 522
VWidth: 0
Flags: HW
HStem: 0 24<40 485> 157 24<308 485> 780 24<40 284>
VStem: 17 24<24 780> 284 24<180 780> 485 24<24 157>
LayerCount: 2
Fore
SplineSet
509 0 m 5
 17 0 l 5
 17 804 l 5
 308 804 l 5
 308 180 l 5
 509 180 l 5
 509 0 l 5
40 24 m 5
 485 24 l 5
 485 157 l 5
 284 157 l 5
 284 780 l 5
 40 780 l 5
 40 24 l 5
EndSplineSet
Validated: 1
EndChar

StartChar: M
Encoding: 77 77 12
Width: 817
VWidth: 0
Flags: HW
HStem: -0 23<43 283 537 776> 779 23<43 287 532 776>
VStem: 20 23<23 779> 283 23<23 339> 513 23<23 339> 776 23<23 779>
LayerCount: 2
Fore
SplineSet
799 0 m 5
 513 0 l 5
 513 339 l 5
 409 93 l 5
 306 339 l 5
 306 -0 l 5
 20 -0 l 5
 20 802 l 5
 302 802 l 5
 409 551 l 5
 517 802 l 5
 799 802 l 5
 799 0 l 5
537 23 m 5
 776 23 l 5
 776 779 l 5
 532 779 l 5
 409 492 l 5
 287 779 l 5
 43 779 l 5
 43 23 l 5
 283 23 l 5
 283 453 l 5
 409 152 l 5
 537 454 l 5
 537 23 l 5
EndSplineSet
Validated: 1
EndChar

StartChar: N
Encoding: 78 78 13
Width: 746
VWidth: 0
Flags: HW
HStem: -0 23<41 281 460 704> 782 23<41 285 464 704>
VStem: 17 23<23 782> 281 23<23 336> 440 23<470 782> 704 23<23 782>
LayerCount: 2
Fore
SplineSet
727 0 m 5
 445 0 l 5
 304 336 l 5
 304 -0 l 5
 17 -0 l 5
 17 805 l 5
 300 805 l 5
 440 470 l 5
 440 805 l 5
 727 805 l 5
 727 0 l 5
460 23 m 5
 704 23 l 5
 704 782 l 5
 464 782 l 5
 464 355 l 5
 285 782 l 5
 41 782 l 5
 41 23 l 5
 281 23 l 5
 281 451 l 5
 460 23 l 5
EndSplineSet
Validated: 1
EndChar

StartChar: O
Encoding: 79 79 14
Width: 653
VWidth: 0
Flags: HW
HStem: 0 23<137 517> 150 23<305 349> 629 23<305 349> 779 23<137 517>
VStem: 18 23<126 676> 276 23<176 625> 355 23<176 625> 613 23<126 676>
LayerCount: 2
Fore
SplineSet
444 0 m 6
 210 0 l 6
 170 0 135 8 108 22 c 4
 81 37 60 57 47 81 c 4
 34 105 26 129 23 155 c 4
 20 176 18 216 18 273 c 5
 18 273 l 5
 18 303 l 5
 18 529 l 6
 18 586 20 625 23 646 c 4
 26 672 34 697 47 721 c 4
 60 745 81 765 108 780 c 4
 135 794 170 802 210 802 c 6
 444 802 l 6
 484 802 519 794 546 780 c 4
 573 765 594 745 607 721 c 4
 620 697 628 672 631 646 c 4
 634 625 636 586 636 529 c 5
 636 529 l 5
 636 499 l 5
 636 273 l 6
 636 216 634 176 631 155 c 4
 628 129 620 105 607 81 c 4
 594 57 573 37 546 22 c 4
 519 8 484 0 444 0 c 6
41 290 m 5
 41 285 l 6
 41 223 43 180 46 158 c 4
 49 135 56 113 67 92 c 4
 78 72 96 54 119 42 c 4
 143 29 173 23 210 23 c 6
 444 23 l 6
 481 23 511 29 535 42 c 4
 558 54 576 72 587 92 c 4
 598 113 605 135 608 158 c 4
 611 180 613 223 613 285 c 6
 613 303 l 5
 613 517 l 6
 613 579 611 622 608 644 c 4
 605 667 598 689 587 710 c 4
 576 730 558 748 535 760 c 4
 511 773 481 779 444 779 c 6
 210 779 l 6
 173 779 143 773 119 760 c 4
 96 748 78 730 67 710 c 4
 56 689 49 667 46 644 c 4
 43 622 41 579 41 517 c 6
 41 499 l 5
 41 290 l 5
 41 290 l 5
327 150 m 6
 327 150 l 6
 298 150 287 164 283 176 c 4
 280 185 276 208 276 298 c 6
 276 504 l 6
 276 594 280 616 283 625 c 4
 287 637 298 652 327 652 c 6
 327 652 l 6
 356 652 367 637 371 625 c 4
 374 616 378 594 378 504 c 6
 378 298 l 6
 378 208 374 185 371 176 c 4
 367 164 356 150 327 150 c 6
327 173 m 5
 328 173 l 6
 346 173 348 181 349 184 c 4
 351 190 355 213 355 298 c 6
 355 504 l 6
 355 589 351 612 349 618 c 4
 348 621 345 629 327 629 c 6
 326 629 l 6
 308 629 306 621 305 618 c 4
 303 612 299 589 299 504 c 6
 299 298 l 6
 299 213 303 190 305 184 c 4
 306 181 309 173 327 173 c 6
 327 173 l 5
EndSplineSet
Validated: 5
EndChar

StartChar: P
Encoding: 80 80 15
Width: 632
VWidth: 0
Flags: HW
HStem: 0 24<44 284> 334 24<308 504> 455 24<309 345> 659 24<309 355> 780 24<44 504>
VStem: 20 24<24 780> 284 24<24 334 479 659> 360 24<482 656> 592 24<448 690>
LayerCount: 2
Fore
SplineSet
20 0 m 5
 20 804 l 5
 431 804 l 6
 470 804 505 796 531 782 c 4
 558 768 577 749 590 725 c 4
 602 702 611 677 614 652 c 4
 616 638 615 619 615 605 c 4
 615 595 615 580 615 566 c 4
 615 555 615 543 615 533 c 4
 615 519 616 500 614 486 c 4
 611 461 602 436 590 413 c 4
 577 389 557 369 530 355 c 4
 504 341 470 334 431 334 c 6
 308 334 l 5
 308 0 l 5
 20 0 l 5
44 780 m 5
 44 24 l 5
 284 24 l 5
 284 358 l 5
 431 358 l 6
 467 358 496 364 519 376 c 4
 542 388 559 404 570 424 c 4
 581 445 587 466 590 488 c 4
 592 501 592 520 592 533 c 4
 592 543 592 554 592 566 c 4
 592 580 592 595 592 605 c 4
 592 618 592 636 590 649 c 4
 587 671 581 693 570 714 c 4
 559 734 543 750 520 762 c 4
 497 774 467 780 431 780 c 6
 44 780 l 5
 44 780 l 5
334 455 m 5
 285 455 l 5
 285 682 l 5
 334 682 l 6
 364 682 374 667 378 655 c 4
 380 649 382 637 383 591 c 4
 383 584 383 550 383 547 c 4
 382 502 380 489 378 483 c 4
 375 472 367 459 345 456 c 6
 345 455 l 5
 334 455 l 5
309 479 m 5
 335 479 l 6
 353 479 354 486 355 489 c 4
 356 493 359 506 360 548 c 4
 360 554 360 584 360 590 c 4
 359 632 356 645 355 649 c 4
 354 652 353 659 334 659 c 6
 309 659 l 5
 309 479 l 5
EndSplineSet
Validated: 37
EndChar

StartChar: Q
Encoding: 81 81 16
Width: 669
VWidth: 0
Flags: HW
HStem: -226 23<300 527> -81 23<465 527> -7 23<461 525> 144 23<313 356> 624 23<313 356> 775 23<142 527>
VStem: 24 23<119 672> 187 23<-107 -4> 283 23<170 621> 362 23<170 621> 437 24<-56 -7> 527 23<-203 -81> 621 23<119 672>
LayerCount: 2
Fore
SplineSet
550 -226 m 5
 373 -226 l 6
 334 -226 300 -219 274 -205 c 4
 247 -191 227 -172 214 -148 c 4
 202 -125 194 -100 191 -75 c 4
 189 -60 188 -38 187 -6 c 4
 170 -3 134 4 114 15 c 4
 86 30 66 49 53 74 c 4
 40 98 32 123 29 149 c 4
 26 171 24 210 24 267 c 5
 24 267 l 5
 24 297 l 5
 24 524 l 6
 24 581 26 620 29 642 c 4
 32 668 40 693 53 717 c 4
 66 742 86 761 114 776 c 4
 141 791 176 798 217 798 c 6
 452 798 l 6
 493 798 527 791 554 776 c 4
 582 761 603 742 616 717 c 4
 629 693 637 668 640 642 c 4
 643 620 644 582 644 524 c 5
 644 524 l 5
 644 494 l 5
 644 267 l 6
 644 209 643 171 640 149 c 4
 637 123 629 98 616 74 c 4
 603 49 582 30 554 15 c 4
 529 2 498 -6 461 -7 c 5
 462 -35 464 -45 465 -48 c 4
 466 -51 469 -58 486 -58 c 6
 550 -58 l 5
 550 -226 l 5
 550 -226 l 5
48 285 m 5
 48 279 l 6
 48 217 49 174 52 152 c 4
 55 129 63 106 74 85 c 4
 85 65 103 48 126 35 c 4
 145 25 186 18 200 16 c 6
 210 15 l 5
 210 5 l 6
 211 -31 212 -57 214 -72 c 4
 217 -94 224 -117 235 -137 c 4
 246 -157 262 -172 285 -184 c 4
 308 -196 338 -203 373 -203 c 6
 527 -203 l 5
 527 -81 l 5
 486 -81 l 6
 458 -81 447 -67 443 -55 c 4
 441 -49 438 -37 437 4 c 6
 437 16 l 5
 452 16 l 6
 489 16 519 22 543 35 c 4
 566 47 584 65 595 85 c 4
 606 106 614 129 617 152 c 4
 620 174 621 217 621 279 c 6
 621 297 l 5
 621 512 l 6
 621 574 620 617 617 639 c 4
 614 662 606 685 595 706 c 4
 584 726 566 743 543 756 c 4
 519 769 489 775 452 775 c 6
 217 775 l 6
 180 775 150 769 126 756 c 4
 103 743 85 726 74 706 c 4
 63 685 55 662 52 639 c 4
 49 617 48 574 48 512 c 6
 48 494 l 5
 48 285 l 5
 48 285 l 5
335 144 m 6
 334 144 l 6
 304 144 294 158 290 170 c 4
 287 179 283 201 283 292 c 6
 283 499 l 6
 283 590 287 612 290 621 c 4
 294 633 305 648 334 648 c 6
 335 648 l 6
 364 648 375 633 379 621 c 4
 382 612 386 590 386 499 c 6
 386 292 l 6
 386 201 382 179 379 170 c 4
 375 158 364 144 335 144 c 6
334 167 m 5
 335 167 l 6
 353 167 356 174 357 177 c 4
 360 185 362 211 362 292 c 6
 362 499 l 6
 362 584 359 608 357 614 c 4
 356 617 353 624 335 624 c 6
 333 624 l 6
 315 624 313 617 312 614 c 4
 310 608 307 584 307 499 c 6
 307 292 l 6
 307 207 310 184 312 178 c 4
 313 175 316 167 334 167 c 6
 334 167 l 5
EndSplineSet
Validated: 5
EndChar

StartChar: R
Encoding: 82 82 17
Width: 627
VWidth: 0
Flags: HW
HStem: 0 24<38 278 377 586> 353 24<302 349> 455 24<303 339> 659 24<303 349> 780 24<38 498>
VStem: 14 24<24 780> 278 24<24 353 479 659> 353 24<24 350 481 656> 586 24<24 378 500 690>
LayerCount: 2
Fore
SplineSet
610 -0 m 1
 353 -0 l 1
 353 264 l 2
 352 321 350 338 349 343 c 0
 348 346 346 353 327 353 c 2
 302 353 l 1
 302 0 l 1
 14 0 l 1
 14 804 l 1
 425 804 l 2
 464 804 499 796 525 782 c 0
 552 768 571 749 584 725 c 0
 596 702 605 677 608 652 c 0
 610 638 609 619 609 605 c 0
 609 583 610 553 608 538 c 0
 605 513 596 488 584 465 c 0
 579 456 573 447 566 439 c 0
 573 431 579 422 584 413 c 0
 596 390 605 365 608 340 c 0
 609 331 609 310 609 277 c 2
 610 266 l 1
 610 -0 l 1
 610 -0 l 1
377 24 m 1
 586 24 l 1
 586 266 l 2
 586 315 585 331 584 337 c 0
 581 359 575 381 564 402 c 0
 558 412 550 422 541 430 c 2
 532 439 l 1
 541 448 l 2
 550 456 558 466 564 476 c 0
 575 497 581 519 584 541 c 0
 585 552 586 575 586 605 c 0
 586 618 586 636 584 649 c 0
 581 671 575 693 564 714 c 0
 553 734 537 750 514 762 c 0
 491 774 461 780 425 780 c 2
 38 780 l 1
 38 24 l 1
 278 24 l 1
 278 376 l 1
 327 376 l 2
 357 376 367 361 371 349 c 0
 373 342 376 326 377 264 c 2
 377 24 l 1
328 455 m 1
 279 455 l 1
 279 682 l 1
 328 682 l 2
 358 682 368 667 372 655 c 0
 374 649 376 637 377 591 c 0
 377 583 378 573 378 563 c 0
 378 546 377 533 376 522 c 0
 375 496 373 487 372 483 c 0
 369 472 361 459 339 456 c 2
 339 455 l 1
 328 455 l 1
303 479 m 1
 328 479 l 2
 347 479 348 486 349 489 c 0
 350 492 352 500 353 523 c 0
 354 534 355 547 355 563 c 0
 355 573 354 582 354 590 c 0
 353 632 350 645 349 649 c 0
 348 652 347 659 328 659 c 2
 303 659 l 1
 303 479 l 1
 303 479 l 1
EndSplineSet
Validated: 37
EndChar

StartChar: S
Encoding: 83 83 18
Width: 649
VWidth: 0
Flags: HW
HStem: 0 23<61 510> 162 23<62 339> 296 23<143 340> 487 23<320 496> 619 23<320 545> 780 23<146 545>
VStem: 38 23<23 163> 274 23<532 597> 362 23<208 273> 545 23<642 780>
LayerCount: 2
Fore
SplineSet
438 -0 m 1
 436 -0 l 1
 38 0 l 1
 39 186 l 1
 51 186 l 2
 52 186 159 185 238 185 c 0
 295 185 312 186 317 186 c 0
 318 186 319 186 320 187 c 2
 322 187 l 2
 346 193 362 215 362 240 c 0
 362 270 338 295 308 295 c 2
 195 296 l 2
 159 299 128 308 104 324 c 0
 75 343 53 368 39 399 c 0
 14 454 4 526 12 594 c 0
 14 608 16 621 19 634 c 0
 25 659 32 682 41 701 c 0
 55 732 77 757 107 776 c 0
 136 794 173 803 216 803 c 2
 218 803 l 1
 568 803 l 1
 568 619 l 1
 406 619 l 2
 376 619 352 619 352 619 c 0
 322 619 297 595 297 565 c 0
 297 535 321 510 351 510 c 0
 351 510 358 510 369 510 c 0
 419 510 509 506 550 479 c 0
 579 460 601 435 615 404 c 0
 624 385 631 362 636 337 c 0
 639 324 641 310 642 296 c 0
 649 228 638 157 613 102 c 0
 599 71 577 46 547 27 c 0
 518 9 481 0 438 -0 c 1
61 23 m 1
 438 23 l 2
 477 23 510 31 535 47 c 0
 561 63 580 84 592 111 c 0
 615 162 626 230 620 293 c 0
 619 306 617 320 614 332 c 0
 609 355 602 376 594 394 c 0
 582 421 563 444 538 460 c 0
 499 485 399 487 369 487 c 0
 358 487 352 487 352 487 c 0
 309 487 274 522 274 565 c 0
 274 608 309 642 352 642 c 0
 353 642 376 642 406 642 c 2
 545 642 l 1
 545 780 l 1
 216 780 l 2
 177 780 144 772 119 756 c 0
 93 740 74 719 62 692 c 0
 54 674 47 652 42 629 c 0
 39 617 36 604 35 591 c 0
 28 528 37 460 60 409 c 0
 72 382 92 359 117 343 c 0
 138 329 165 321 196 319 c 2
 308 318 l 2
 351 318 385 283 385 240 c 0
 385 206 362 174 329 165 c 0
 325 163 322 163 319 163 c 0
 312 162 285 162 238 162 c 0
 174 162 92 163 62 163 c 2
 61 23 l 1
EndSplineSet
Validated: 33
EndChar

StartChar: T
Encoding: 84 84 19
Width: 616
VWidth: 0
Flags: HW
HStem: 0 23<187 428> 626 23<23 164 451 593> 781 23<23 593>
VStem: -1 23<649 781> 164 23<23 626> 428 23<23 626> 593 23<649 781>
LayerCount: 2
Fore
SplineSet
451 0 m 1
 164 0 l 1
 164 626 l 1
 -1 626 l 1
 -1 804 l 1
 616 804 l 1
 616 626 l 1
 451 626 l 1
 451 0 l 1
187 23 m 1
 428 23 l 1
 428 649 l 1
 593 649 l 1
 593 781 l 1
 23 781 l 1
 23 649 l 1
 187 649 l 1
 187 23 l 1
EndSplineSet
Validated: 1
EndChar

StartChar: U
Encoding: 85 85 20
Width: 655
VWidth: 0
Flags: HW
HStem: 0 23<141 521> 150 23<309 353> 779 23<45 280 382 615>
VStem: 22 23<126 779> 280 23<177 779> 359 23<184 779> 615 23<121 779>
LayerCount: 2
Fore
SplineSet
448 0 m 6
 214 0 l 6
 174 0 139 8 112 22 c 4
 85 37 64 57 51 81 c 4
 38 105 30 129 27 155 c 4
 24 178 22 222 22 285 c 6
 22 802 l 5
 303 802 l 5
 303 298 l 6
 303 213 307 190 309 184 c 4
 310 181 313 173 331 173 c 6
 332 173 l 6
 350 173 352 181 353 184 c 4
 355 190 359 213 359 298 c 6
 359 802 l 5
 638 802 l 5
 640 285 l 6
 640 280 638 178 635 155 c 4
 632 129 624 105 611 81 c 4
 598 57 578 37 550 22 c 4
 523 8 488 0 448 0 c 6
45 779 m 5
 45 285 l 6
 45 223 47 180 50 158 c 4
 53 135 60 113 71 92 c 4
 82 72 100 54 123 42 c 4
 147 29 177 23 214 23 c 6
 448 23 l 6
 485 23 515 29 539 42 c 4
 562 54 580 72 591 92 c 4
 602 113 609 135 612 158 c 4
 615 180 617 284 617 285 c 6
 615 779 l 5
 382 779 l 5
 382 298 l 6
 382 208 378 186 375 177 c 4
 371 165 360 150 331 150 c 6
 331 150 l 6
 302 150 291 165 287 177 c 4
 284 186 280 208 280 298 c 6
 280 779 l 5
 45 779 l 5
EndSplineSet
Validated: 5
EndChar

StartChar: V
Encoding: 86 86 21
Width: 654
VWidth: 0
Flags: HW
HStem: 0 23<226 439> 780 23<50 256 409 615>
LayerCount: 2
Fore
SplineSet
457 0 m 1
 208 0 l 1
 21 803 l 1
 275 803 l 1
 332 555 l 1
 390 803 l 1
 644 803 l 1
 457 0 l 1
226 23 m 1
 439 23 l 1
 615 780 l 1
 409 780 l 1
 332 453 l 1
 256 780 l 1
 50 780 l 1
 226 23 l 1
EndSplineSet
Validated: 1
EndChar

StartChar: W
Encoding: 87 87 22
Width: 921
VWidth: 0
Flags: HW
HStem: 0 23<158 357 566 766> 781 23<34 229 407 517 694 890>
LayerCount: 2
Fore
SplineSet
785 0 m 1
 548 0 l 1
 462 354 l 1
 375 0 l 1
 138 0 l 1
 7 804 l 1
 248 804 l 1
 297 514 l 1
 390 804 l 1
 534 804 l 1
 626 514 l 1
 675 804 l 1
 917 804 l 1
 785 0 l 1
566 23 m 1
 766 23 l 1
 890 781 l 1
 694 781 l 1
 633 417 l 1
 517 781 l 1
 407 781 l 1
 290 417 l 1
 229 781 l 1
 34 781 l 1
 158 23 l 1
 357 23 l 1
 462 450 l 1
 566 23 l 1
EndSplineSet
Validated: 1
EndChar

StartChar: X
Encoding: 88 88 23
Width: 751
VWidth: 0
Flags: HW
HStem: 0 23<47 277 468 698> 780 23<47 277 468 698>
LayerCount: 2
Fore
SplineSet
737 0 m 5
 455 0 l 5
 372 148 l 5
 290 0 l 5
 8 0 l 5
 231 402 l 5
 8 803 l 5
 290 803 l 5
 372 656 l 5
 455 803 l 5
 737 803 l 5
 514 402 l 5
 737 0 l 5
468 23 m 5
 698 23 l 5
 487 402 l 5
 698 780 l 5
 468 780 l 5
 372 608 l 5
 277 780 l 5
 47 780 l 5
 258 402 l 5
 47 23 l 5
 277 23 l 5
 372 195 l 5
 468 23 l 5
EndSplineSet
Validated: 1
EndChar

StartChar: Y
Encoding: 89 89 24
Width: 721
VWidth: 0
Flags: HW
HStem: 0 23<240 480> 780 23<34 264 456 686>
VStem: 217 23<23 405> 480 23<23 405>
LayerCount: 2
Fore
SplineSet
504 0 m 1
 217 0 l 1
 217 405 l 1
 -5 803 l 1
 278 803 l 1
 360 655 l 1
 442 803 l 1
 725 803 l 1
 504 405 l 1
 504 0 l 1
240 23 m 1
 480 23 l 1
 480 411 l 1
 686 780 l 1
 456 780 l 1
 360 607 l 1
 264 780 l 1
 34 780 l 1
 240 411 l 1
 240 23 l 1
EndSplineSet
Validated: 1
EndChar

StartChar: Z
Encoding: 90 90 25
Width: 770
VWidth: 0
Flags: HW
HStem: 0 23<52 724> 146 23<414 724> 635 23<101 354> 781 23<101 716>
VStem: 77 23<658 781> 724 23<23 146>
LayerCount: 2
Fore
SplineSet
747 0 m 1
 14 0 l 1
 354 635 l 1
 77 635 l 1
 77 804 l 1
 755 804 l 1
 414 169 l 1
 747 169 l 1
 747 0 l 1
 747 0 l 1
52 23 m 1
 724 23 l 1
 724 146 l 1
 375 146 l 1
 716 780 l 1
 101 781 l 1
 101 658 l 1
 393 658 l 1
 52 23 l 1
EndSplineSet
Validated: 5
EndChar

StartChar: a
Encoding: 97 97 26
Width: 657
VWidth: 0
Flags: HW
HStem: 0 23<138 609> 148 23<305 347> 269 23<305 348> 417 23<138 348> 486 23<122 333> 634 23<122 518>
VStem: 23 23<121 319> 99 23<509 634> 278 23<174 267> 348 23<171 269 440 484> 609 23<23 536>
LayerCount: 2
Fore
SplineSet
632 0 m 1
 211 0 l 2
 171 0 138 7 111 21 c 0
 84 35 63 56 50 80 c 0
 37 103 30 128 27 153 c 0
 26 164 24 196 23 220 c 0
 24 256 26 278 27 287 c 0
 30 312 37 337 50 360 c 0
 63 384 84 405 111 419 c 0
 138 433 171 440 211 440 c 2
 348 440 l 1
 348 469 l 2
 348 475 345 484 331 486 c 0
 319 486 112 486 110 486 c 2
 99 486 l 1
 99 657 l 1
 444 657 l 2
 485 657 518 649 545 635 c 0
 572 621 592 601 605 577 c 0
 618 554 626 529 629 504 c 0
 630 495 631 472 632 437 c 2
 632 0 l 1
 632 0 l 1
211 417 m 2
 175 417 145 410 122 398 c 0
 99 386 82 370 71 350 c 0
 60 329 53 306 50 284 c 0
 49 276 47 254 46 220 c 0
 47 187 49 164 50 156 c 0
 53 133 60 112 71 91 c 0
 82 71 99 54 122 42 c 0
 145 30 175 23 211 23 c 2
 609 23 l 1
 609 437 l 2
 608 470 607 493 606 501 c 0
 603 524 596 545 585 566 c 0
 574 586 557 603 534 615 c 0
 511 627 480 634 444 634 c 2
 122 634 l 1
 122 509 l 1
 167 509 331 509 332 509 c 2
 333 509 l 2
 359 505 370 486 371 470 c 2
 371 417 l 1
 211 417 l 2
329 148 m 2
 327 148 l 2
 298 148 287 162 283 174 c 0
 281 179 279 189 278 220 c 2
 278 220 l 1
 278 221 l 2
 279 252 281 261 283 266 c 0
 287 278 298 292 327 292 c 2
 371 292 l 1
 371 170 l 1
 369 168 l 2
 364 159 354 148 329 148 c 2
301 220 m 0
 302 193 304 184 305 181 c 0
 306 178 309 171 327 171 c 2
 329 171 l 2
 341 171 346 175 348 177 c 2
 348 269 l 1
 327 269 l 2
 309 269 306 262 305 259 c 0
 304 256 302 247 301 220 c 0
EndSplineSet
Validated: 5
EndChar

StartChar: b
Encoding: 98 98 27
Width: 652
VWidth: 0
Flags: HW
HStem: 0 23<39 518> 150 23<305 348> 494 23<305 348> 644 23<305 518> 780 23<39 282>
VStem: 16 23<23 780> 282 23<174 494 667 780> 354 23<177 490> 608 23<114 553>
LayerCount: 2
Fore
SplineSet
444 0 m 2
 16 0 l 1
 16 803 l 1
 305 803 l 1
 305 667 l 1
 444 667 l 2
 485 667 519 659 546 645 c 0
 574 630 594 611 607 586 c 0
 620 562 628 537 631 511 c 0
 633 493 634 463 635 418 c 2
 636 253 l 2
 636 249 633 175 631 156 c 0
 628 130 620 105 607 81 c 0
 594 56 574 37 546 22 c 0
 519 8 485 0 444 0 c 2
39 23 m 1
 444 23 l 2
 481 23 511 29 535 42 c 0
 558 54 575 72 586 92 c 0
 597 113 605 136 608 159 c 0
 610 177 612 252 612 253 c 2
 612 417 l 2
 611 460 610 492 608 509 c 0
 605 532 597 554 586 575 c 0
 575 595 558 613 535 625 c 0
 511 638 481 644 444 644 c 2
 282 644 l 1
 282 780 l 1
 39 780 l 1
 39 23 l 1
327 150 m 2
 282 150 l 1
 282 517 l 1
 327 517 l 2
 356 517 367 502 371 490 c 0
 374 481 377 460 377 369 c 2
 377 298 l 2
 377 207 374 186 371 177 c 0
 367 165 356 150 327 150 c 2
305 174 m 1
 327 174 l 2
 345 174 347 181 348 184 c 0
 350 190 354 213 354 298 c 2
 354 369 l 2
 354 454 350 477 348 483 c 0
 347 486 345 494 327 494 c 2
 305 494 l 1
 305 174 l 1
EndSplineSet
Validated: 1
EndChar

StartChar: c
Encoding: 99 99 28
Width: 443
VWidth: 0
Flags: HW
HStem: 0 23<132 405> 148 23<298 405> 486 23<298 405> 634 23<131 405>
VStem: 15 23<123 534> 269 23<174 475> 405 23<23 148 509 634>
LayerCount: 2
Fore
SplineSet
428 0 m 1
 204 0 l 2
 164 0 131 7 104 21 c 0
 77 35 56 56 43 80 c 0
 30 103 23 128 20 153 c 0
 18 171 16 204 15 249 c 0
 15 273 18 486 20 504 c 0
 23 529 30 554 43 577 c 0
 56 601 77 621 104 635 c 0
 131 649 164 657 204 657 c 2
 428 657 l 1
 428 486 l 1
 319 486 l 2
 301 486 299 479 298 476 c 0
 296 470 292 446 292 363 c 2
 292 293 l 2
 292 210 296 187 298 181 c 0
 299 178 301 171 319 171 c 2
 428 171 l 1
 428 0 l 1
 428 0 l 1
204 634 m 2
 168 634 138 627 115 615 c 0
 92 603 75 586 64 566 c 0
 53 545 45 524 42 501 c 0
 40 489 39 343 38 249 c 0
 39 205 40 174 42 156 c 0
 45 133 53 112 64 91 c 0
 75 71 92 54 115 42 c 0
 138 30 168 23 204 23 c 2
 405 23 l 1
 405 148 l 1
 319 148 l 2
 290 148 280 162 276 174 c 0
 273 183 269 204 269 293 c 2
 269 363 l 2
 269 452 273 474 276 483 c 0
 280 495 290 509 319 509 c 2
 405 509 l 1
 405 634 l 1
 204 634 l 2
EndSplineSet
Validated: 5
EndChar

StartChar: d
Encoding: 100 100 29
Width: 660
VWidth: 0
Flags: HW
HStem: 0 23<141 620> 150 23<311 354> 494 23<311 354> 644 23<141 354> 780 23<377 620>
VStem: 24 23<125 543> 282 23<177 491> 354 23<174 494 667 780> 620 23<23 780>
LayerCount: 2
Fore
SplineSet
643 0 m 1
 216 0 l 2
 175 0 141 8 114 22 c 0
 86 37 65 56 52 81 c 0
 39 105 31 130 28 156 c 0
 26 175 24 250 24 253 c 2
 24 418 l 2
 25 463 26 494 28 512 c 0
 31 538 39 562 52 586 c 0
 65 611 86 631 114 646 c 0
 141 660 175 667 216 667 c 2
 354 667 l 1
 354 803 l 1
 643 803 l 1
 643 0 l 1
216 644 m 2
 179 644 149 638 125 625 c 0
 102 613 84 595 73 575 c 0
 62 554 54 532 51 509 c 0
 49 492 48 460 47 417 c 2
 47 253 l 2
 47 253 49 177 51 159 c 0
 54 136 62 113 73 92 c 0
 84 72 102 54 125 42 c 0
 149 29 179 23 216 23 c 2
 620 23 l 1
 620 780 l 1
 377 780 l 1
 377 644 l 1
 216 644 l 1
 216 644 l 2
333 150 m 2
 304 150 293 165 289 177 c 0
 286 186 282 207 282 298 c 2
 282 369 l 2
 282 460 286 482 289 491 c 0
 293 503 304 517 333 517 c 2
 377 517 l 1
 377 150 l 1
 333 150 l 2
333 494 m 1
 315 494 312 486 311 483 c 0
 309 477 305 454 305 369 c 2
 305 298 l 2
 305 213 309 190 311 184 c 0
 312 181 315 174 333 174 c 2
 354 174 l 1
 354 494 l 1
 333 494 l 1
EndSplineSet
Validated: 5
EndChar

StartChar: e
Encoding: 101 101 30
Width: 633
VWidth: 0
Flags: HW
HStem: 0 24<124 594> 147 24<274 594> 221 24<275 592> 372 24<285 337> 485 24<291 333> 633 24<124 501>
VStem: 8 24<123 534> 250 24<174 205> 262 24<395 483> 337 24<395 476> 593 24<24 148 245 534>
LayerCount: 2
Fore
SplineSet
617 0 m 1xff60
 197 0 l 2
 157 0 123 8 96 22 c 0
 69 36 49 56 36 80 c 0
 23 103 15 128 12 153 c 0
 10 169 8 231 8 234 c 2
 8 440 l 2
 8 443 10 489 12 503 c 0
 15 528 23 554 36 577 c 0
 49 601 69 621 96 635 c 0
 123 649 157 657 197 657 c 2
 427 657 l 2
 467 657 501 649 528 635 c 0
 555 621 575 601 588 577 c 0
 601 554 609 528 612 503 c 0
 613 491 614 475 615 452 c 2
 616 452 l 1
 617 440 l 1
 617 268 l 1
 616 221 l 1
 296 221 l 2
 278 221 276 214 275 211 c 0
 275 210 274 208 273 204 c 0
 273 198 273 192 273 188 c 0
 273 185 273 182 273 181 c 0
 274 178 276 171 294 171 c 2
 617 171 l 1
 617 0 l 1
 617 0 l 1xff60
197 633 m 1
 161 633 130 626 107 614 c 0
 84 602 68 586 57 566 c 0
 46 545 39 524 36 501 c 0
 34 488 31 439 31 439 c 2
 31 235 l 2
 31 235 34 171 36 156 c 0
 39 133 46 112 57 91 c 0
 68 71 84 54 107 42 c 0
 130 30 161 24 197 24 c 2
 594 24 l 1
 594 148 l 1
 294 147 l 2
 265 147 255 162 251 174 c 0
 250 178 250 183 250 189 c 0
 250 193 250 199 250 204 c 2
 250 205 l 1
 250 206 l 2
 251 212 251 215 252 218 c 0
 256 230 267 245 296 245 c 2
 592 245 l 1
 593 269 l 1
 593 431 l 1
 592 440 l 2
 591 468 591 488 589 501 c 0
 586 524 579 545 568 566 c 0
 557 586 540 602 517 614 c 0
 494 626 463 633 427 633 c 2
 197 633 l 1
361 372 m 1
 262 372 l 1
 262 383 l 2xfee0
 263 456 265 475 268 483 c 0
 272 495 283 509 312 509 c 2
 313 509 l 2
 342 509 352 495 356 483 c 0
 357 481 359 476 361 384 c 2
 361 372 l 1
285 395 m 1
 337 395 l 2
 336 433 334 471 333 476 c 0
 332 478 330 485 313 485 c 2
 311 485 l 1
 311 485 l 2
 294 485 292 478 291 475 c 0
 289 470 286 453 285 395 c 1
EndSplineSet
Validated: 5
EndChar

StartChar: f
Encoding: 102 102 31
Width: 390
VWidth: 0
Flags: HW
HStem: 0 23<41 260> 376 23<283 351> 510 23<283 351> 648 23<288 351> 780 23<116 351>
VStem: 18 23<23 705> 260 23<23 376 534 637> 351 23<400 510 671 780>
LayerCount: 2
Fore
SplineSet
283 0 m 1
 18 0 l 1
 18 12 l 2
 18 163 17 657 18 665 c 0
 21 688 28 710 39 731 c 0
 51 753 69 771 94 784 c 0
 118 797 149 804 185 804 c 2
 375 804 l 1
 375 648 l 1
 363 648 l 1
 363 648 310 647 309 647 c 0
 290 647 289 640 288 637 c 0
 288 636 287 635 287 634 c 0
 285 618 284 574 283 534 c 1
 375 534 l 1
 375 376 l 1
 283 376 l 1
 283 0 l 1
41 23 m 1
 260 23 l 1
 260 400 l 1
 351 400 l 1
 351 510 l 1
 260 510 l 1
 260 522 l 2
 260 543 261 613 264 638 c 0
 264 641 265 643 265 644 c 0
 269 656 279 671 309 671 c 0
 310 671 336 671 351 671 c 2
 351 780 l 1
 185 780 l 2
 153 780 126 775 105 764 c 0
 85 753 70 738 60 720 c 0
 50 701 43 682 41 662 c 0
 40 650 41 245 41 23 c 1
EndSplineSet
Validated: 33
EndChar

StartChar: g
Encoding: 103 103 32
Width: 658
VWidth: 0
Flags: HW
HStem: -222 24<69 516> -75 24<69 349> 0 24<139 353> 148 24<306 354> 485 24<306 349> 633 24<139 608>
VStem: 27 24<111 545> 45 24<-199 -75> 277 24<174 482> 354 24<-41 0 171 482> 608 24<-99 633>
LayerCount: 2
Fore
SplineSet
442 -222 m 2xfee0
 45 -222 l 1
 45 -51 l 1xfde0
 328 -51 l 2
 346 -51 348 -44 349 -41 c 0
 350 -38 352 -28 353 0 c 2
 212 0 l 2
 172 0 139 8 112 22 c 0
 85 36 64 56 51 80 c 0
 38 103 30 128 27 153 c 0
 24 177 23 351 23 358 c 0
 23 430 24 478 27 503 c 0
 30 528 38 554 51 577 c 0
 64 601 85 621 112 635 c 0
 139 649 172 656 212 656 c 2
 631 656 l 1
 631 12 l 2
 631 9 629 -53 627 -69 c 0
 624 -94 616 -120 603 -143 c 0
 590 -167 570 -187 543 -201 c 0
 516 -215 482 -222 442 -222 c 2xfee0
69 -199 m 1
 442 -199 l 2
 478 -199 509 -192 532 -180 c 0
 555 -168 571 -151 582 -131 c 0
 593 -110 600 -88 603 -66 c 0
 605 -51 608 11 608 12 c 2
 608 633 l 1
 212 633 l 2
 176 633 146 626 123 614 c 0
 100 602 83 585 72 565 c 0
 61 544 54 522 51 500 c 0
 48 476 47 429 47 358 c 0
 48 296 49 175 51 156 c 0xfee0
 54 134 61 112 72 91 c 0
 83 71 100 55 123 43 c 0
 146 31 176 24 212 24 c 2
 377 24 l 1
 377 12 l 2
 376 -30 373 -43 371 -49 c 0
 367 -61 357 -75 328 -75 c 2
 69 -75 l 1
 69 -199 l 1
327 148 m 2
 298 148 287 162 283 174 c 0
 280 183 277 204 277 293 c 2
 277 363 l 2
 277 452 280 473 283 482 c 0
 287 494 298 509 327 509 c 0
 358 509 368 494 372 481 c 0
 374 472 378 450 378 357 c 2
 378 148 l 1
 327 148 l 2
327 485 m 0
 309 485 307 478 306 475 c 0
 304 469 300 446 300 363 c 2
 300 293 l 2
 300 210 304 188 306 182 c 0
 307 179 309 171 327 171 c 2
 354 171 l 1
 354 357 l 2
 354 445 351 469 349 475 c 0
 348 478 346 485 327 485 c 0
EndSplineSet
Validated: 1
EndChar

StartChar: h
Encoding: 104 104 33
Width: 628
VWidth: 0
Flags: HW
HStem: 0 23<42 283 370 589> 512 24<307 343> 645 23<307 514> 780 23<42 283>
VStem: 18 23<23 780> 283 23<23 512 669 780> 347 23<23 510> 589 23<23 570>
LayerCount: 2
Fore
SplineSet
612 0 m 1
 347 0 l 1
 347 351 l 2
 347 407 346 479 343 500 c 0
 343 501 342 501 342 502 c 0
 341 505 340 512 321 512 c 0
 320 512 313 512 307 512 c 2
 307 0 l 1
 18 0 l 1
 18 804 l 1
 307 804 l 1
 307 669 l 1
 445 669 l 2
 481 669 512 662 536 649 c 0
 561 636 579 618 591 596 c 0
 602 575 609 553 612 530 c 0
 613 522 612 131 612 12 c 2
 612 0 l 1
370 23 m 1
 589 23 l 1
 589 170 590 515 589 527 c 0
 587 547 580 566 570 585 c 0
 560 603 545 617 525 628 c 0
 504 639 477 645 445 645 c 2
 283 645 l 1
 283 780 l 1
 42 780 l 1
 42 23 l 1
 283 23 l 1
 283 536 l 1
 295 536 l 1
 295 536 320 536 321 536 c 0
 351 536 362 520 365 508 c 0
 365 507 366 505 366 503 c 0
 369 476 370 396 370 351 c 2
 370 23 l 1
EndSplineSet
Validated: 33
EndChar

StartChar: i
Encoding: 105 105 34
Width: 323
VWidth: 0
Flags: HW
HStem: 0 23<39 282> 579 23<39 282> 646 23<39 282> 780 23<39 282>
VStem: 15 23<23 579 670 780> 282 23<23 579 670 780>
LayerCount: 2
Fore
SplineSet
306 0 m 5
 15 0 l 5
 15 603 l 5
 306 603 l 5
 306 0 l 5
39 23 m 5
 282 23 l 5
 282 579 l 5
 39 579 l 5
 39 23 l 5
306 646 m 5
 15 646 l 5
 15 804 l 5
 306 804 l 5
 306 646 l 5
39 670 m 5
 282 670 l 5
 282 780 l 5
 39 780 l 5
 39 670 l 5
EndSplineSet
Validated: 1
EndChar

StartChar: j
Encoding: 106 106 35
Width: 454
VWidth: 0
Flags: HW
HStem: -226 24<49 314> -79 24<49 147> 571 24<176 406> 639 24<176 406> 775 24<176 406>
VStem: 25 24<-203 -79> 152 24<-45 571 663 775> 406 24<-104 571 663 775>
LayerCount: 2
Fore
SplineSet
241 -226 m 6
 25 -226 l 5
 25 -55 l 5
 126 -55 l 6
 144 -55 146 -48 147 -45 c 4
 148 -41 151 -30 152 8 c 6
 152 595 l 5
 430 595 l 5
 430 8 l 6
 430 5 427 -57 425 -73 c 4
 422 -98 415 -124 402 -147 c 4
 389 -171 368 -191 341 -205 c 4
 314 -219 281 -226 241 -226 c 6
49 -203 m 5
 241 -203 l 6
 277 -203 307 -196 330 -184 c 4
 353 -172 370 -155 381 -135 c 4
 392 -114 399 -92 402 -70 c 4
 404 -55 406 7 406 8 c 6
 406 571 l 5
 176 571 l 5
 176 8 l 6
 175 -34 172 -47 170 -53 c 4
 166 -65 155 -79 126 -79 c 6
 49 -79 l 5
 49 -203 l 5
 49 -203 l 5
430 639 m 5
 152 639 l 5
 152 799 l 5
 430 799 l 5
 430 639 l 5
176 663 m 5
 406 663 l 5
 406 775 l 5
 176 775 l 5
 176 663 l 5
EndSplineSet
Validated: 5
EndChar

StartChar: k
Encoding: 107 107 36
Width: 643
VWidth: 0
Flags: HW
HStem: 0 23<45 289 375 594> 647 23<375 594> 781 23<45 289>
VStem: 21 23<23 781> 289 23<23 255 412 781> 347 22<23 250 417 647> 594 23<23 280 388 647>
LayerCount: 2
Fore
SplineSet
617 0 m 5
 351 0 l 5
 352 94 l 6
 352 150 351 220 348 242 c 4
 348 243 347 244 347 245 c 4
 345 248 329 254 312 255 c 6
 312 0 l 5
 21 0 l 5
 21 805 l 5
 312 805 l 5
 312 412 l 6
 329 413 345 419 347 423 c 4
 347 423 348 424 348 425 c 4
 351 446 352 517 352 573 c 6
 351 671 l 5
 617 671 l 5
 618 627 l 6
 618 611 618 595 618 579 c 4
 618 551 618 523 618 495 c 4
 619 454 620 404 596 360 c 4
 591 351 584 342 577 334 c 4
 584 326 591 317 596 308 c 4
 617 269 619 226 619 191 c 4
 618 138 618 85 618 33 c 6
 617 0 l 5
375 23 m 5
 594 23 l 5
 594 33 l 6
 594 85 594 139 595 192 c 4
 595 226 593 263 575 297 c 4
 569 307 562 317 553 325 c 6
 543 334 l 5
 553 342 l 6
 562 350 569 361 575 371 c 4
 594 407 596 446 595 494 c 4
 595 522 594 551 594 579 c 4
 594 595 594 611 594 627 c 6
 594 647 l 5
 375 647 l 5
 375 573 l 6
 375 528 374 448 371 422 c 4
 371 419 370 417 370 416 c 4
 362 389 308 389 307 389 c 4
 306 389 301 388 301 388 c 5
 289 388 l 5
 289 400 l 5
 289 781 l 5
 45 781 l 5
 45 23 l 5
 289 23 l 5
 289 279 l 5
 301 279 l 6
 301 279 306 278 307 278 c 4
 308 278 362 278 370 251 c 4
 370 250 371 248 371 246 c 4
 374 219 375 139 375 94 c 6
 375 23 l 5
EndSplineSet
Validated: 33
EndChar

StartChar: l
Encoding: 108 108 37
Width: 316
VWidth: 0
Flags: HW
HStem: 0 23<34 276> 780 23<34 276>
VStem: 11 23<23 780> 276 23<23 780>
LayerCount: 2
Fore
SplineSet
300 0 m 5
 11 0 l 5
 11 804 l 5
 300 804 l 5
 300 0 l 5
 300 0 l 5
34 23 m 5
 276 23 l 5
 276 780 l 5
 34 780 l 5
 34 23 l 5
EndSplineSet
Validated: 5
EndChar

StartChar: m
Encoding: 109 109 38
Width: 840
VWidth: 0
Flags: HW
HStem: 0 24<39 285 386 542 643 801> 485 24<309 357 571 614> 633 24<39 371 556 587 587 709>
VStem: 15 24<24 633> 285 24<24 485> 363 24<24 483> 542 24<24 475> 620 24<24 483> 801 24<24 534>
LayerCount: 2
Fore
SplineSet
825 0 m 1
 620 0 l 1
 620 363 l 2
 620 446 616 469 614 475 c 0
 613 478 611 485 593 485 c 0
 574 485 572 478 571 475 c 0
 569 469 566 445 566 357 c 2
 566 0 l 1
 363 0 l 1
 363 363 l 2
 363 446 359 469 357 475 c 0
 356 478 354 485 336 485 c 2
 309 485 l 1
 309 0 l 1
 15 0 l 1
 15 657 l 1
 347 656 l 2
 354 656 362 656 369 656 c 2
 371 656 l 2
 394 652 416 644 437 633 c 0
 446 628 455 621 463 614 c 0
 471 621 481 628 490 633 c 0
 511 644 533 651 556 655 c 2
 557 656 l 2
 567 656 587 656 587 656 c 1
 636 657 l 2
 676 657 709 649 736 635 c 0
 763 621 784 601 797 577 c 0
 810 553 817 528 820 503 c 0
 823 478 825 431 825 358 c 2
 825 0 l 1
643 24 m 1
 801 24 l 1
 801 358 l 2
 801 429 800 477 797 501 c 0
 794 523 787 545 776 566 c 0
 765 586 748 602 725 614 c 0
 702 626 672 633 636 633 c 2
 587 633 l 2
 587 633 569 632 559 632 c 0
 539 629 519 622 501 612 c 0
 490 606 481 598 472 589 c 2
 463 580 l 1
 455 589 l 2
 446 598 437 606 426 612 c 0
 408 622 388 629 368 632 c 0
 361 632 353 633 347 633 c 2
 39 633 l 1
 39 24 l 1
 285 24 l 1
 285 509 l 1
 336 509 l 2
 365 509 376 495 380 483 c 0
 383 474 386 452 386 363 c 2
 386 24 l 1
 542 24 l 1
 542 357 l 2
 542 450 546 473 548 482 c 0
 552 495 562 509 593 509 c 0
 622 509 633 495 637 483 c 0
 640 474 643 452 643 363 c 2
 643 24 l 1
 643 24 l 1
EndSplineSet
Validated: 5
EndChar

StartChar: n
Encoding: 110 110 39
Width: 636
VWidth: 0
Flags: HW
HStem: 0 24<36 266 367 598> 485 24<290 338> 633 24<36 505>
VStem: 12 24<24 633> 266 24<24 485> 344 24<24 483> 598 24<24 534>
LayerCount: 2
Fore
SplineSet
621 0 m 1
 344 0 l 1
 344 363 l 2
 344 446 340 469 338 475 c 0
 337 478 335 485 317 485 c 2
 290 485 l 1
 290 0 l 1
 12 0 l 1
 12 657 l 1
 432 657 l 2
 472 657 506 649 533 635 c 0
 560 621 580 601 593 577 c 0
 606 553 614 528 617 503 c 0
 620 478 621 430 621 358 c 2
 621 0 l 1
 621 0 l 1
367 24 m 1
 598 24 l 1
 598 358 l 2
 598 429 596 477 593 501 c 0
 590 523 583 545 572 566 c 0
 561 586 545 602 522 614 c 0
 499 626 468 633 432 633 c 2
 36 633 l 1
 36 24 l 1
 266 24 l 1
 266 509 l 1
 317 509 l 2
 346 509 357 495 361 483 c 0
 364 474 367 452 367 363 c 2
 367 24 l 1
 367 24 l 1
EndSplineSet
Validated: 5
EndChar

StartChar: o
Encoding: 111 111 40
Width: 631
VWidth: 0
Flags: HW
HStem: 0 24<129 506> 148 24<296 338> 485 24<296 338> 632 24<129 506>
VStem: 17 24<111 545> 267 24<174 482> 344 24<174 482> 593 24<111 545>
LayerCount: 2
Fore
SplineSet
432 0 m 2
 202 0 l 2
 162 0 128 8 101 22 c 0
 74 36 54 56 41 80 c 0
 28 103 20 128 17 153 c 0
 15 173 15 483 17 503 c 0
 20 528 28 553 41 576 c 0
 54 600 74 621 101 635 c 0
 128 649 162 656 202 656 c 2
 432 656 l 2
 472 656 506 649 533 635 c 0
 560 621 580 600 593 576 c 0
 606 553 614 528 617 503 c 0
 619 483 619 173 617 153 c 0
 614 128 606 103 593 80 c 0
 580 56 560 36 533 22 c 0
 506 8 472 0 432 0 c 2
202 632 m 1
 166 632 136 626 113 614 c 0
 90 602 73 585 62 565 c 0
 51 544 44 522 41 500 c 0
 39 482 39 174 41 156 c 0
 44 134 51 112 62 91 c 0
 73 71 90 54 113 42 c 0
 136 30 166 24 202 24 c 2
 432 24 l 2
 468 24 498 30 521 42 c 0
 544 54 561 71 572 91 c 0
 583 112 590 134 593 156 c 0
 595 174 595 482 593 500 c 0
 590 522 583 544 572 565 c 0
 561 585 544 602 521 614 c 0
 498 626 468 632 432 632 c 2
 202 632 l 1
317 148 m 2
 317 148 l 2
 288 148 277 162 273 174 c 0
 270 183 267 204 267 293 c 2
 267 363 l 2
 267 452 270 473 273 482 c 0
 277 494 288 509 317 509 c 0
 347 509 357 494 361 482 c 0
 364 473 368 452 368 363 c 2
 368 293 l 2
 368 204 364 183 361 174 c 0
 357 162 346 148 317 148 c 2
317 171 m 1
 318 171 l 2
 335 171 337 178 338 181 c 0
 340 187 344 210 344 293 c 2
 344 363 l 2
 344 446 340 469 338 475 c 0
 337 478 335 485 317 485 c 2
 316 485 l 2
 299 485 297 478 296 475 c 0
 294 469 290 446 290 363 c 2
 290 293 l 2
 290 210 294 187 296 181 c 0
 297 178 299 171 317 171 c 2
 317 171 l 1
151 467 m 1026
59 383 m 1026
EndSplineSet
Validated: 37
EndChar

StartChar: p
Encoding: 112 112 41
Width: 658
VWidth: 0
Flags: HW
HStem: -225 24<34 281> -25 24<304 521> 128 24<304 348> 477 24<304 348> 630 24<34 521>
VStem: 10 24<-201 630> 281 24<-201 -25 152 477> 354 24<155 474> 612 24<91 538>
LayerCount: 2
Fore
SplineSet
304 -225 m 5
 10 -225 l 5
 10 654 l 5
 445 654 l 6
 486 654 521 647 549 632 c 4
 577 617 599 597 612 572 c 4
 625 548 633 522 636 496 c 4
 638 477 641 400 641 397 c 6
 640 229 l 6
 639 183 638 152 636 133 c 4
 633 107 625 81 612 57 c 4
 599 32 577 12 549 -3 c 4
 521 -18 486 -25 445 -25 c 6
 304 -25 l 5
 304 -225 l 5
34 -201 m 5
 281 -201 l 5
 281 -1 l 5
 445 -1 l 6
 482 -1 514 5 538 18 c 4
 562 31 580 48 591 69 c 4
 603 91 609 113 612 136 c 4
 614 154 615 185 616 229 c 6
 617 397 l 6
 617 397 614 475 612 493 c 4
 609 516 603 538 591 560 c 4
 580 581 562 598 538 611 c 4
 514 624 482 630 445 630 c 6
 34 630 l 5
 34 -201 l 5
326 128 m 6
 281 128 l 5
 281 501 l 5
 326 501 l 6
 356 501 367 486 371 474 c 4
 374 465 378 443 378 351 c 6
 378 278 l 6
 378 186 374 164 371 155 c 4
 367 143 356 128 326 128 c 6
304 152 m 5
 326 152 l 6
 345 152 347 159 348 162 c 4
 350 168 354 192 354 278 c 6
 354 351 l 6
 354 437 350 461 348 467 c 4
 347 470 345 477 326 477 c 6
 304 477 l 5
 304 152 l 5
EndSplineSet
Validated: 1
EndChar

StartChar: q
Encoding: 113 113 42
Width: 656
VWidth: 0
Flags: HW
HStem: -224 24<375 622> -24 24<134 351> 129 24<307 351> 478 24<307 351> 631 24<134 622>
VStem: 19 24<92 539> 278 24<156 475> 351 24<-200 -24 153 478> 622 24<-200 631>
LayerCount: 2
Fore
SplineSet
645 -224 m 1
 351 -224 l 1
 351 -24 l 1
 210 -24 l 2
 169 -24 134 -17 106 -2 c 0
 78 13 57 33 44 58 c 0
 31 82 22 108 19 134 c 0
 17 153 16 184 15 230 c 2
 15 398 l 2
 15 402 17 478 19 497 c 0
 22 523 31 549 44 573 c 0
 57 598 78 618 106 633 c 0
 134 648 169 655 210 655 c 2
 645 655 l 1
 645 -224 l 1
375 -200 m 1
 622 -200 l 1
 622 631 l 1
 210 631 l 2
 173 631 142 625 118 612 c 0
 94 599 76 582 65 561 c 0
 53 539 46 517 43 494 c 0
 41 476 39 398 39 397 c 2
 39 230 l 2
 40 186 41 155 43 137 c 0
 46 114 53 92 65 70 c 0
 76 49 94 32 118 19 c 0
 142 6 173 0 210 -0 c 2
 375 -0 l 1
 375 -200 l 1
329 129 m 2
 299 129 288 144 284 156 c 0
 281 165 278 187 278 279 c 2
 278 352 l 2
 278 444 281 466 284 475 c 0
 288 487 299 502 329 502 c 2
 375 502 l 1
 375 129 l 1
 329 129 l 2
329 478 m 1
 310 478 308 471 307 468 c 0
 305 462 301 438 301 352 c 2
 301 279 l 2
 301 193 305 169 307 163 c 0
 308 160 310 153 329 153 c 2
 351 153 l 1
 351 478 l 1
 329 478 l 1
EndSplineSet
Validated: 1
EndChar

StartChar: r
Encoding: 114 114 43
Width: 633
VWidth: 0
Flags: HW
HStem: 0 24<34 264> 317 24<365 595> 485 24<288 336> 633 24<34 503>
VStem: 10 24<24 633> 264 24<24 485> 341 24<340 483> 595 24<340 534>
LayerCount: 2
Fore
SplineSet
288 0 m 1
 10 0 l 1
 10 657 l 1
 430 657 l 2
 470 657 503 649 530 635 c 0
 557 621 578 601 591 577 c 0
 604 553 611 528 614 503 c 0
 617 478 619 430 619 358 c 2
 619 317 l 1
 341 317 l 1
 341 363 l 2
 341 446 338 469 336 475 c 0
 335 478 333 485 315 485 c 2
 288 485 l 1
 288 0 l 1
34 24 m 1
 264 24 l 1
 264 509 l 1
 315 509 l 2
 344 509 354 495 358 483 c 0
 361 474 365 452 365 363 c 2
 365 340 l 1
 595 340 l 1
 595 358 l 2
 595 429 594 477 591 501 c 0
 588 523 581 545 570 566 c 0
 559 586 542 602 519 614 c 0
 496 626 466 633 430 633 c 2
 34 633 l 1
 34 24 l 1
EndSplineSet
Validated: 1
EndChar

StartChar: s
Encoding: 115 115 44
Width: 603
VWidth: 0
Flags: HW
HStem: 0 24<74 479> 147 24<74 353> 247 24<132 326 326 353> 387 24<258 477> 493 24<258 493> 633 24<132 493>
VStem: 50 24<24 147> 221 24<423 480> 364 24<182 236> 493 24<518 633>
LayerCount: 2
Fore
SplineSet
409 0 m 2
 50 0 l 1
 50 171 l 1
 62 171 l 1
 62 171 325 171 326 171 c 0
 347 171 364 188 364 209 c 0
 364 230 347 247 326 247 c 1
 326 247 211 247 202 247 c 0
 163 247 131 254 105 269 c 0
 79 284 60 304 48 329 c 0
 26 373 17 432 23 487 c 0
 24 498 26 510 29 521 c 0
 34 541 40 560 48 575 c 0
 60 600 79 620 105 635 c 0
 131 650 163 657 202 657 c 2
 517 657 l 1
 517 494 l 1
 286 493 l 2
 263 493 244 475 244 452 c 0
 244 429 263 410 286 410 c 2
 311 410 l 2
 341 410 388 411 393 411 c 0
 429 411 470 409 507 388 c 0
 533 373 552 353 564 328 c 0
 572 313 578 294 583 274 c 0
 586 263 588 252 589 240 c 0
 595 185 586 126 564 82 c 0
 552 57 533 37 507 22 c 0
 481 7 448 0 409 0 c 2
74 24 m 1
 409 24 l 2
 444 24 473 30 495 43 c 0
 517 55 532 72 542 92 c 0
 562 132 571 187 565 238 c 0
 564 249 562 258 560 268 c 0
 555 287 549 304 542 318 c 0
 532 338 517 355 495 367 c 0
 463 385 426 387 393 387 c 0
 388 387 341 387 311 387 c 2
 286 386 l 2
 250 386 221 416 221 452 c 0
 221 488 250 517 286 517 c 2
 493 518 l 1
 493 633 l 1
 202 633 l 2
 167 633 139 627 117 614 c 0
 95 602 79 585 69 565 c 0
 62 551 57 534 52 515 c 0
 50 505 47 495 46 485 c 0
 40 434 49 380 69 339 c 0
 79 319 95 302 117 290 c 0
 139 277 167 271 202 271 c 0
 211 271 326 271 326 271 c 2
 360 271 388 243 388 209 c 0
 388 175 360 147 326 147 c 0
 325 147 125 147 74 147 c 1
 74 24 l 1
 74 24 l 1
EndSplineSet
Validated: 37
EndChar

StartChar: t
Encoding: 116 116 45
Width: 389
VWidth: 0
Flags: HW
HStem: 0 23<117 352> 133 23<288 352> 512 23<284 352> 646 23<284 352> 780 23<42 261>
VStem: 19 23<99 780> 261 23<159 512 670 780> 352 23<23 133 536 646>
LayerCount: 2
Fore
SplineSet
376 0 m 5
 186 0 l 6
 150 0 119 6 95 19 c 4
 70 32 52 50 40 72 c 4
 29 93 22 116 19 139 c 4
 18 147 19 641 19 792 c 6
 19 804 l 5
 284 804 l 5
 284 670 l 5
 376 670 l 5
 376 512 l 5
 284 512 l 6
 284 500 285 484 285 464 c 4
 286 373 286 183 288 169 c 4
 288 168 289 167 289 166 c 4
 290 163 291 156 310 156 c 4
 311 156 364 156 364 156 c 5
 376 156 l 5
 376 0 l 5
42 780 m 5
 42 558 41 154 42 141 c 4
 44 121 51 102 61 83 c 4
 71 65 86 51 106 40 c 4
 127 29 154 23 186 23 c 6
 352 23 l 5
 352 133 l 6
 337 133 311 133 310 133 c 4
 280 133 270 148 266 160 c 4
 266 161 265 163 265 165 c 4
 263 180 262 327 261 464 c 4
 261 492 261 514 261 524 c 6
 261 536 l 5
 352 536 l 5
 352 646 l 5
 261 646 l 5
 261 780 l 5
 42 780 l 5
EndSplineSet
Validated: 33
EndChar

StartChar: u
Encoding: 117 117 46
Width: 628
VWidth: 0
Flags: HW
HStem: 0 24<126 595> 148 24<293 341> 633 24<33 263 364 595>
VStem: 9 24<123 633> 263 24<174 633> 341 24<172 633> 595 24<24 633>
LayerCount: 2
Fore
SplineSet
618 0 m 5
 199 0 l 6
 159 0 125 8 98 22 c 4
 71 36 51 56 38 80 c 4
 25 103 17 128 14 153 c 4
 11 178 9 227 9 299 c 6
 9 657 l 5
 287 657 l 5
 287 293 l 6
 287 210 291 188 293 182 c 4
 294 179 296 172 314 172 c 6
 341 172 l 5
 341 657 l 5
 618 657 l 5
 618 0 l 5
33 633 m 5
 33 299 l 6
 33 228 35 180 38 156 c 4
 41 134 48 112 59 91 c 4
 70 71 86 55 109 43 c 4
 132 31 163 24 199 24 c 6
 595 24 l 5
 595 633 l 5
 364 633 l 5
 364 148 l 5
 314 148 l 6
 285 148 274 162 270 174 c 4
 267 183 263 204 263 293 c 6
 263 633 l 5
 33 633 l 5
EndSplineSet
Validated: 1
EndChar

StartChar: v
Encoding: 118 118 47
Width: 635
VWidth: 0
Flags: HW
HStem: 0 24<215 416> 633 24<39 239 391 592>
LayerCount: 2
Fore
SplineSet
434 0 m 5
 197 0 l 5
 7 657 l 5
 257 657 l 5
 315 453 l 5
 374 657 l 5
 623 657 l 5
 434 0 l 5
215 24 m 5
 416 24 l 5
 592 633 l 5
 391 633 l 5
 315 366 l 5
 239 633 l 5
 39 633 l 5
 215 24 l 5
EndSplineSet
Validated: 1
EndChar

StartChar: w
Encoding: 119 119 48
Width: 913
VWidth: 0
Flags: HW
HStem: 0 24<177 384 534 742> 633 24<49 251 406 519 667 869>
LayerCount: 2
Fore
SplineSet
761 0 m 1
 516 0 l 1
 462 231 l 1
 403 0 l 1
 157 0 l 1
 20 657 l 1
 271 657 l 1
 320 400 l 1
 388 657 l 1
 538 657 l 1
 599 403 l 1
 648 657 l 1
 899 657 l 1
 761 0 l 1
534 24 m 1
 742 24 l 1
 869 633 l 1
 667 633 l 1
 601 290 l 1
 519 633 l 1
 406 633 l 1
 317 293 l 1
 251 633 l 1
 49 633 l 1
 177 24 l 1
 384 24 l 1
 463 331 l 1
 534 24 l 1
EndSplineSet
Validated: 1
EndChar

StartChar: x
Encoding: 120 120 49
Width: 657
VWidth: 0
Flags: HW
HStem: 0 24<43 249 401 607> 633 24<43 249 401 607>
LayerCount: 2
Fore
SplineSet
644 0 m 5
 386 0 l 5
 325 133 l 5
 264 0 l 5
 6 0 l 5
 154 329 l 5
 6 657 l 5
 264 657 l 5
 325 524 l 5
 386 657 l 5
 644 657 l 5
 497 329 l 5
 644 0 l 5
401 24 m 5
 607 24 l 5
 470 329 l 5
 607 633 l 5
 401 633 l 5
 325 467 l 5
 249 633 l 5
 43 633 l 5
 180 329 l 5
 43 24 l 5
 249 24 l 5
 325 191 l 5
 401 24 l 5
EndSplineSet
Validated: 1
EndChar

StartChar: y
Encoding: 121 121 50
Width: 658
VWidth: 0
Flags: HW
HStem: -225 24<70 517> -77 24<70 349> -2 24<140 354> 133 24<307 355> 630 24<48 278 378 609>
VStem: 28 24<109 630> 46 24<-201 -77> 278 24<159 630> 355 24<-43 -2 157 630> 609 24<-102 630>
LayerCount: 2
Fore
SplineSet
443 -225 m 6xfdc0
 46 -225 l 5
 46 -53 l 5xfbc0
 329 -53 l 6
 347 -53 349 -46 350 -43 c 4
 351 -40 353 -30 354 -2 c 6
 213 -2 l 6
 173 -2 140 5 113 19 c 4
 86 33 65 54 52 78 c 4
 39 101 31 126 28 151 c 4
 25 175 24 623 24 642 c 6
 24 654 l 5
 302 654 l 5
 302 248 l 6
 303 189 305 172 307 167 c 4
 308 164 310 157 328 157 c 4
 329 157 344 157 355 157 c 6
 355 654 l 5
 632 654 l 5
 632 10 l 6
 632 7 630 -55 628 -71 c 4
 625 -96 617 -122 604 -145 c 4
 591 -169 571 -189 544 -203 c 4
 517 -217 483 -225 443 -225 c 6xfdc0
70 -201 m 5
 443 -201 l 6
 479 -201 510 -194 533 -182 c 4
 556 -170 572 -154 583 -134 c 4
 594 -113 601 -91 604 -69 c 4
 606 -54 609 9 609 10 c 6
 609 630 l 5
 378 630 l 5
 378 133 l 5
 367 133 l 5
 367 133 329 133 328 133 c 4
 299 133 288 147 284 159 c 4
 282 166 279 184 278 248 c 6
 278 630 l 5
 48 630 l 5
 48 493 50 173 52 154 c 4xfdc0
 55 132 62 110 73 89 c 4
 84 69 101 52 124 40 c 4
 147 28 177 22 213 22 c 6
 378 22 l 5
 378 9 l 6
 377 -33 374 -45 372 -51 c 4
 368 -63 358 -77 329 -77 c 6
 70 -77 l 5
 70 -201 l 5
EndSplineSet
Validated: 1
EndChar

StartChar: z
Encoding: 122 122 51
Width: 643
VWidth: 0
Flags: HW
HStem: 0 24<51 603> 150 24<408 603> 480 24<42 244> 630 24<42 596>
VStem: 18 24<504 630> 603 24<24 150>
LayerCount: 2
Fore
SplineSet
626 0 m 5
 13 0 l 5
 244 480 l 5
 18 480 l 5
 18 654 l 5
 633 654 l 5
 408 174 l 5
 626 174 l 5
 626 0 l 5
 626 0 l 5
51 24 m 5
 603 24 l 5
 603 150 l 5
 370 150 l 5
 596 630 l 5
 42 630 l 5
 42 504 l 5
 282 504 l 5
 51 24 l 5
EndSplineSet
Validated: 5
EndChar

StartChar: zero
Encoding: 48 48 52
Width: 657
VWidth: 0
Flags: HW
HStem: 0 23<137 518> 150 23<305 349> 630 23<326 349> 780 23<137 518>
VStem: 18 23<126 678> 276 23<469 627> 355 23<177 335 590 627> 613 23<126 678>
LayerCount: 2
Fore
SplineSet
445 0 m 2
 210 0 l 2
 169 0 135 8 108 22 c 0
 80 37 59 56 46 81 c 0
 33 105 25 130 22 156 c 0
 19 177 18 217 18 274 c 1
 18 274 l 1
 18 303 l 1
 18 530 l 2
 18 587 19 627 22 648 c 0
 25 674 33 698 46 722 c 0
 59 747 80 767 108 782 c 0
 135 796 169 803 210 803 c 2
 445 803 l 2
 486 803 520 796 547 782 c 0
 575 767 595 747 608 722 c 0
 621 698 629 674 632 648 c 0
 635 627 636 587 636 530 c 1
 636 530 l 1
 636 500 l 1
 636 274 l 2
 636 217 635 177 632 156 c 0
 629 130 621 105 608 81 c 0
 595 56 575 37 547 22 c 0
 520 7 486 0 445 0 c 2
41 291 m 1
 41 285 l 2
 41 223 42 180 45 158 c 0
 48 135 56 113 67 92 c 0
 78 72 96 55 119 42 c 0
 143 29 173 23 210 23 c 2
 445 23 l 2
 482 23 512 29 536 42 c 0
 559 55 577 72 588 92 c 0
 599 113 606 135 609 158 c 0
 612 180 613 223 613 285 c 2
 613 303 l 1
 613 518 l 2
 613 580 612 623 609 645 c 0
 606 668 599 690 588 711 c 0
 577 731 559 749 536 761 c 0
 512 774 482 780 445 780 c 2
 210 780 l 2
 173 780 143 774 119 761 c 0
 96 749 78 731 67 711 c 0
 56 690 48 668 45 645 c 0
 42 623 41 580 41 518 c 2
 41 500 l 1
 41 291 l 1
 41 291 l 1
327 150 m 2
 327 150 l 2
 298 150 287 165 283 177 c 0
 281 183 279 194 278 211 c 2
 278 214 l 1
 378 448 l 1
 378 298 l 2
 378 207 374 186 371 177 c 0
 367 165 356 150 327 150 c 2
327 173 m 1
 328 173 l 2
 346 173 348 181 349 184 c 0
 351 190 355 213 355 298 c 2
 355 335 l 1
 302 210 l 2
 303 193 304 186 305 184 c 0
 306 181 309 173 327 173 c 2
 327 173 l 1
276 356 m 1
 276 505 l 2
 276 596 280 618 283 627 c 0
 287 639 298 653 327 653 c 2
 327 653 l 2
 356 653 367 639 371 627 c 0
 373 621 375 609 376 592 c 2
 376 590 l 1
 276 356 l 1
326 630 m 1
 327 630 l 2
 309 630 306 622 305 619 c 0
 303 613 299 590 299 505 c 2
 299 469 l 1
 353 594 l 2
 352 611 350 617 349 619 c 0
 348 622 345 630 327 630 c 2
 326 630 l 1
EndSplineSet
Validated: 5
EndChar

StartChar: one
Encoding: 49 49 53
Width: 534
VWidth: 0
Flags: HW
HStem: -1 23<37 498> 155 23<37 123 412 498> 622 23<37 123> 778 23<37 388>
VStem: 14 23<23 155 646 778> 123 23<178 622> 388 23<178 778> 498 23<23 155>
LayerCount: 2
Fore
SplineSet
521 -1 m 1
 14 -1 l 1
 14 178 l 1
 123 178 l 1
 123 622 l 1
 14 622 l 1
 14 801 l 1
 412 801 l 1
 412 178 l 1
 521 178 l 1
 521 -1 l 1
37 23 m 1
 498 23 l 1
 498 155 l 1
 388 155 l 1
 388 778 l 1
 37 778 l 1
 37 646 l 1
 147 646 l 1
 147 155 l 1
 37 155 l 1
 37 23 l 1
EndSplineSet
Validated: 1
EndChar

StartChar: two
Encoding: 50 50 54
Width: 667
VWidth: 0
Flags: HW
HStem: 0 23<46 631> 156 23<308 631> 267 23<330 518> 461 23<175 319 319 351> 549 23<64 288> 632 23<316 359> 781 23<156 537>
VStem: 23 23<23 321> 40 23<572 681> 285 23<179 244 572 622> 374 23<506 629> 631 23<23 156 429 679>
LayerCount: 2
Fore
SplineSet
654 0 m 1xfef0
 23 0 l 1
 23 12 l 2xff70
 23 22 22 250 24 268 c 0
 25 282 28 296 31 309 c 0
 36 334 43 358 52 377 c 0
 66 409 88 434 118 453 c 0
 160 480 251 484 301 484 c 0
 312 484 319 484 319 484 c 2
 349 484 374 509 374 540 c 0
 373 575 371 615 369 621 c 0
 368 624 365 632 347 632 c 2
 336 632 l 2
 319 632 317 625 316 622 c 0
 315 618 312 604 311 560 c 2
 311 549 l 1
 40 549 l 1
 40 561 l 2
 41 602 42 632 44 649 c 0
 47 675 55 700 68 724 c 0
 81 748 102 767 129 782 c 0
 156 796 190 804 230 804 c 2
 463 804 l 2
 503 804 538 796 565 782 c 0
 592 767 613 748 626 724 c 0
 639 700 646 675 649 649 c 0
 651 629 654 592 654 540 c 0
 656 480 646 420 625 372 c 0
 611 340 589 315 559 296 c 0
 534 280 503 271 468 268 c 2
 363 267 l 2
 333 267 307 241 307 211 c 2
 308 179 l 1
 654 179 l 1
 654 0 l 1xfef0
46 23 m 1
 631 23 l 1
 631 156 l 1
 285 156 l 1
 284 211 l 2
 284 254 319 290 362 290 c 2
 467 291 l 2
 498 293 525 301 546 315 c 0
 572 332 591 355 603 382 c 0
 623 427 632 482 630 539 c 0
 630 591 628 628 626 647 c 0
 623 670 616 692 605 713 c 0
 594 733 577 750 554 762 c 0
 530 775 499 781 463 781 c 2
 230 781 l 2
 194 781 164 775 140 762 c 0
 117 750 100 733 89 713 c 0
 78 692 70 670 67 647 c 0
 65 632 65 607 64 572 c 2xfef0
 288 572 l 1
 289 611 292 623 294 629 c 0
 298 641 308 655 335 655 c 2
 335 655 l 1
 335 655 l 1
 336 655 l 2
 336 655 l 1
 336 655 l 1
 359 655 l 1
 359 654 l 2
 379 651 388 638 391 628 c 0
 394 617 396 563 397 540 c 0
 397 496 362 461 319 461 c 0
 318 461 312 461 301 461 c 0
 271 461 169 458 130 433 c 0
 104 416 85 394 73 367 c 0
 65 349 59 327 54 304 c 0
 51 291 49 278 48 265 c 0
 47 251 46 95 46 23 c 1
EndSplineSet
Validated: 37
EndChar

StartChar: three
Encoding: 51 51 55
Width: 664
VWidth: 0
Flags: HW
HStem: 0 23<147 526> 148 23<306 349> 231 23<55 278> 314 23<274 325 325 348> 462 23<274 349> 546 23<55 278> 629 23<306 349> 777 23<147 526>
VStem: 31 23<122 231 569 678> 251 23<337 462> 278 23<181 231 569 619> 363 23<179 310 488 626> 615 23<113 372 426 687>
LayerCount: 2
Fore
SplineSet
453 0 m 2
 221 0 l 2
 181 0 147 8 120 22 c 0
 93 37 72 56 59 80 c 0
 46 104 39 129 36 154 c 0
 34 171 32 201 31 242 c 2
 31 254 l 1
 301 254 l 1
 301 243 l 2
 302 199 305 185 306 181 c 0
 307 178 309 171 326 171 c 2
 337 172 l 2
 355 172 358 179 359 182 c 0
 360 186 362 200 363 243 c 0
 362 286 360 299 359 303 c 0
 358 306 355 313 337 313 c 2
 325 313 l 1
 325 314 l 1
 251 314 l 1
 251 485 l 1
 337 485 l 2
 355 485 358 493 359 496 c 0
 360 500 362 513 363 557 c 0
 362 600 360 614 359 618 c 0
 358 621 355 629 337 629 c 2
 325 629 l 2
 309 629 307 622 306 619 c 0
 305 615 302 601 301 557 c 2
 301 546 l 1
 31 546 l 1
 32 558 l 2
 33 599 34 629 36 646 c 0
 39 671 46 696 59 720 c 0
 72 744 93 764 120 779 c 0
 147 793 181 800 221 800 c 2
 453 800 l 2
 493 800 526 793 553 779 c 0
 580 764 601 744 614 720 c 0
 627 696 635 671 638 646 c 0
 640 630 642 563 642 557 c 0
 642 551 640 484 638 468 c 0
 635 444 628 421 617 399 c 0
 628 377 635 355 638 331 c 0
 640 316 642 250 642 242 c 0
 642 235 640 169 638 154 c 0
 635 129 627 104 614 80 c 0
 601 56 580 37 553 22 c 0
 526 8 493 0 453 0 c 2
55 231 m 2
 56 197 57 172 59 157 c 0
 62 134 69 112 80 91 c 0
 91 71 108 54 131 42 c 0
 154 29 185 23 221 23 c 2
 453 23 l 2
 489 23 520 29 543 42 c 0
 566 54 583 71 594 91 c 0
 605 112 612 134 615 157 c 0
 617 170 619 236 619 242 c 0
 619 249 617 315 615 328 c 0
 612 351 605 373 594 394 c 2
 593 395 l 1
 592 403 l 1
 594 406 l 2
 605 427 612 448 615 470 c 0
 617 483 619 551 619 557 c 0
 619 564 617 630 615 643 c 0
 612 666 605 688 594 709 c 0
 583 729 566 746 543 758 c 0
 520 771 489 777 453 777 c 2
 221 777 l 2
 185 777 154 771 131 758 c 0
 108 746 91 729 80 709 c 0
 69 688 62 666 59 643 c 0
 57 628 56 603 55 569 c 2
 278 569 l 1
 279 608 282 620 284 626 c 0
 288 637 298 652 325 652 c 2
 325 652 l 1
 349 652 l 1
 349 651 l 2
 369 648 378 635 381 625 c 0
 383 619 386 605 387 557 c 0
 386 508 383 494 381 488 c 0
 378 478 369 466 349 463 c 2
 349 462 l 1
 337 462 l 1
 274 462 l 1
 274 337 l 1
 348 337 l 1
 348 335 l 2
 368 332 378 320 381 310 c 0
 383 304 386 291 387 243 c 0
 386 195 383 181 381 175 c 0
 378 165 369 152 349 149 c 2
 349 148 l 1
 325 148 l 1
 325 148 l 2
 298 148 288 163 284 174 c 0
 282 180 279 192 278 231 c 1
 55 231 l 1
 55 231 l 2
EndSplineSet
Validated: 5
EndChar

StartChar: four
Encoding: 52 52 56
Width: 676
VWidth: 0
Flags: HW
HStem: 0 23<319 561> 157 23<39 296 584 638> 313 23<229 296 584 638> 780 23<314 561>
VStem: 16 23<181 322> 296 23<23 157 337 447> 561 23<23 157 337 780> 638 23<181 313>
LayerCount: 2
Fore
SplineSet
584 0 m 1
 296 0 l 1
 296 157 l 1
 16 157 l 1
 16 329 l 1
 301 804 l 1
 584 804 l 1
 584 337 l 1
 661 337 l 1
 661 157 l 1
 584 157 l 1
 584 0 l 1
 584 0 l 1
319 23 m 1
 561 23 l 1
 561 181 l 1
 638 181 l 1
 638 313 l 1
 561 313 l 1
 561 780 l 1
 314 780 l 1
 39 322 l 1
 39 181 l 1
 319 181 l 1
 319 23 l 1
319 313 m 1
 188 313 l 1
 319 531 l 1
 319 313 l 1
 319 313 l 1
229 337 m 1
 296 337 l 1
 296 447 l 1
 229 337 l 1
EndSplineSet
Validated: 5
EndChar

StartChar: five
Encoding: 53 53 57
Width: 647
VWidth: 0
Flags: HW
HStem: 0 23<137 518> 149 23<315 358> 315 23<46 277> 398 23<44 338 338 358> 547 23<300 516> 631 23<300 566> 780 23<44 566>
VStem: 23 23<117 315 422 780> 277 23<175 315 571 631> 363 24<182 396> 566 23<654 780> 607 23<113 457>
LayerCount: 2
Fore
SplineSet
444 0 m 2
 211 0 l 2
 171 0 137 8 110 22 c 0
 83 37 62 56 49 80 c 0
 36 104 28 129 25 155 c 0
 25 158 24 182 23 260 c 0
 23 284 23 307 23 326 c 2
 23 338 l 1
 300 338 l 1
 301 299 l 2
 302 270 303 191 305 182 c 0
 306 179 309 172 327 172 c 2
 339 172 l 2
 356 172 357 179 358 182 c 0
 359 186 362 197 363 233 c 2
 363 258 l 2
 363 264 362 275 362 288 c 0
 361 321 360 381 358 389 c 0
 357 391 355 398 338 398 c 2
 338 403 l 1
 338 398 l 2
 337 398 304 398 260 398 c 2
 21 398 l 1
 21 804 l 1
 589 804 l 1
 589 790 l 1
 590 631 l 1
 300 631 l 1
 300 571 l 1
 444 571 l 2
 484 571 518 563 545 549 c 0
 572 534 593 514 606 490 c 0
 619 466 627 442 630 416 c 0
 632 399 632 172 630 155 c 0
 627 129 619 104 606 80 c 0
 593 56 572 37 545 22 c 0
 518 8 484 0 444 0 c 2
46 315 m 2
 46 299 47 279 47 260 c 0
 47 214 48 162 48 157 c 0
 51 135 58 112 69 91 c 0
 80 71 97 54 120 42 c 0
 144 29 175 23 211 23 c 2
 444 23 l 2
 480 23 510 29 534 42 c 0
 557 54 574 71 585 91 c 0
 596 112 604 134 607 157 c 0
 609 171 609 399 607 413 c 0
 604 436 596 458 585 479 c 0
 574 499 557 516 534 528 c 0
 510 541 480 547 444 547 c 2
 299 547 l 1
 278 547 l 1
 278 547 l 1
 277 547 l 1
 277 559 l 1
 277 654 l 1
 566 654 l 1
 566 780 l 1
 44 780 l 1
 44 422 l 1
 332 422 l 2
 334 422 336 421 338 421 c 2
 338 422 l 1
 338 421 l 1
 338 421 l 2
 338 422 l 2
 366 422 376 408 380 396 c 0
 382 390 383 367 385 289 c 0
 385 276 386 265 386 258 c 2
 386 248 l 1
 386 236 l 2
 385 193 382 181 380 175 c 0
 376 163 366 149 339 149 c 2
 339 149 l 1
 339 149 l 1
 338 149 l 2
 338 149 l 2
 338 149 l 1
 315 149 l 1
 315 150 l 2
 295 153 286 165 283 175 c 0
 281 182 279 214 277 299 c 2
 277 315 l 1
 46 315 l 1
 46 315 l 2
EndSplineSet
Validated: 37
EndChar

StartChar: six
Encoding: 54 54 58
Width: 650
VWidth: 0
Flags: HW
HStem: 0 23<138 517> 148 23<316 358> 315 23<301 358> 463 23<301 516> 546 23<386 610> 629 23<316 358> 777 23<138 517>
VStem: 27 23<113 687> 278 23<174 315 486 618> 363 23<174 312 569 619> 606 23<113 374 569 687>
LayerCount: 2
Fore
SplineSet
444 0 m 2
 212 0 l 2
 172 0 138 8 111 22 c 0
 84 37 63 56 50 80 c 0
 37 104 30 129 27 154 c 0
 25 169 22 555 22 558 c 0
 22 565 25 631 27 646 c 0
 30 671 37 696 50 720 c 0
 63 744 84 764 111 779 c 0
 138 793 172 800 212 800 c 2
 444 800 l 2
 484 800 517 793 544 779 c 0
 571 764 592 744 605 720 c 0
 618 696 626 671 629 646 c 0
 631 629 632 599 633 558 c 2
 633 546 l 1
 363 546 l 1
 363 557 l 2
 362 601 360 615 359 619 c 0
 358 622 356 629 339 629 c 2
 327 629 l 2
 309 629 307 621 306 618 c 0
 305 614 302 601 301 558 c 0
 301 556 301 509 301 486 c 2
 444 486 l 2
 484 486 517 479 544 465 c 0
 571 450 592 430 605 406 c 0
 618 382 626 357 629 332 c 0
 631 315 631 171 629 154 c 0
 626 129 618 104 605 80 c 0
 592 56 571 37 544 22 c 0
 517 8 484 0 444 0 c 2
212 777 m 2
 176 777 145 771 122 758 c 0
 99 746 82 729 71 709 c 0
 60 688 53 666 50 643 c 0
 48 630 46 564 46 558 c 0
 46 535 48 172 50 157 c 0
 53 134 60 112 71 91 c 0
 82 71 99 54 122 42 c 0
 145 29 176 23 212 23 c 2
 444 23 l 2
 480 23 511 29 534 42 c 0
 557 54 574 71 585 91 c 0
 596 112 603 134 606 157 c 0
 608 172 608 315 606 330 c 0
 603 353 596 374 585 395 c 0
 574 415 557 432 534 444 c 0
 511 457 480 463 444 463 c 2
 278 463 l 1
 278 475 l 2
 278 507 278 556 278 558 c 0
 279 606 282 619 284 625 c 0
 287 635 296 648 316 651 c 2
 316 652 l 1
 339 652 l 1
 339 652 l 2
 366 652 376 637 380 626 c 0
 382 620 385 608 386 569 c 1
 610 569 l 2
 609 603 608 628 606 643 c 0
 603 666 596 688 585 709 c 0
 574 729 556 746 533 758 c 0
 510 771 480 777 444 777 c 2
 212 777 l 1
 212 777 l 2
340 148 m 1
 316 148 l 1
 316 149 l 2
 296 152 287 165 284 175 c 0
 282 181 279 195 278 243 c 2
 278 338 l 1
 344 338 l 2
 368 336 376 323 380 312 c 0
 382 307 385 296 386 257 c 2
 386 247 l 1
 386 235 l 2
 385 192 382 180 380 174 c 0
 376 163 367 148 340 148 c 1
301 315 m 1
 301 243 l 2
 302 199 305 186 306 182 c 0
 307 179 309 172 327 172 c 2
 339 171 l 2
 355 171 357 178 358 181 c 0
 359 185 362 196 363 232 c 2
 363 256 l 2
 362 290 359 301 358 305 c 0
 357 308 355 315 338 315 c 2
 301 315 l 1
EndSplineSet
Validated: 37
EndChar

StartChar: seven
Encoding: 55 55 59
Width: 657
VWidth: 0
Flags: HW
HStem: 0 23<136 377> 624 23<38 297> 780 23<38 611>
VStem: 15 23<648 780>
LayerCount: 2
Fore
SplineSet
395 0 m 1
 105 0 l 1
 297 624 l 1
 15 624 l 1
 15 804 l 1
 643 804 l 1
 395 0 l 1
136 23 m 1
 377 23 l 1
 611 780 l 1
 38 780 l 1
 38 648 l 1
 329 648 l 1
 136 23 l 1
EndSplineSet
Validated: 1
EndChar

StartChar: eight
Encoding: 56 56 60
Width: 642
VWidth: 0
Flags: HW
HStem: 0 23<127 506> 148 23<295 338> 313 23<305 329> 462 23<295 338> 629 23<295 338> 777 23<127 506>
VStem: 12 23<123 362 436 677> 273 22<173 312 487 627> 305 24<332 336> 339 22<173 312 487 627> 595 23<113 242 243 372 426 687>
LayerCount: 2
Fore
SplineSet
433 0 m 2
 201 0 l 2
 161 0 127 8 100 22 c 0
 73 37 52 56 39 80 c 0
 26 104 19 129 16 154 c 0
 14 171 13 198 12 237 c 2
 12 242 l 2
 12 249 14 316 16 331 c 0
 19 355 26 377 37 399 c 0
 26 421 19 444 16 468 c 0
 14 483 12 551 12 557 c 2
 12 560 l 2
 13 600 14 629 16 646 c 0
 19 671 26 696 39 720 c 0
 52 744 73 764 100 779 c 0
 127 793 161 800 201 800 c 2
 433 800 l 2
 473 800 506 793 533 779 c 0
 560 764 581 744 594 720 c 0
 607 696 615 671 618 646 c 0
 620 629 621 601 622 561 c 2
 622 557 l 2
 622 551 620 484 618 468 c 0
 615 444 608 421 597 399 c 0
 608 377 615 355 618 331 c 0
 620 317 622 250 622 242 c 2
 622 237 l 2
 621 198 620 171 618 154 c 0
 615 129 607 104 594 80 c 0
 581 56 560 37 533 22 c 0
 506 8 473 0 433 0 c 2
57 411 m 2
 59 411 l 1
 62 398 l 1
 60 394 l 2
 49 373 42 351 39 328 c 0
 37 315 35 249 35 243 c 2
 35 238 l 2
 36 200 37 173 39 157 c 0
 42 134 49 112 60 91 c 0
 71 71 88 54 111 42 c 0
 134 29 165 23 201 23 c 2
 433 23 l 2
 469 23 500 29 523 42 c 0
 546 54 563 71 574 91 c 0
 585 112 592 134 595 157 c 0
 597 173 599 243 599 243 c 2
 599 249 597 314 595 328 c 0
 592 351 585 373 574 394 c 2
 573 395 l 1
 572 403 l 1
 574 406 l 2
 585 427 592 448 595 470 c 0
 597 483 599 551 599 557 c 2
 599 560 l 2
 598 599 597 627 595 643 c 0
 592 666 585 688 574 709 c 0
 563 729 546 746 523 758 c 0
 500 771 469 777 433 777 c 2
 201 777 l 2
 165 777 134 771 111 758 c 0
 88 746 71 729 60 709 c 0
 49 688 42 666 39 643 c 0
 37 627 36 599 35 560 c 2
 35 557 l 2
 35 550 37 483 39 470 c 0
 41 450 48 430 57 411 c 2
317 148 m 0
 288 148 277 163 273 175 c 0
 271 181 268 194 267 242 c 0
 268 290 271 304 273 310 c 0
 276 320 285 332 305 335 c 2
 305 336 l 1
 329 336 l 1
 329 335 l 2
 349 332 358 320 361 310 c 0
 363 304 366 291 367 243 c 0
 366 195 363 181 361 175 c 0
 357 163 346 148 317 148 c 0
316 313 m 1
 298 313 296 306 295 303 c 0
 294 299 291 285 290 242 c 0
 291 199 294 186 295 182 c 0
 296 179 298 172 316 172 c 0
 335 172 338 179 339 182 c 0
 340 186 342 200 343 243 c 0
 342 286 340 299 339 303 c 0
 338 306 335 313 317 313 c 2
 316 313 l 1
317 462 m 0
 288 462 277 476 273 488 c 0
 271 494 268 509 267 557 c 0
 268 606 271 619 273 625 c 0
 277 637 287 652 316 652 c 2
 317 652 l 2
 346 652 357 637 361 625 c 0
 363 619 366 605 367 557 c 0
 366 508 363 494 361 488 c 0
 357 476 346 462 317 462 c 0
316 629 m 2
 298 629 296 621 295 618 c 0
 294 614 291 601 290 557 c 0
 291 514 294 500 295 496 c 0
 296 493 298 485 316 485 c 0
 335 485 338 493 339 496 c 0
 340 500 342 513 343 557 c 0
 342 600 340 614 339 618 c 0
 338 621 335 629 317 629 c 2
 316 629 l 2
EndSplineSet
Validated: 1
EndChar

StartChar: nine
Encoding: 57 57 61
Width: 650
VWidth: 0
Flags: HW
HStem: 0 23<134 515> 149 23<293 336> 232 23<41 266> 315 23<134 351> 464 23<293 351> 632 23<293 346> 781 23<134 515>
VStem: 22 23<113 232 428 690> 265 24<182 232 490 629> 351 23<183 315 487 629> 604 23<113 690>
LayerCount: 2
Fore
SplineSet
441 0 m 6
 208 0 l 6
 168 0 134 8 107 22 c 4
 80 37 59 56 46 80 c 4
 33 104 25 129 22 155 c 4
 20 172 19 202 18 243 c 6
 17 255 l 5
 288 255 l 5
 288 244 l 6
 289 200 292 186 293 182 c 4
 294 179 296 172 313 172 c 6
 325 172 l 6
 343 172 345 180 346 183 c 4
 347 187 350 201 351 244 c 4
 351 246 351 292 351 315 c 6
 208 315 l 6
 168 315 134 323 107 337 c 4
 80 352 59 372 46 396 c 4
 33 420 25 444 22 470 c 4
 20 487 20 632 22 649 c 4
 25 675 33 699 46 723 c 4
 59 747 80 767 107 782 c 4
 134 796 168 804 208 804 c 6
 441 804 l 6
 481 804 515 796 542 782 c 4
 569 767 590 747 603 723 c 4
 616 699 624 675 627 649 c 4
 629 634 631 246 631 243 c 4
 631 236 629 170 627 155 c 4
 624 129 616 104 603 80 c 4
 590 56 569 37 542 22 c 4
 515 8 481 0 441 0 c 6
41 232 m 6
 42 198 43 172 45 157 c 4
 48 134 55 112 66 91 c 4
 77 71 94 54 117 42 c 4
 141 29 172 23 208 23 c 6
 441 23 l 6
 477 23 507 29 531 42 c 4
 554 54 571 71 582 91 c 4
 593 112 601 134 604 157 c 4
 606 171 608 237 608 243 c 4
 608 266 606 631 604 646 c 4
 601 669 593 691 582 712 c 4
 571 732 554 750 531 762 c 4
 507 775 477 781 441 781 c 6
 208 781 l 6
 172 781 141 775 117 762 c 4
 94 750 77 732 66 712 c 4
 55 691 48 669 45 646 c 4
 43 631 43 488 45 473 c 4
 48 450 55 428 66 407 c 4
 77 387 94 369 117 357 c 4
 141 344 172 338 208 338 c 6
 374 338 l 5
 374 327 l 6
 374 295 374 246 374 244 c 4
 373 196 370 181 368 175 c 4
 365 165 356 153 336 150 c 6
 336 149 l 5
 312 149 l 5
 312 149 l 6
 285 149 275 163 271 175 c 4
 269 181 267 193 266 232 c 5
 41 232 l 5
 41 232 l 6
374 464 m 5
 314 464 l 6
 286 464 275 478 271 490 c 4
 269 495 267 507 266 546 c 6
 265 556 l 5
 266 568 l 6
 267 611 269 623 271 629 c 4
 275 641 285 655 312 655 c 6
 336 654 l 6
 356 651 365 638 368 628 c 4
 370 622 373 608 374 560 c 6
 374 464 l 5
 374 464 l 5
314 487 m 6
 351 487 l 5
 351 559 l 6
 350 603 347 617 346 621 c 4
 345 624 343 631 325 631 c 6
 313 632 l 6
 296 632 294 625 293 622 c 4
 292 618 290 607 289 571 c 6
 289 546 l 6
 290 512 292 501 293 497 c 4
 294 494 297 487 314 487 c 6
EndSplineSet
Validated: 37
EndChar

StartChar: Acircumflex
Encoding: 194 194 63
Width: 651
VWidth: 0
Flags: HW
HStem: 0 24<51 279 366 608> 232 24<303 342> 390 24<303 342> 634 24<308 342> 780 24<133 608>
VStem: 27 24<24 685> 137 24<852 928> 279 24<24 232 413 632> 342 24<24 232 413 634> 498 24<852 928> 608 24<24 780>
LayerCount: 2
Fore
SplineSet
632 0 m 5
 342 0 l 5
 342 232 l 5
 303 232 l 5
 303 0 l 5
 27 0 l 5
 27 12 l 6
 27 37 28 628 31 652 c 4
 34 677 41 701 52 724 c 4
 64 748 82 768 107 782 c 4
 131 796 163 803 199 803 c 6
 632 803 l 5
 632 0 l 5
366 24 m 5
 608 24 l 5
 608 780 l 5
 199 780 l 6
 167 780 140 773 119 761 c 4
 98 749 83 734 73 714 c 4
 63 693 56 671 54 649 c 4
 52 630 51 203 51 24 c 5
 279 24 l 5
 279 256 l 5
 366 256 l 5
 366 24 l 5
 366 24 l 5
366 390 m 5
 279 390 l 5
 279 513 l 6
 279 601 282 623 285 631 c 4
 288 640 296 656 322 657 c 6
 323 657 l 5
 366 657 l 5
 366 390 l 5
 366 390 l 5
303 413 m 5
 342 413 l 5
 342 634 l 5
 323 634 l 6
 312 633 309 629 308 624 c 4
 306 617 303 591 303 513 c 6
 303 413 l 5
137 821 m 5
 137 946 l 5
 328 997 l 5
 521 946 l 5
 521 821 l 5
 328 872 l 5
 137 821 l 5
328 897 m 5
 498 852 l 5
 498 928 l 5
 328 972 l 5
 161 928 l 5
 161 852 l 5
 328 897 l 5
EndSplineSet
Validated: 5
EndChar

StartChar: Atilde
Encoding: 195 195 64
Width: 663
VWidth: 0
Flags: HW
HStem: 0 24<53 282 368 611> 232 24<305 345> 390 24<305 345> 634 24<310 345> 779 24<136 611> 824 24<344 484> 854 24<205 321> 939 24<354 466> 973 24<209 323>
VStem: 30 24<24 685> 156 23<857 952> 282 24<24 232 413 632> 345 24<24 232 413 634> 485 24<856 958> 611 24<24 779>
LayerCount: 2
Fore
SplineSet
634 0 m 5
 345 0 l 5
 345 232 l 5
 305 232 l 5
 305 0 l 5
 30 0 l 5
 30 12 l 6
 30 37 31 627 34 651 c 4
 37 676 44 701 55 724 c 4
 67 748 85 768 110 782 c 4
 134 796 165 803 201 803 c 6
 634 803 l 5
 634 0 l 5
368 24 m 5
 611 24 l 5
 611 779 l 5
 201 779 l 6
 169 779 143 773 122 761 c 4
 101 749 86 733 76 713 c 4
 66 692 59 671 57 649 c 4
 55 630 53 203 53 24 c 5
 282 24 l 5
 282 256 l 5
 368 256 l 5
 368 24 l 5
 368 24 l 5
368 390 m 5
 282 390 l 5
 282 513 l 6
 282 601 285 623 288 631 c 4
 291 640 299 656 325 657 c 6
 325 657 l 5
 368 657 l 5
 368 390 l 5
 368 390 l 5
305 413 m 5
 345 413 l 5
 345 634 l 5
 325 634 l 6
 314 633 311 629 310 624 c 4
 308 617 305 591 305 513 c 6
 305 413 l 5
156 810 m 5
 156 954 l 5
 159 957 l 6
 161 959 199 996 264 996 c 4
 288 996 313 991 337 981 c 4
 366 969 391 963 415 963 c 4
 466 963 487 991 487 991 c 6
 508 1021 l 5
 508 843 l 5
 501 840 l 6
 499 839 462 824 411 824 c 4
 381 824 353 829 327 840 c 4
 305 849 284 854 262 854 c 4
 210 854 175 826 175 826 c 6
 156 810 l 5
262 878 m 4
 287 878 312 873 337 862 c 4
 360 852 384 847 411 847 c 4
 444 847 472 855 485 859 c 6
 485 958 l 6
 470 948 447 939 415 939 c 4
 388 939 359 946 328 959 c 4
 306 968 285 973 264 973 c 4
 219 973 189 952 179 944 c 6
 179 857 l 6
 196 866 226 878 262 878 c 4
EndSplineSet
Validated: 5
EndChar

StartChar: Adieresis
Encoding: 196 196 65
Width: 651
VWidth: 0
Flags: HW
HStem: 0 24<48 276 363 605> 232 24<300 339> 390 24<300 339> 633 24<305 339> 779 24<130 605> 823 24<158 283 369 495> 972 24<158 283 369 495>
VStem: 24 24<24 685> 134 24<847 972> 276 24<24 232 413 632> 283 24<847 972> 339 24<24 232 413 633 847 972> 495 24<847 972> 605 24<24 779>
LayerCount: 2
Fore
SplineSet
629 0 m 5xffdc
 339 0 l 5
 339 232 l 5
 300 232 l 5
 300 0 l 5
 24 0 l 5
 24 12 l 6
 24 37 25 627 28 651 c 4
 31 676 38 701 49 724 c 4
 61 748 79 767 104 781 c 4
 128 795 160 803 196 803 c 6
 628 803 l 5
 629 0 l 5xffdc
363 24 m 5
 605 24 l 5
 605 779 l 5
 196 779 l 6
 164 779 137 773 116 761 c 4
 95 749 80 733 70 713 c 4
 60 692 53 671 51 649 c 4
 49 630 48 203 48 24 c 5
 276 24 l 5
 276 256 l 5
 363 256 l 5
 363 24 l 5
363 390 m 5
 276 390 l 5
 276 513 l 6
 276 601 279 623 282 631 c 4
 285 640 293 656 319 657 c 6
 319 657 l 5
 363 657 l 5
 363 390 l 5
300 413 m 5
 339 413 l 5
 339 633 l 5
 320 633 l 6
 309 632 306 629 305 624 c 4
 303 617 300 591 300 513 c 6
 300 413 l 5
307 823 m 5xffbc
 134 823 l 5
 134 996 l 5
 307 996 l 5
 307 823 l 5xffbc
158 847 m 5
 283 847 l 5
 283 972 l 5
 158 972 l 5
 158 847 l 5
518 823 m 5
 346 823 l 5
 346 996 l 5
 518 996 l 5
 518 823 l 5
 518 823 l 5
369 847 m 5
 495 847 l 5
 495 972 l 5
 369 972 l 5
 369 847 l 5
EndSplineSet
Validated: 5
EndChar

StartChar: Aring
Encoding: 197 197 66
Width: 647
VWidth: 0
Flags: HW
HStem: -0 24<43 274 362 608> 235 24<298 338> 395 24<298 338> 641 24<303 338> 789 24<127 231 252 398 419 607> 976 24<280 370>
VStem: 19 24<24 693> 208 24<837 927> 274 24<24 235 418 640> 338 24<24 235 418 641> 419 24<837 927> 608 24<24 789>
LayerCount: 2
Fore
SplineSet
362 665 m 1
 362 395 l 1
 274 395 l 1
 274 520 l 2
 274 609 277 630 280 639 c 0
 283 648 292 664 318 665 c 2
 318 665 l 1
 362 665 l 1
338 418 m 1
 338 641 l 1
 319 641 l 2
 308 640 304 637 303 632 c 0
 301 624 298 599 298 520 c 2
 298 418 l 1
 338 418 l 1
631 0 m 1
 631 -0 l 1
 338 -0 l 1
 338 235 l 1
 298 235 l 1
 298 0 l 1
 19 0 l 1
 19 12 l 2
 19 37 20 636 23 660 c 0
 26 685 33 710 45 733 c 0
 57 757 75 776 100 791 c 0
 125 805 156 813 193 813 c 2
 231 813 l 2
 216 833 208 857 208 882 c 0
 208 947 260 1000 325 1000 c 0
 390 1000 442 947 442 882 c 0
 442 857 434 833 419 813 c 2
 631 813 l 1
 631 0 l 1
232 882 m 0
 232 855 243 831 263 813 c 2
 387 813 l 2
 407 831 419 855 419 882 c 0
 419 933 376 976 325 976 c 0
 274 976 232 933 232 882 c 0
274 259 m 1
 362 259 l 1
 362 24 l 1
 608 24 l 1
 607 789 l 1
 193 789 l 2
 160 789 133 783 112 771 c 0
 91 759 76 742 66 722 c 0
 56 701 49 680 47 657 c 0
 45 638 43 205 43 24 c 1
 274 24 l 1
 274 259 l 1
EndSplineSet
Validated: 5
EndChar

StartChar: Aacute
Encoding: 193 193 67
Width: 641
VWidth: 0
Flags: HW
HStem: 0 24<42 271 357 600> 232 24<294 334> 390 24<294 334> 634 24<299 334> 780 24<124 600>
VStem: 18 24<24 686> 144 24<850 900> 271 24<24 232 414 633> 334 24<24 232 414 634> 474 24<890 971> 600 24<24 780>
LayerCount: 2
Fore
SplineSet
624 0 m 1
 334 0 l 1
 334 232 l 1
 294 232 l 1
 294 0 l 1
 18 0 l 1
 18 12 l 2
 18 37 19 628 22 652 c 0
 25 677 32 702 43 725 c 0
 55 749 73 769 98 783 c 0
 122 797 154 804 190 804 c 2
 623 804 l 1
 624 0 l 1
357 24 m 1
 600 24 l 1
 600 780 l 1
 190 780 l 2
 158 780 131 774 110 762 c 0
 89 750 74 734 64 714 c 0
 54 693 47 672 45 650 c 0
 43 631 42 203 42 24 c 1
 271 24 l 1
 271 256 l 1
 357 256 l 1
 357 24 l 1
357 390 m 1
 271 390 l 1
 271 514 l 2
 271 602 273 624 276 632 c 0
 279 641 287 657 313 658 c 2
 314 658 l 1
 357 658 l 1
 357 390 l 1
294 414 m 1
 334 414 l 1
 334 634 l 1
 314 634 l 2
 303 633 300 630 299 625 c 0
 297 618 294 592 294 514 c 2
 294 414 l 1
 294 414 l 1
144 919 m 1
 497 1000 l 1
 497 869 l 1
 144 823 l 1
 144 919 l 1
474 971 m 1
 168 900 l 1
 168 850 l 1
 474 890 l 1
 474 971 l 1
EndSplineSet
Validated: 5
EndChar

StartChar: Agrave
Encoding: 192 192 68
Width: 654
VWidth: 0
Flags: HW
HStem: 0 24<49 278 365 608> 232 24<302 342> 390 24<302 342> 634 24<307 342> 780 24<132 608>
VStem: 26 24<24 686> 152 24<890 971> 278 24<24 232 414 633> 342 24<24 232 414 634> 482 24<850 900> 608 24<24 780>
LayerCount: 2
Fore
SplineSet
631 0 m 5
 342 0 l 5
 342 232 l 5
 302 232 l 5
 302 0 l 5
 26 0 l 5
 26 12 l 6
 26 37 27 628 30 652 c 4
 33 677 40 702 51 725 c 4
 63 749 81 769 106 783 c 4
 130 797 162 804 198 804 c 6
 631 804 l 5
 631 0 l 5
365 24 m 5
 608 24 l 5
 608 780 l 5
 198 780 l 6
 166 780 139 774 118 762 c 4
 97 750 82 734 72 714 c 4
 62 693 55 672 53 650 c 4
 51 631 49 203 49 24 c 5
 278 24 l 5
 278 256 l 5
 365 256 l 5
 365 24 l 5
365 390 m 5
 278 390 l 5
 278 514 l 6
 278 602 281 624 284 632 c 4
 287 641 295 657 321 658 c 6
 322 658 l 5
 365 658 l 5
 365 390 l 5
302 414 m 5
 342 414 l 5
 342 634 l 5
 322 634 l 6
 311 633 308 630 307 625 c 4
 305 618 302 592 302 514 c 6
 302 414 l 5
 302 414 l 5
505 823 m 5
 152 869 l 5
 152 1000 l 5
 505 919 l 5
 505 823 l 5
176 890 m 5
 482 850 l 5
 482 900 l 5
 176 971 l 5
 176 890 l 5
EndSplineSet
Validated: 5
EndChar

StartChar: AE
Encoding: 198 198 69
Width: 868
VWidth: 0
Flags: HW
HStem: 0 24<45 274 361 825> 158 24<627 825> 232 24<298 337> 386 24<298 337 627 825> 544 24<627 825> 622 24<627 825> 634 24<303 337> 780 24<128 825>
VStem: 22 24<24 686> 274 24<24 232 414 632> 337 24<24 232 414 634> 603 24<181 386 567 622> 825 24<24 158 409 544 646 780>
LayerCount: 2
Fore
SplineSet
848 0 m 5xfdf8
 338 0 l 5
 337 12 l 5
 337 232 l 5
 298 232 l 5
 298 -0 l 5
 22 -0 l 5
 22 12 l 6
 22 37 23 628 26 652 c 4
 29 677 36 702 47 725 c 4
 59 749 77 768 102 782 c 4
 126 796 158 804 194 804 c 6
 848 804 l 5
 848 622 l 5
 627 622 l 5
 627 567 l 5
 848 567 l 5
 848 386 l 5
 627 386 l 5
 627 181 l 5
 848 181 l 5
 848 0 l 5
 848 0 l 5xfdf8
361 24 m 5
 825 24 l 5
 825 158 l 5
 603 158 l 5
 603 409 l 5
 825 409 l 5
 825 544 l 5
 603 544 l 5
 603 646 l 5
 825 646 l 5
 825 780 l 5
 194 780 l 6
 162 780 135 774 114 762 c 4
 93 750 78 734 68 714 c 4
 58 693 51 671 49 649 c 4
 47 630 45 203 45 24 c 5
 274 24 l 5
 274 256 l 5
 361 256 l 5
 361 24 l 5
361 390 m 5
 274 390 l 5
 274 514 l 6
 274 602 277 623 280 631 c 4
 283 640 291 657 317 658 c 6
 318 658 l 5
 361 658 l 5xfbf8
 361 390 l 5
298 414 m 5
 337 414 l 5
 337 634 l 5
 318 634 l 6
 307 633 304 630 303 625 c 4
 301 618 298 592 298 514 c 6
 298 414 l 5
EndSplineSet
Validated: 5
EndChar

StartChar: ae
Encoding: 230 230 70
Width: 995
VWidth: 0
Flags: HW
HStem: 0 23<148 948> 148 23<315 357 627 948> 221 23<628 947> 269 23<315 357> 372 23<638 691> 417 23<148 357> 485 23<132 343 638 687> 633 23<132 857>
VStem: 33 23<121 319> 109 23<508 633> 288 23<173 266> 357 23<171 269 440 483> 603 23<174 211> 615 23<395 486> 691 23<395 477> 946 23<23 148 244 536>
LayerCount: 2
Fore
SplineSet
971 0 m 5xfffb
 221 0 l 6
 181 0 148 7 121 21 c 4
 94 35 74 56 61 80 c 4
 48 103 40 128 37 153 c 4
 36 164 34 195 33 219 c 4
 34 255 36 277 37 286 c 4
 40 311 48 337 61 360 c 4
 74 384 94 404 121 418 c 4
 148 432 181 440 221 440 c 6
 357 440 l 5
 357 469 l 6
 357 475 353 483 340 485 c 4
 328 485 122 485 120 485 c 6
 109 485 l 5
 109 656 l 5
 781 658 l 6
 821 658 855 650 882 636 c 4
 909 622 929 602 942 578 c 4
 955 555 963 529 966 504 c 4
 967 492 968 475 969 452 c 6
 969 221 l 5
 649 221 l 6
 631 221 629 214 628 211 c 4
 628 210 626 182 626 181 c 4
 627 178 630 171 648 171 c 6
 971 171 l 5
 971 0 l 5xfffb
221 417 m 6
 185 417 155 410 132 398 c 4
 109 386 92 369 81 349 c 4
 70 328 63 306 60 284 c 4
 59 276 57 253 56 219 c 4
 57 186 59 164 60 156 c 4
 63 134 70 111 81 90 c 4
 92 70 109 54 132 42 c 4
 155 30 185 23 221 23 c 6
 948 23 l 5
 948 148 l 5
 648 148 l 6
 619 148 608 162 604 174 c 4
 603 178 603 183 603 189 c 4
 603 193 605 215 606 218 c 4
 610 230 620 244 649 244 c 6
 947 244 l 5
 946 440 l 6
 945 468 945 488 943 501 c 4
 940 524 933 546 922 567 c 4
 911 587 894 604 871 616 c 4
 848 628 817 635 781 635 c 6
 132 633 l 5
 132 508 l 5
 177 508 341 508 342 508 c 6
 343 508 l 6
 369 504 379 485 380 469 c 6
 380 417 l 5
 221 417 l 6
338 148 m 6
 337 148 l 6
 308 148 297 162 293 174 c 4
 291 179 289 188 288 219 c 6
 288 220 l 5
 288 220 l 6
 289 251 291 261 293 266 c 4
 297 278 307 292 336 292 c 6
 380 292 l 5
 380 170 l 5
 379 168 l 6
 374 159 363 148 338 148 c 6
311 220 m 4
 312 193 314 184 315 181 c 4
 316 178 318 171 336 171 c 6
 338 171 l 6
 350 171 355 174 357 176 c 6
 357 269 l 5
 336 269 l 6
 318 269 316 262 315 259 c 4
 314 256 312 247 311 220 c 4
714 372 m 5
 615 372 l 5
 615 509 l 5xfff7
 666 510 l 6
 695 510 705 495 709 483 c 4
 710 481 712 476 714 384 c 6
 714 372 l 5
638 395 m 5
 691 395 l 6
 690 433 688 472 687 477 c 4
 686 479 684 486 666 486 c 6
 638 486 l 5
 638 395 l 5
EndSplineSet
Validated: 5
EndChar

StartChar: at
Encoding: 64 64 71
Width: 967
VWidth: 0
Flags: HW
HStem: 1 21<141 917> 85 21<292 917> 131 21<420 917> 265 21<570 608 762 783> 571 21<570 608> 705 21<419 742> 750 21<292 783> 828 21<141 808>
VStem: 39 21<103 747> 266 21<109 740> 315 21<242 614> 544 21<289 568> 608 21<286 571> 742 21<286 705> 783 21<286 750> 917 21<21 85 152 744>
LayerCount: 2
Fore
SplineSet
938 1 m 5
 207 1 l 6
 171 1 139 7 115 20 c 4
 90 33 72 51 60 73 c 4
 48 94 42 117 39 140 c 4
 36 161 36 689 39 710 c 4
 42 733 48 756 60 777 c 4
 72 799 90 817 115 830 c 4
 139 843 171 849 207 849 c 6
 807 846 l 5
 808 846 l 6
 828 843 845 838 860 830 c 4
 885 817 903 799 915 777 c 4
 926 756 933 733 936 710 c 4
 936 708 938 703 938 632 c 6
 938 131 l 5
 485 131 l 6
 449 131 418 138 394 151 c 4
 369 164 352 181 340 203 c 4
 329 224 321 247 318 270 c 4
 316 287 315 315 315 356 c 4
 315 378 316 571 318 587 c 4
 321 610 329 632 340 653 c 4
 352 675 369 693 394 706 c 4
 418 719 449 725 485 725 c 6
 762 725 l 5
 762 286 l 5
 783 286 l 5
 783 750 l 5
 312 750 l 6
 295 750 293 743 292 740 c 4
 289 731 287 656 287 582 c 6
 287 217 l 6
 287 141 290 121 292 115 c 4
 293 112 295 106 312 106 c 6
 938 106 l 5
 938 1 l 5
207 828 m 6
 174 828 146 822 125 811 c 4
 104 800 88 785 78 767 c 4
 68 748 61 728 59 707 c 4
 57 689 57 161 59 143 c 4
 61 122 68 102 78 83 c 4
 88 65 104 49 125 38 c 4
 146 27 174 21 207 21 c 6
 917 21 l 5
 917 85 l 5
 312 85 l 6
 286 85 276 98 272 109 c 4
 269 117 266 136 266 217 c 6
 266 582 l 6
 266 583 266 730 272 747 c 4
 276 758 286 771 312 771 c 6
 804 771 l 5
 804 265 l 5
 742 265 l 5
 742 705 l 5
 485 705 l 6
 452 705 425 699 404 688 c 4
 383 677 368 662 358 644 c 4
 348 625 341 604 339 584 c 4
 338 573 336 441 335 356 c 4
 335 316 337 288 339 272 c 4
 341 252 348 232 358 213 c 4
 368 195 383 180 404 169 c 4
 425 158 452 152 485 152 c 6
 917 152 l 5
 917 632 l 6
 917 695 916 705 916 707 c 4
 914 728 907 748 897 767 c 4
 887 785 871 800 850 811 c 4
 837 818 822 823 805 826 c 6
 207 828 l 6
629 265 m 5
 589 265 l 6
 563 265 554 278 550 289 c 4
 547 297 544 316 544 397 c 6
 544 460 l 6
 544 541 547 560 550 568 c 4
 554 579 563 592 589 592 c 6
 629 592 l 5
 629 265 l 5
589 571 m 6
 573 571 571 565 570 562 c 4
 568 556 565 535 565 460 c 6
 565 397 l 6
 565 322 568 301 570 295 c 4
 571 292 573 286 589 286 c 6
 608 286 l 5
 608 571 l 5
 589 571 l 6
EndSplineSet
Validated: 33
EndChar

StartChar: copyright
Encoding: 169 169 72
Width: 831
VWidth: 0
Flags: HW
HStem: 0 23<171 660> 94 23<186 645> 197 23<271 507 507 535> 366 23<447 598> 415 23<447 598> 584 23<271 535> 687 23<186 645> 781 23<171 660>
VStem: 16 23<145 659> 109 23<164 639> 210 23<282 521> 382 23<350 460> 598 23<257 366 438 546> 699 23<164 639> 792 23<145 659>
LayerCount: 2
Fore
SplineSet
571 0 m 2
 260 0 l 2
 207 0 162 9 127 26 c 0
 91 43 65 67 48 96 c 0
 31 125 20 155 16 186 c 0
 13 210 13 593 16 617 c 0
 20 648 31 678 48 707 c 0
 65 736 91 761 127 778 c 0
 162 795 207 804 260 804 c 2
 571 804 l 2
 624 804 669 795 704 778 c 0
 740 761 767 736 784 707 c 0
 801 678 811 648 815 617 c 0
 818 593 818 210 815 186 c 0
 811 155 801 125 784 96 c 0
 767 67 740 43 704 26 c 0
 669 9 624 0 571 0 c 2
260 781 m 1
 211 781 169 773 137 757 c 0
 105 742 82 721 67 696 c 0
 52 670 43 642 39 614 c 0
 36 592 36 211 39 189 c 0
 43 161 52 134 67 108 c 0
 82 83 105 62 137 47 c 0
 169 31 211 23 260 23 c 2
 571 23 l 2
 620 23 662 31 694 47 c 0
 726 62 749 83 764 108 c 0
 779 134 788 161 792 189 c 0
 795 211 795 592 792 614 c 0
 788 642 779 670 764 696 c 0
 749 721 726 742 694 757 c 0
 662 773 620 781 571 781 c 2
 260 781 l 1
571 94 m 2
 260 94 l 2
 222 94 191 100 169 111 c 0
 150 120 137 131 129 144 c 0
 119 161 113 179 110 197 c 2
 109 198 l 2
 107 240 107 564 109 606 c 2
 110 607 l 2
 113 625 119 643 129 660 c 0
 137 673 150 684 169 693 c 0
 191 704 222 710 260 710 c 2
 571 710 l 2
 609 710 640 704 662 693 c 0
 681 684 694 673 702 660 c 0
 712 643 719 625 722 607 c 2
 722 606 l 2
 724 564 724 240 722 198 c 2
 722 196 l 2
 719 178 712 161 702 144 c 0
 694 131 681 120 662 111 c 0
 640 100 609 94 571 94 c 2
132 199 m 0
 134 184 139 171 148 156 c 0
 153 147 164 138 179 131 c 0
 198 122 226 117 260 117 c 2
 571 117 l 2
 605 117 633 122 652 131 c 0
 667 138 678 147 683 156 c 0
 692 171 697 184 699 199 c 0
 701 241 701 562 699 604 c 0
 697 619 692 633 683 648 c 0
 678 657 667 666 652 673 c 0
 633 682 605 687 571 687 c 2
 260 687 l 2
 226 687 198 682 179 673 c 0
 164 666 153 657 148 648 c 0
 139 633 134 619 132 604 c 0
 130 563 130 241 132 199 c 0
507 197 m 1
 337 197 l 2
 306 197 279 201 261 210 c 0
 245 218 234 228 227 239 c 0
 219 253 214 267 212 282 c 2
 211 283 l 2
 211 290 211 305 211 328 c 2
 210 328 l 1
 210 340 l 1
 210 452 l 2
 210 477 210 509 211 520 c 2
 212 521 l 2
 214 536 219 551 227 565 c 0
 234 576 245 586 261 594 c 0
 279 603 306 607 337 607 c 2
 507 607 l 2
 520 607 529 606 534 606 c 2
 535 606 l 2
 550 604 565 598 579 590 c 0
 590 583 599 572 607 556 c 0
 616 538 621 511 621 480 c 2
 621 415 l 1
 427 415 l 1
 426 425 l 2
 425 435 424 451 422 456 c 0
 421 458 420 459 418 460 c 0
 416 461 414 460 413 460 c 0
 411 459 410 458 409 456 c 2
 409 454 l 2
 407 447 405 443 405 402 c 0
 405 361 407 357 409 350 c 2
 409 348 l 2
 410 345 411 344 414 343 c 1
 414 343 415 343 416 343 c 0
 417 343 417 343 417 343 c 0
 419 344 421 346 422 348 c 0
 424 353 425 368 426 378 c 2
 427 389 l 1
 621 389 l 1
 621 323 l 2
 621 292 616 265 607 247 c 0
 599 231 590 221 579 214 c 0
 565 206 550 200 535 198 c 2
 534 198 l 2
 529 198 507 197 507 197 c 1
 507 197 l 1
234 285 m 0
 236 273 240 262 247 250 c 0
 251 243 259 237 271 231 c 0
 286 224 309 220 337 220 c 2
 507 220 l 2
 509 220 527 221 532 221 c 0
 544 223 555 227 567 234 c 0
 574 238 580 245 586 257 c 0
 593 272 598 295 598 323 c 2
 598 366 l 1
 448 366 l 2
 447 358 446 347 444 341 c 0
 441 332 435 326 427 322 c 0
 420 319 410 320 406 321 c 0
 396 325 390 332 387 341 c 2
 387 343 l 2
 384 353 382 359 382 402 c 0
 382 445 384 451 387 461 c 2
 387 463 l 2
 390 471 395 477 403 481 c 2
 404 481 l 2
 408 482 419 485 428 481 c 2
 429 481 l 2
 436 477 441 471 444 463 c 0
 446 457 447 446 448 438 c 2
 598 438 l 1
 598 480 l 2
 598 508 593 531 586 546 c 0
 580 558 574 566 567 570 c 0
 555 577 544 581 532 583 c 0
 527 583 519 584 507 584 c 2
 337 584 l 2
 309 584 286 580 271 573 c 0
 259 567 251 561 247 554 c 0
 240 542 236 530 234 518 c 0
 234 509 233 486 233 451 c 2
 233 340 l 2
 233 305 234 290 234 285 c 0
EndSplineSet
Validated: 37
EndChar

StartChar: registered
Encoding: 174 174 73
Width: 846
VWidth: 0
Flags: HW
HStem: 0 23<178 668> 94 23<193 653> 197 23<241 397 471 605> 357 23<420 445> 426 23<420 445> 502 23<420 445> 584 23<241 556> 687 23<193 653> 781 23<178 668>
VStem: 24 23<145 659> 117 23<164 639> 218 23<220 584> 397 23<220 357 449 502> 397 48<426 447> 448 23<220 357> 605 23<220 385> 706 23<164 639> 800 23<145 659>
LayerCount: 2
Fore
SplineSet
578 0 m 2xfff3c0
 268 0 l 2
 215 0 170 9 135 26 c 0
 99 43 72 67 55 96 c 0
 38 125 28 155 24 186 c 0
 21 210 21 593 24 617 c 0
 28 648 38 678 55 707 c 0
 72 736 99 761 135 778 c 0
 170 795 215 804 268 804 c 2
 578 804 l 2
 631 804 676 795 711 778 c 0
 747 761 774 736 791 707 c 0
 808 678 819 648 823 617 c 0
 826 593 826 210 823 186 c 0
 819 155 808 125 791 96 c 0
 774 67 747 43 711 26 c 0
 676 9 631 0 578 0 c 2xfff3c0
268 781 m 1
 219 781 177 773 145 757 c 0
 113 742 90 721 75 696 c 0
 60 670 50 642 46 614 c 0
 43 592 43 211 46 189 c 0
 50 161 60 134 75 108 c 0
 90 83 113 62 145 47 c 0
 177 31 219 23 268 23 c 2
 578 23 l 2
 627 23 669 31 701 47 c 0
 733 62 756 83 771 108 c 0
 786 134 796 161 800 189 c 0
 803 211 803 592 800 614 c 0
 796 642 786 670 771 696 c 0
 756 721 733 742 701 757 c 0
 669 773 627 781 578 781 c 2
 268 781 l 1
578 94 m 2
 268 94 l 2
 230 94 198 100 176 111 c 0
 157 120 144 131 136 144 c 0
 126 161 120 179 117 197 c 2
 117 198 l 2
 115 240 115 564 117 606 c 2
 117 607 l 2
 120 625 126 643 136 660 c 0
 144 673 157 684 176 693 c 0
 198 704 230 710 268 710 c 2
 578 710 l 2
 616 710 648 704 670 693 c 0
 689 684 702 673 710 660 c 0
 720 643 726 625 729 607 c 2
 729 606 l 2
 731 564 731 240 729 198 c 2
 729 196 l 2
 726 178 720 161 710 144 c 0
 702 131 689 120 670 111 c 0
 648 100 616 94 578 94 c 2
140 199 m 0
 142 184 147 171 156 156 c 0
 161 147 171 138 186 131 c 0
 205 122 234 117 268 117 c 2
 578 117 l 2
 612 117 641 122 660 131 c 0
 675 138 685 147 690 156 c 0
 699 171 704 184 706 199 c 0
 708 241 708 562 706 604 c 0
 704 619 699 633 690 648 c 0
 685 657 675 666 660 673 c 0
 641 682 612 687 578 687 c 2
 268 687 l 2
 234 687 205 682 186 673 c 0
 171 666 161 657 156 648 c 0
 147 633 142 619 140 604 c 0
 138 563 138 241 140 199 c 0
218 197 m 1
 218 607 l 1
 500 607 l 2
 527 607 551 602 569 592 c 0
 588 582 602 569 611 552 c 0
 612 550 638 503 613 440 c 1
 613 440 l 2
 611 436 605 427 599 419 c 0
 603 414 608 409 611 403 c 0
 620 387 625 369 627 352 c 0
 627 350 628 344 628 313 c 1
 628 302 l 1
 628 197 l 1
 448 197 l 1
 448 301 l 2
 447 341 446 350 445 353 c 0
 445 354 443 357 433 357 c 2
 420 357 l 1
 420 197 l 1xfffbc0
 218 197 l 1
241 584 m 1
 241 220 l 1
 397 220 l 1
 397 380 l 1
 433 380 l 2
 457 380 465 367 467 359 c 0
 468 354 470 343 471 301 c 2
 471 220 l 1
 605 220 l 1
 605 302 l 2
 605 336 604 347 604 350 c 0
 602 365 597 378 590 392 c 0
 586 399 582 405 576 410 c 2
 567 419 l 1
 576 427 l 2
 581 431 590 446 592 449 c 0
 613 502 591 541 591 541 c 0
 584 554 573 564 558 572 c 0
 543 580 523 584 500 584 c 2
 241 584 l 1
 241 584 l 1
434 426 m 1
 397 426 l 1
 397 525 l 1
 434 525 l 2
 458 525 465 512 467 504 c 0
 469 496 469 453 467 447 c 0
 465 441 460 431 445 428 c 2
 445 426 l 1xfff7c0
 434 426 l 1
420 449 m 1
 434 450 l 2
 444 450 445 453 445 454 c 0
 446 459 446 493 445 498 c 0
 445 499 444 502 434 502 c 2
 420 502 l 1
 420 449 l 1
 420 449 l 1
EndSplineSet
Validated: 37
EndChar

StartChar: logicalnot
Encoding: 172 172 74
Width: 852
VWidth: 0
Flags: HW
HStem: 321 24<555 799> 478 24<45 531> 633 24<45 799>
VStem: 21 24<502 633> 531 24<344 478> 799 24<344 633>
LayerCount: 2
Fore
SplineSet
823 321 m 1
 531 321 l 1
 531 478 l 1
 21 478 l 1
 21 656 l 1
 823 656 l 1
 823 321 l 1
555 344 m 1
 799 344 l 1
 799 633 l 1
 45 633 l 1
 45 502 l 1
 555 502 l 1
 555 344 l 1
EndSplineSet
Validated: 1
EndChar

StartChar: ordfeminine
Encoding: 170 170 75
Width: 309
VWidth: 0
Flags: HW
HStem: 435 24<87 273> 515 24<138 168> 570 24<138 168> 650 24<87 167> 680 24<71 161> 775 24<71 221>
VStem: 47 24<704 775> 113 24<540 569> 168 24<539 570> 273 24<459 724>
LayerCount: 2
Fore
SplineSet
297 435 m 1
 150 435 l 2
 121 435 96 440 76 449 c 0
 56 459 41 472 31 488 c 0
 22 504 15 521 13 538 c 0
 12 546 12 563 13 571 c 0
 15 588 22 604 31 620 c 0
 41 636 56 650 76 660 c 0
 96 669 121 674 150 674 c 2
 167 674 l 2
 167 677 164 679 158 680 c 0
 150 680 59 680 59 680 c 2
 47 680 l 1
 47 799 l 1
 167 799 l 2
 197 799 211 794 231 785 c 0
 251 775 267 762 277 746 c 0
 286 730 292 713 294 696 c 2
 295 694 l 2
 296 688 296 682 297 668 c 2
 297 435 l 1
150 650 m 2
 124 650 104 646 87 638 c 0
 71 630 58 620 51 608 c 0
 43 595 39 582 37 568 c 0
 36 562 36 547 37 541 c 0
 39 527 43 514 51 501 c 0
 58 489 71 479 87 471 c 0
 103 463 124 459 150 459 c 2
 273 459 l 1
 273 667 l 2
 272 680 272 685 271 691 c 2
 271 693 l 2
 269 707 264 721 256 734 c 0
 249 746 237 756 221 764 c 0
 204 772 192 775 167 775 c 2
 71 775 l 1
 71 704 l 2
 97 704 159 704 160 704 c 2
 161 703 l 2
 182 700 190 686 191 674 c 2
 191 650 l 1
 150 650 l 2
192 515 m 1
 152 515 l 2
 130 515 113 532 113 554 c 0
 113 576 130 594 152 594 c 2
 192 594 l 1
 192 515 l 1
152 570 m 2
 144 570 137 562 137 554 c 0
 137 546 144 539 152 539 c 2
 168 539 l 1
 168 570 l 1
 152 570 l 2
EndSplineSet
Validated: 33
EndChar

StartChar: multiply
Encoding: 215 215 76
Width: 489
VWidth: 0
Flags: HW
LayerCount: 2
Fore
SplineSet
351 207 m 1
 244 314 l 1
 136 207 l 1
 14 329 l 1
 122 436 l 1
 14 543 l 1
 136 666 l 1
 244 558 l 1
 351 666 l 1
 473 543 l 1
 366 436 l 1
 473 329 l 1
 351 207 l 1
244 348 m 1
 351 240 l 1
 439 329 l 1
 332 436 l 1
 439 543 l 1
 351 632 l 1
 244 524 l 1
 136 632 l 1
 48 543 l 1
 155 436 l 1
 48 329 l 1
 136 240 l 1
 244 348 l 1
EndSplineSet
Validated: 1
EndChar

StartChar: section
Encoding: 167 167 77
Width: 641
VWidth: 0
Flags: HW
HStem: -225 23<70 478> -60 23<70 324> 11 24<133 325> 157 23<299 341> 378 23<299 341> 523 24<316 506> 614 23<318 570> 778 23<162 570>
VStem: 24 24<120 642> 47 23<-199 -60> 270 23<183 375> 292 23<549 592> 325 23<-21 9> 346 23<183 375> 570 23<637 776> 593 23<-61 435>
LayerCount: 2
Fore
SplineSet
407 -225 m 1xff11
 405 -225 l 1
 47 -222 l 1
 47 -37 l 1xff51
 302 -37 l 2
 321 -37 323 -30 324 -27 c 0
 324 -26 324 -24 325 -20 c 0
 325 -14 325 -9 325 -5 c 0
 325 -2 325 1 325 2 c 0
 324 4 322 12 303 12 c 2
 188 11 l 1
 188 12 l 2
 156 14 129 21 107 33 c 0
 80 47 61 66 48 90 c 0
 36 113 27 138 24 163 c 0
 22 180 23 330 24 378 c 2
 24 515 l 2
 22 539 22 564 25 587 c 0
 27 601 29 616 32 629 c 0
 38 654 46 678 55 697 c 0
 70 729 92 754 122 773 c 0
 152 792 189 802 233 802 c 2
 235 802 l 1
 593 799 l 1
 593 614 l 1xff8a
 427 614 l 2
 405 614 388 614 379 614 c 2
 379 613 l 1
 367 613 l 1
 339 613 l 2
 323 613 319 606 317 599 c 0
 317 598 316 596 315 590 c 0
 315 582 315 575 315 570 c 0
 315 566 315 561 315 560 c 0
 317 553 321 546 337 546 c 2
 434 547 l 2
 473 547 507 539 533 525 c 0
 560 511 579 492 592 468 c 0
 604 445 613 420 616 395 c 0
 618 378 618 228 617 180 c 2
 617 62 l 2
 619 38 618 13 615 -10 c 0
 613 -24 611 -39 608 -52 c 0
 602 -77 595 -101 586 -120 c 0
 571 -152 548 -178 518 -197 c 0
 488 -216 451 -225 407 -225 c 1xff11
70 -199 m 1
 407 -201 l 2
 447 -201 480 -193 506 -177 c 0
 532 -161 551 -138 564 -111 c 0
 572 -93 580 -71 585 -47 c 0
 588 -35 591 -21 592 -8 c 0
 594 14 594 37 593 61 c 2xff49
 593 181 l 2
 594 237 594 379 592 393 c 0
 589 415 583 436 572 457 c 0
 561 477 545 493 522 505 c 0
 499 517 469 523 434 523 c 2
 337 523 l 2
 314 523 298 534 293 554 c 0
 292 559 292 564 292 571 c 0
 292 576 292 582 292 589 c 2
 292 590 l 1
 292 592 l 2
 293 599 293 603 294 606 c 0
 299 626 316 637 339 637 c 2
 366 637 l 2
 368 637 370 637 372 637 c 0
 373 637 396 637 427 637 c 2
 570 637 l 1
 570 776 l 1
 233 778 l 2
 193 778 160 770 134 754 c 0
 108 738 89 714 76 687 c 0
 68 669 60 648 55 624 c 0
 52 612 50 598 49 585 c 0
 47 563 46 540 47 516 c 2
 47 377 l 2
 46 323 46 178 48 165 c 0
 51 143 57 122 68 101 c 0
 79 81 95 65 118 53 c 0
 139 42 167 36 200 35 c 2
 202 35 l 1
 303 35 l 2
 332 35 343 21 347 9 c 0
 349 5 348 0 348 -6 c 0
 348 -10 348 -15 348 -20 c 2xff9a
 349 -21 l 1
 348 -23 l 2
 347 -29 347 -32 346 -35 c 0
 342 -47 331 -60 302 -60 c 2
 70 -60 l 1
 70 -199 l 1
320 157 m 2
 320 157 l 2
 291 157 281 171 277 183 c 0
 275 191 271 209 270 279 c 0
 271 349 275 367 277 375 c 0
 281 387 291 401 320 401 c 0
 349 401 359 387 363 375 c 0
 365 367 369 349 370 279 c 0xff24
 369 209 365 191 363 183 c 0
 359 171 349 157 320 157 c 2
320 180 m 1
 321 180 l 2
 338 180 340 187 341 190 c 0
 343 195 345 214 346 279 c 0
 345 344 343 363 341 368 c 0
 340 371 338 378 320 378 c 2
 319 378 l 2
 302 378 300 371 299 368 c 0
 297 363 295 344 294 279 c 0
 295 214 297 195 299 190 c 0
 300 187 302 180 320 180 c 2
 320 180 l 1
EndSplineSet
Validated: 37
EndChar

StartChar: yen
Encoding: 165 165 78
Width: 766
VWidth: 0
Flags: HW
HStem: 0 23<263 504> 164 23<52 240 527 718> 240 23<52 240 527 718> 321 23<52 240 527 718> 397 23<52 232 536 718> 781 23<58 288 480 710>
VStem: 29 23<187 240 344 397> 240 23<23 164 263 321> 504 23<23 164 263 321> 718 23<187 240 345 397>
LayerCount: 2
Fore
SplineSet
527 0 m 1
 240 0 l 1
 240 164 l 1
 29 164 l 1
 29 263 l 1
 240 263 l 1
 240 321 l 1
 29 321 l 1
 29 420 l 1
 232 420 l 1
 18 804 l 1
 301 804 l 1
 384 656 l 1
 466 804 l 1
 749 804 l 1
 536 420 l 1
 741 420 l 1
 741 321 l 1
 527 321 l 1
 527 263 l 1
 741 263 l 1
 741 164 l 1
 527 164 l 1
 527 0 l 1
263 23 m 1
 504 23 l 1
 504 187 l 1
 718 187 l 1
 718 240 l 1
 504 240 l 1
 504 345 l 1
 718 345 l 1
 718 397 l 1
 497 397 l 1
 710 781 l 1
 480 781 l 1
 384 608 l 1
 288 781 l 1
 58 781 l 1
 271 397 l 1
 52 397 l 1
 52 344 l 1
 263 344 l 1
 263 240 l 1
 52 240 l 1
 52 187 l 1
 263 187 l 1
 263 23 l 1
EndSplineSet
Validated: 1
EndChar

StartChar: divide
Encoding: 247 247 79
Width: 511
VWidth: 0
Flags: HW
HStem: 86 24<192 317> 235 24<192 317> 285 24<40 468> 434 24<40 468> 485 24<192 317> 634 24<192 317>
VStem: 16 24<309 434> 168 24<110 235 508 634> 317 24<110 235 508 634> 468 24<309 434>
LayerCount: 2
Fore
SplineSet
340 485 m 1
 168 485 l 1
 168 657 l 1
 340 657 l 1
 340 485 l 1
 340 485 l 1
192 508 m 1
 317 508 l 1
 317 634 l 1
 192 634 l 1
 192 508 l 1
340 86 m 1
 168 86 l 1
 168 259 l 1
 340 259 l 1
 340 86 l 1
 340 86 l 1
192 110 m 1
 317 110 l 1
 317 235 l 1
 192 235 l 1
 192 110 l 1
492 285 m 1
 16 285 l 1
 16 458 l 1
 492 458 l 1
 492 285 l 1
40 309 m 1
 468 309 l 1
 468 434 l 1
 40 434 l 1
 40 309 l 1
EndSplineSet
Validated: 5
EndChar

StartChar: plusminus
Encoding: 177 177 80
Width: 478
VWidth: 0
Flags: HW
HStem: 31 22<41 440> 169 22<41 440> 213 22<182 299> 355 22<41 160 321 440> 493 22<41 160 321 440> 634 22<182 299>
VStem: 19 22<53 169 377 493> 160 22<235 355 515 634> 299 22<235 355 515 634> 440 22<53 169 377 493>
LayerCount: 2
Fore
SplineSet
321 213 m 1
 160 213 l 1
 160 355 l 1
 19 355 l 1
 19 515 l 1
 160 515 l 1
 160 656 l 1
 321 656 l 1
 321 515 l 1
 462 515 l 1
 462 355 l 1
 321 355 l 1
 321 213 l 1
182 235 m 1
 299 235 l 1
 299 377 l 1
 440 377 l 1
 440 493 l 1
 299 493 l 1
 299 634 l 1
 182 634 l 1
 182 493 l 1
 41 493 l 1
 41 377 l 1
 182 377 l 1
 182 235 l 1
462 31 m 1
 19 31 l 1
 19 191 l 1
 462 191 l 1
 462 31 l 1
41 53 m 1
 440 53 l 1
 440 169 l 1
 41 169 l 1
 41 53 l 1
EndSplineSet
Validated: 1
EndChar

StartChar: plus
Encoding: 43 43 81
Width: 513
VWidth: 0
Flags: HW
HStem: 180 24<192 317> 332 24<40 168 340 468> 481 24<40 168 340 468> 633 24<192 317>
VStem: 16 24<356 481> 168 24<204 332 505 633> 317 24<204 332 505 633> 468 24<356 481>
LayerCount: 2
Fore
SplineSet
340 180 m 1
 168 180 l 1
 168 332 l 1
 16 332 l 1
 16 505 l 1
 168 505 l 1
 168 656 l 1
 340 656 l 1
 340 505 l 1
 492 505 l 1
 492 332 l 1
 340 332 l 1
 340 180 l 1
 340 180 l 1
192 204 m 1
 317 204 l 1
 317 356 l 1
 468 356 l 1
 468 481 l 1
 317 481 l 1
 317 633 l 1
 192 633 l 1
 192 481 l 1
 40 481 l 1
 40 356 l 1
 192 356 l 1
 192 204 l 1
EndSplineSet
Validated: 5
EndChar

StartChar: asterisk
Encoding: 42 42 82
Width: 540
VWidth: 0
Flags: HW
HStem: 289 24<198 341> 775 24<198 341>
VStem: 14 24<391 457 631 697> 174 24<313 434 654 775> 341 24<313 434 654 775> 501 24<391 457 631 697>
LayerCount: 2
Fore
SplineSet
365 289 m 1
 174 289 l 1
 174 434 l 1
 14 351 l 1
 14 472 l 1
 153 544 l 1
 14 616 l 1
 14 737 l 1
 174 654 l 1
 174 799 l 1
 365 799 l 1
 365 654 l 1
 525 737 l 1
 525 616 l 1
 385 544 l 1
 525 472 l 1
 525 351 l 1
 365 434 l 1
 365 289 l 1
198 313 m 1
 341 313 l 1
 341 473 l 1
 501 391 l 1
 501 457 l 1
 334 544 l 1
 501 631 l 1
 501 697 l 1
 341 615 l 1
 341 775 l 1
 198 775 l 1
 198 615 l 1
 38 697 l 1
 38 631 l 1
 205 544 l 1
 38 457 l 1
 38 391 l 1
 198 473 l 1
 198 313 l 1
EndSplineSet
Validated: 1
EndChar

StartChar: ampersand
Encoding: 38 38 83
Width: 749
VWidth: 0
Flags: HW
HStem: -1 23<143 336 537 678> 163 23<280 335> 656 23<310 362> 777 23<171 501>
VStem: 23 23<109 358> 67 23<532 693> 253 23<202 281> 285 23<540 655> 582 23<532 693> 654 23<130 267>
LayerCount: 2
Fore
SplineSet
247 -3 m 0
 222 -3 195 0 177 2 c 0
 159 4 149 5 143 7 c 2
 143 7 l 2
 130 10 117 15 106 21 c 0
 79 35 59 54 46 78 c 0
 34 101 26 126 23 151 c 0
 21 165 21 184 21 198 c 0
 21 209 22 260 22 270 c 0
 22 283 21 302 23 316 c 0
 26 341 35 366 47 389 c 0
 65 422 84 444 106 456 c 0
 110 458 114 461 119 463 c 2
 102 483 l 2
 97 490 92 496 89 503 c 0
 77 526 70 550 67 575 c 0
 66 582 66 592 66 604 c 0
 66 623 66 638 67 649 c 0
 70 674 77 698 89 721 c 0
 101 745 120 765 145 779 c 0
 170 793 201 800 238 800 c 2
 336 800 l 1
 434 800 l 2
 471 800 502 793 527 779 c 0
 552 765 571 745 583 721 c 0
 595 698 602 674 605 649 c 0
 606 638 606 623 606 604 c 0
 606 592 606 582 605 575 c 0
 602 550 595 526 583 503 c 0
 571 479 552 459 527 445 c 0
 525 444 443 402 396 377 c 1
 511 248 l 1
 677 298 l 1
 677 118 l 1
 670 116 l 1
 670 116 658 111 638 103 c 2
 730 -1 l 1
 526 -1 l 1
 483 48 l 1
 411 25 302 3 286 -0 c 2
 286 -0 l 2
 275 -2 262 -3 247 -3 c 0
148 30 m 0
 153 29 202 20 247 20 c 0
 261 20 272 21 282 23 c 0
 286 24 408 48 483 73 c 2
 491 75 l 1
 537 23 l 1
 678 23 l 1
 598 113 l 1
 614 119 l 2
 632 126 646 131 654 134 c 2
 654 267 l 1
 503 221 l 1
 359 384 l 1
 372 391 l 2
 420 416 513 464 516 466 c 0
 537 478 552 493 562 513 c 0
 572 534 580 556 582 578 c 0
 583 585 583 594 583 605 c 0
 583 623 582 636 581 646 c 0
 579 668 572 690 562 711 c 0
 552 731 537 747 516 759 c 0
 495 771 467 777 434 777 c 2
 336 777 l 1
 238 777 l 2
 205 777 178 771 157 759 c 0
 136 747 120 731 110 711 c 0
 100 690 93 668 91 646 c 0
 90 636 89 623 89 605 c 0
 89 594 90 585 91 578 c 0
 93 556 100 534 110 513 c 0
 113 507 116 502 120 497 c 2
 160 451 l 1
 143 446 l 2
 133 443 125 440 117 436 c 0
 99 427 83 407 67 378 c 0
 56 357 50 336 47 314 c 0
 45 301 45 283 45 270 c 0
 45 260 45 209 45 198 c 0
 45 185 44 166 46 153 c 0
 49 131 56 110 67 89 c 0
 78 69 94 53 117 41 c 0
 126 36 137 33 148 30 c 0
302 163 m 0
 269 163 255 189 253 202 c 2
 253 204 l 2
 253 205 255 300 257 312 c 2
 261 337 l 1
 392 187 l 1
 321 166 l 2
 314 164 308 163 302 163 c 0
277 205 m 0
 278 201 283 187 302 187 c 0
 306 187 310 187 315 188 c 2
 351 199 l 1
 278 281 l 2
 277 253 277 213 277 205 c 0
285 506 m 1
 285 605 l 2
 285 611 285 643 287 652 c 0
 290 662 298 678 327 679 c 2
 344 679 l 2
 373 678 382 662 385 652 c 0
 388 642 387 585 385 573 c 0
 380 543 320 518 301 511 c 2
 285 506 l 1
328 656 m 0
 312 656 311 649 310 646 c 0
 309 643 308 627 308 605 c 2
 308 540 l 2
 335 552 360 568 362 577 c 2
 363 578 l 2
 365 586 364 638 362 646 c 0
 361 649 360 656 344 656 c 2
 328 656 l 0
EndSplineSet
Validated: 33
EndChar

StartChar: parenleft
Encoding: 40 40 84
Width: 554
VWidth: 0
Flags: HW
HStem: -226 23<241 475> 776 23<241 475>
VStem: 26 23<161 412> 287 23<159 414>
LayerCount: 2
Fore
SplineSet
530 -226 m 1
 237 -226 l 1
 233 -223 l 2
 100 -86 26 95 26 286 c 0
 26 477 100 659 233 796 c 2
 237 799 l 1
 530 799 l 1
 511 779 l 2
 382 646 310 471 310 286 c 0
 310 101 382 -73 511 -206 c 2
 530 -226 l 1
247 -203 m 1
 475 -203 l 1
 353 -69 287 104 287 286 c 0
 287 468 353 642 475 776 c 1
 247 776 l 1
 120 644 50 470 50 286 c 0
 50 102 120 -71 247 -203 c 1
EndSplineSet
Validated: 1
EndChar

StartChar: parenright
Encoding: 41 41 85
Width: 527
VWidth: 0
Flags: HW
HStem: -226 23<65 299> 776 23<65 299>
VStem: 230 23<159 414> 490 23<161 412>
LayerCount: 2
Fore
SplineSet
29 -206 m 2
 158 -73 230 101 230 286 c 0
 230 471 158 646 29 779 c 2
 10 799 l 1
 303 799 l 1
 307 796 l 2
 440 659 514 477 514 286 c 0
 514 95 440 -86 307 -223 c 2
 303 -226 l 1
 10 -226 l 1
 29 -206 l 2
490 286 m 0
 490 470 420 644 293 776 c 1
 65 776 l 1
 187 642 253 468 253 286 c 0
 253 104 187 -69 65 -203 c 1
 293 -203 l 1
 420 -71 490 102 490 286 c 0
EndSplineSet
Validated: 1
EndChar

StartChar: braceleft
Encoding: 123 123 86
Width: 608
VWidth: 0
Flags: HW
HStem: -226 23<253 568> -75 23<424 568> 625 22<424 433 433 568> 776 23<253 568>
VStem: 135 22<-93 207 366 667> 394 23<-49 207 370 614> 568 23<-202 -75 649 776>
LayerCount: 2
Fore
SplineSet
591 -226 m 1
 328 -226 l 2
 287 -226 253 -219 226 -204 c 0
 198 -189 177 -170 164 -145 c 0
 151 -121 143 -96 140 -70 c 0
 137 -48 135 -9 135 48 c 1
 135 48 l 1
 135 60 l 2
 135 103 134 174 134 179 c 0
 132 227 59 265 31 276 c 2
 2 287 l 1
 31 298 l 2
 32 298 131 337 134 393 c 2
 134 394 l 2
 134 399 135 470 135 513 c 2
 135 525 l 2
 135 582 137 621 140 643 c 0
 143 669 151 694 164 718 c 0
 177 743 198 762 226 777 c 0
 253 792 287 799 328 799 c 2
 591 799 l 1
 591 624 l 1
 579 625 l 2
 576 625 488 625 456 625 c 2
 445 625 l 2
 427 625 424 618 423 615 c 0
 421 609 418 585 418 500 c 2
 418 394 l 2
 417 341 353 304 315 287 c 1
 353 270 416 232 418 180 c 2
 418 178 l 1
 418 73 l 2
 418 -12 421 -35 423 -41 c 0
 424 -44 427 -52 445 -52 c 0
 453 -52 575 -52 579 -52 c 2
 591 -51 l 1
 591 -63 l 1
 591 -226 l 1
 591 -226 l 1
159 72 m 1
 159 72 l 1
 159 60 l 2
 159 -2 160 -45 163 -67 c 0
 166 -90 174 -113 185 -134 c 0
 196 -154 214 -170 237 -183 c 0
 261 -196 291 -202 328 -202 c 2
 568 -202 l 1
 568 -75 l 2
 535 -75 446 -75 445 -75 c 0
 416 -75 405 -61 401 -49 c 0
 398 -40 394 -18 394 73 c 2
 394 179 l 2
 392 235 261 287 261 287 c 1
 261 287 393 348 394 395 c 2
 394 397 l 1
 394 500 l 2
 394 591 398 613 401 622 c 0
 404 632 412 645 433 648 c 2
 433 648 535 649 568 649 c 2
 568 776 l 1
 328 776 l 2
 291 776 261 770 237 757 c 0
 214 744 196 727 185 707 c 0
 174 686 166 663 163 640 c 0
 160 618 159 575 159 513 c 2
 159 502 l 2
 159 460 159 402 158 392 c 2
 158 392 l 1
 155 340 98 304 64 287 c 1
 98 270 156 233 158 181 c 1
 158 181 l 2
 159 172 159 120 159 72 c 1
EndSplineSet
Validated: 5
EndChar

StartChar: bracketleft
Encoding: 91 91 87
Width: 392
VWidth: 0
Flags: HW
HStem: -225 23<33 361> -72 23<293 361> 624 23<293 361> 777 23<33 361>
VStem: 10 23<-201 777> 269 23<-48 624> 361 23<-201 -72 648 777>
LayerCount: 2
Fore
SplineSet
384 -225 m 1
 10 -225 l 1
 10 801 l 1
 384 801 l 1
 384 624 l 1
 293 624 l 1
 293 -48 l 1
 384 -48 l 1
 384 -225 l 1
33 -201 m 1
 361 -201 l 1
 361 -72 l 1
 269 -72 l 1
 269 648 l 1
 361 648 l 1
 361 777 l 1
 33 777 l 1
 33 -201 l 1
EndSplineSet
Validated: 1
EndChar

StartChar: bracketright
Encoding: 93 93 88
Width: 400
VWidth: 0
Flags: HW
HStem: -226 23<32 360> -73 23<32 101> 623 23<32 101> 776 23<32 360>
VStem: 9 23<-203 -73 646 776> 101 23<-50 623> 360 23<-203 776>
LayerCount: 2
Fore
SplineSet
9 -50 m 1
 101 -50 l 1
 101 623 l 1
 9 623 l 1
 9 799 l 1
 383 799 l 1
 383 -226 l 1
 9 -226 l 1
 9 -50 l 1
360 776 m 1
 32 776 l 1
 32 646 l 1
 124 646 l 1
 124 -73 l 1
 32 -73 l 1
 32 -203 l 1
 360 -203 l 1
 360 776 l 1
EndSplineSet
Validated: 1
EndChar

StartChar: quotedblleft
Encoding: 147 8220 89
Width: 449
VWidth: 0
Flags: HW
HStem: 549 24<82 207 283 408> 775 24<42 167 243 367>
LayerCount: 2
Fore
SplineSet
236 549 m 1
 63 549 l 1
 13 799 l 1
 186 799 l 1
 236 549 l 1
82 573 m 1
 207 573 l 1
 167 775 l 1
 42 775 l 1
 82 573 l 1
437 549 m 1
 263 549 l 1
 214 799 l 1
 387 799 l 1
 437 549 l 1
283 573 m 1
 408 573 l 1
 367 775 l 1
 243 775 l 1
 283 573 l 1
EndSplineSet
Validated: 1
EndChar

StartChar: exclam
Encoding: 33 33 90
Width: 342
VWidth: 0
Flags: HW
HStem: 0 23<111 238> 134 23<111 238> 201 23<110 239> 780 23<54 296>
VStem: 88 23<23 134> 238 23<23 134>
LayerCount: 2
Fore
SplineSet
261 201 m 1
 89 201 l 1
 28 804 l 1
 321 804 l 1
 261 201 l 1
110 224 m 1
 239 224 l 1
 296 780 l 1
 54 780 l 1
 110 224 l 1
262 0 m 1
 88 0 l 1
 88 157 l 1
 262 157 l 1
 262 0 l 1
111 23 m 1
 238 23 l 1
 238 134 l 1
 111 134 l 1
 111 23 l 1
EndSplineSet
Validated: 1
EndChar

StartChar: exclamdown
Encoding: 161 161 91
Width: 322
VWidth: 0
Flags: HW
HStem: -225 24<37 283> 426 24<94 225> 494 24<95 224> 630 24<95 224>
VStem: 72 24<518 630> 224 24<518 630>
LayerCount: 2
Fore
SplineSet
309 -225 m 1
 11 -225 l 1
 73 450 l 1
 247 450 l 1
 309 -225 l 1
37 -201 m 1
 283 -201 l 1
 225 426 l 1
 94 426 l 1
 37 -201 l 1
248 494 m 1
 72 494 l 1
 72 654 l 1
 248 654 l 1
 248 494 l 1
95 518 m 1
 224 518 l 1
 224 630 l 1
 95 630 l 1
 95 518 l 1
EndSplineSet
Validated: 1
EndChar

StartChar: dollar
Encoding: 36 36 92
Width: 683
VWidth: 0
Flags: HW
HStem: -137 23<276 403> -2 23<71 253 426 523> 161 23<72 352> 296 23<153 352> 488 23<332 510> 622 23<332 559> 784 23<156 253 426 559> 919 23<276 403>
VStem: 48 23<23 162> 253 23<-114 -1 807 919> 286 23<533 599> 375 23<207 273> 403 23<-114 -2 806 919> 559 23<645 782>
LayerCount: 2
Fore
SplineSet
426 -137 m 1
 253 -137 l 1
 253 -1 l 1
 48 0 l 1
 49 185 l 1
 61 185 l 2
 62 185 171 184 250 184 c 0
 307 184 324 185 329 185 c 0
 330 185 331 185 332 186 c 2
 334 187 l 2
 358 194 375 215 375 240 c 0
 375 271 351 295 320 295 c 2
 206 296 l 2
 170 299 140 308 115 324 c 0
 85 343 63 369 49 400 c 0
 24 456 14 527 22 596 c 0
 24 610 26 624 29 637 c 0
 35 662 42 686 51 705 c 0
 65 736 88 761 118 780 c 0
 147 798 184 808 227 808 c 2
 253 807 l 1
 253 942 l 1
 426 942 l 1
 426 806 l 1
 583 805 l 1
 583 622 l 1
 365 622 l 2
 334 622 309 597 309 567 c 0
 309 536 333 512 364 512 c 0
 364 512 370 512 381 512 c 0
 431 512 522 508 564 481 c 0
 594 462 616 436 630 405 c 0
 639 386 646 362 651 337 c 0
 654 324 656 310 657 296 c 0
 664 227 653 156 628 100 c 0
 614 69 591 44 561 25 c 0
 532 7 495 -3 452 -3 c 1
 426 -2 l 1
 426 -137 l 1
276 -114 m 1
 403 -114 l 1
 403 21 l 1
 452 21 l 2
 491 21 523 29 549 45 c 0
 575 61 595 83 607 110 c 0
 630 161 640 230 634 294 c 0
 633 307 631 319 628 332 c 0
 623 355 616 377 608 395 c 0
 596 422 578 444 552 461 c 0
 513 486 411 489 381 489 c 0
 370 489 364 488 364 488 c 0
 320 488 286 524 286 567 c 0
 286 610 321 645 364 645 c 2
 559 645 l 1
 559 782 l 1
 403 783 l 1
 403 919 l 1
 276 919 l 1
 276 784 l 1
 227 784 l 2
 188 784 156 776 130 760 c 0
 104 744 84 722 72 695 c 0
 64 677 57 655 52 632 c 0
 49 620 46 607 45 594 c 0
 38 530 47 461 70 410 c 0
 82 383 101 361 127 344 c 0
 148 330 175 321 207 319 c 2
 320 318 l 2
 363 318 398 282 398 239 c 0
 398 204 374 174 341 164 c 0
 337 162 334 162 331 162 c 0
 324 161 297 161 250 161 c 0
 186 161 102 162 72 162 c 2
 71 23 l 1
 276 22 l 1
 276 -114 l 1
 276 -114 l 1
EndSplineSet
Validated: 37
EndChar

StartChar: cent
Encoding: 162 162 93
Width: 458
VWidth: 0
Flags: HW
HStem: -134 23<166 292> 0 23<315 413> 149 23<306 413> 489 23<306 413> 638 23<315 413> 774 23<166 292>
VStem: 22 23<123 537> 143 23<-111 12 648 774> 278 23<175 478> 292 23<-111 0 661 774> 413 23<23 149 512 638>
LayerCount: 2
Fore
SplineSet
315 -134 m 5xff60
 143 -134 l 5
 143 9 l 6
 131 12 121 17 111 22 c 4
 84 37 63 56 50 80 c 4
 37 104 29 128 26 154 c 4
 24 173 23 205 22 250 c 4
 22 275 24 489 26 507 c 4
 29 533 37 557 50 581 c 4
 63 605 84 624 111 639 c 4
 121 644 131 649 143 652 c 6
 143 797 l 5
 315 797 l 5
 315 661 l 5xff60
 437 661 l 5
 437 489 l 5
 328 489 l 6
 310 489 307 481 306 478 c 4
 304 472 301 450 301 366 c 6
 301 295 l 6xffa0
 301 211 304 188 306 182 c 4
 307 179 310 172 328 172 c 6
 437 172 l 5
 437 0 l 5
 315 0 l 5
 315 -134 l 5xff60
166 -111 m 5
 292 -111 l 5
 292 23 l 5xff60
 413 23 l 5
 413 149 l 5
 328 149 l 6
 299 149 288 163 284 175 c 4
 281 184 278 205 278 295 c 6
 278 366 l 6xffa0
 278 456 281 477 284 486 c 4
 288 498 299 512 328 512 c 6
 413 512 l 5
 413 638 l 5
 292 638 l 5
 292 774 l 5
 166 774 l 5
 166 634 l 5
 157 632 l 6
 144 629 132 625 122 619 c 4
 99 607 81 590 70 570 c 4
 59 549 52 527 49 504 c 4
 47 491 46 345 45 250 c 4
 46 206 47 175 49 157 c 4
 52 134 59 112 70 91 c 4
 81 71 99 54 122 42 c 4
 132 36 144 32 157 29 c 6
 166 27 l 5
 166 -111 l 5
 166 -111 l 5
EndSplineSet
Validated: 5
EndChar

StartChar: sterling
Encoding: 163 163 94
Width: 552
VWidth: 0
Flags: HW
HStem: 0 23<42 511> 150 23<42 79 361 511> 326 23<42 79 361 511> 472 23<42 79 361 511> 630 23<377 511> 780 23<197 511>
VStem: 19 23<23 150 350 472> 79 23<174 326 495 678> 338 23<174 326 495 619> 511 23<23 150 350 472 653 780>
LayerCount: 2
Fore
SplineSet
534 0 m 5
 19 0 l 5
 19 174 l 5
 79 174 l 5
 79 326 l 5
 19 326 l 5
 19 495 l 5
 79 495 l 5
 79 530 l 6
 79 587 81 626 84 648 c 4
 87 674 95 699 108 723 c 4
 121 748 141 767 169 782 c 4
 196 796 230 804 271 804 c 6
 534 804 l 5
 534 629 l 5
 522 630 l 6
 519 630 432 630 400 630 c 6
 388 630 l 6
 370 630 368 622 367 619 c 4
 365 613 361 590 361 505 c 6
 361 495 l 5
 534 495 l 5
 534 326 l 5
 361 326 l 5
 361 174 l 5
 534 174 l 5
 534 0 l 5
42 23 m 5
 511 23 l 5
 511 150 l 5
 338 150 l 5
 338 350 l 5
 511 350 l 5
 511 472 l 5
 338 472 l 5
 338 505 l 6
 338 596 341 618 344 627 c 4
 347 637 356 650 377 653 c 6
 388 654 l 6
 389 654 478 653 511 653 c 6
 511 780 l 5
 271 780 l 6
 234 780 204 774 180 761 c 4
 157 749 139 732 128 712 c 4
 117 691 110 668 107 645 c 4
 104 623 103 580 103 518 c 6
 103 472 l 5
 42 472 l 5
 42 350 l 5
 103 350 l 5
 103 150 l 5
 42 150 l 5
 42 23 l 5
EndSplineSet
Validated: 1
EndChar

StartChar: currency
Encoding: 164 164 95
Width: 822
VWidth: 0
Flags: HW
HStem: 0 21G<109 149 670 710> 0 21G<109 149 670 710> 69 24<217 602> 220 24<388 431> 564 24<388 431> 714 24<217 602>
VStem: 104 24<222 592> 358 24<247 561> 437 24<247 561> 691 24<216 586>
LayerCount: 2
Fore
SplineSet
690 0 m 1xbfc0
 608 82 l 2
 585 74 558 69 527 69 c 2
 292 69 l 2
 261 69 234 74 211 82 c 2
 129 0 l 1
 5 124 l 1
 104 222 l 2
 104 223 104 225 104 226 c 0
 102 246 102 562 104 582 c 0
 104 583 104 585 104 586 c 2
 5 684 l 1
 129 808 l 1
 211 726 l 2
 234 734 261 739 292 739 c 2
 527 739 l 2
 558 739 585 734 608 726 c 2
 690 808 l 1
 813 684 l 1
 714 586 l 2
 714 585 715 583 715 582 c 0
 717 562 717 246 715 226 c 0
 715 225 714 223 714 222 c 2
 813 124 l 1
 690 0 l 1xbfc0
40 124 m 1
 129 34 l 1
 205 110 l 1
 212 107 l 2
 234 98 261 94 292 94 c 2
 527 94 l 2
 558 94 584 98 606 107 c 2
 614 110 l 1
 690 34 l 1
 779 124 l 1
 688 214 l 1
 690 223 l 2
 690 225 691 227 691 229 c 0
 693 247 693 561 691 579 c 0
 691 581 690 583 690 585 c 2
 688 594 l 1
 779 684 l 1
 690 774 l 1
 614 698 l 1
 606 701 l 2
 584 710 558 714 527 714 c 2
 292 714 l 2
 261 714 234 710 212 701 c 2
 205 698 l 1
 129 774 l 1
 40 684 l 1
 130 594 l 1
 129 584 l 2
 129 582 128 581 128 579 c 0
 126 561 126 247 128 229 c 0
 128 227 129 226 129 224 c 2
 130 214 l 1
 40 124 l 1
410 220 m 2
 409 220 l 2
 379 220 368 235 364 247 c 0
 361 256 358 277 358 368 c 2
 358 440 l 2
 358 531 361 552 364 561 c 0
 368 573 379 588 409 588 c 0
 439 588 450 573 454 561 c 0
 457 552 461 531 461 440 c 2
 461 368 l 2
 461 277 457 256 454 247 c 0
 450 235 440 220 410 220 c 2
409 244 m 1
 410 244 l 2
 428 244 430 251 431 254 c 0
 433 260 437 283 437 368 c 2
 437 440 l 2
 437 525 433 548 431 554 c 0
 430 557 428 564 410 564 c 2
 409 564 l 2
 391 564 389 557 388 554 c 0
 386 548 382 525 382 440 c 2
 382 368 l 2
 382 283 386 260 388 254 c 0
 389 251 391 244 409 244 c 2
 409 244 l 1
EndSplineSet
Validated: 37
EndChar

StartChar: ordmasculine
Encoding: 186 186 96
Width: 343
VWidth: 0
Flags: HW
HStem: 435 24<104 239> 557 24<155 187> 654 24<155 187> 775 24<104 239>
VStem: 130 24<582 653> 188 24<582 653>
LayerCount: 2
Fore
SplineSet
180 435 m 2
 162 435 l 2
 129 435 101 442 79 457 c 0
 57 472 40 492 29 516 c 0
 19 539 12 564 10 589 c 0
 8 608 8 627 10 646 c 0
 12 671 19 696 29 719 c 0
 40 743 57 762 79 777 c 0
 101 792 129 799 162 799 c 2
 180 799 l 2
 213 799 242 792 264 777 c 0
 286 762 302 743 313 719 c 0
 323 696 330 671 332 646 c 0
 334 627 334 608 332 589 c 0
 330 564 323 539 313 516 c 0
 302 492 286 472 264 457 c 0
 242 442 213 435 180 435 c 2
162 775 m 1
 134 775 110 769 92 757 c 0
 73 745 60 729 51 709 c 0
 42 688 36 666 34 643 c 0
 32 626 32 608 34 591 c 0
 36 568 42 546 51 525 c 0
 60 505 73 489 92 477 c 0
 110 465 134 459 162 459 c 2
 180 459 l 2
 208 459 232 465 250 477 c 0
 268 489 282 505 291 525 c 0
 300 546 306 568 308 591 c 0
 310 608 310 626 308 643 c 0
 306 666 300 688 291 709 c 0
 282 729 268 745 250 757 c 0
 232 769 208 775 180 775 c 2
 162 775 l 1
171 557 m 0
 148 557 130 574 130 597 c 2
 130 637 l 2
 130 660 148 678 171 678 c 0
 194 678 212 660 212 637 c 2
 212 597 l 2
 212 574 194 557 171 557 c 0
171 654 m 0
 162 654 154 646 154 637 c 2
 154 597 l 2
 154 588 162 580 171 580 c 0
 180 580 188 588 188 597 c 2
 188 637 l 2
 188 646 180 654 171 654 c 0
EndSplineSet
Validated: 33
EndChar

StartChar: equal
Encoding: 61 61 97
Width: 507
VWidth: 0
Flags: HW
HStem: 258 24<38 466> 406 24<38 466> 484 24<38 466> 633 24<38 466>
VStem: 14 24<281 406 508 633> 466 24<281 406 508 633>
LayerCount: 2
Fore
SplineSet
490 484 m 1
 14 484 l 1
 14 656 l 1
 490 656 l 1
 490 484 l 1
38 508 m 1
 466 508 l 1
 466 633 l 1
 38 633 l 1
 38 508 l 1
490 258 m 1
 14 258 l 1
 14 430 l 1
 490 430 l 1
 490 258 l 1
38 281 m 1
 466 281 l 1
 466 406 l 1
 38 406 l 1
 38 281 l 1
EndSplineSet
Validated: 1
EndChar

StartChar: question
Encoding: 63 63 98
Width: 651
VWidth: 0
Flags: HW
HStem: 0 23<57 298> 133 24<57 298> 198 24<57 298> 333 23<325 517> 454 23<145 368> 658 24<57 368> 779 23<57 517>
VStem: 34 24<23 133 222 365 681 779> 298 24<23 133 222 330> 373 23<488 655> 604 23<447 689>
LayerCount: 2
Fore
SplineSet
322 0 m 1
 34 0 l 1
 34 156 l 1
 322 156 l 1
 322 0 l 1
57 23 m 1
 298 23 l 1
 298 133 l 1
 57 133 l 1
 57 23 l 1
34 198 m 1
 34 280 l 2
 34 293 34 313 36 327 c 0
 39 352 47 376 59 399 c 0
 72 423 92 443 119 457 c 0
 145 471 177 478 216 478 c 2
 348 478 l 2
 365 478 367 485 368 488 c 0
 369 492 372 505 373 547 c 0
 373 553 373 583 373 589 c 0
 372 631 370 644 369 648 c 0
 368 651 366 658 347 658 c 2
 34 658 l 1
 34 802 l 1
 444 802 l 2
 483 802 517 795 543 781 c 0
 570 767 590 747 603 723 c 0
 615 700 623 676 626 651 c 0
 628 637 628 618 628 604 c 0
 628 594 628 579 628 565 c 0
 628 554 628 542 628 532 c 0
 628 518 628 499 626 485 c 0
 623 460 615 435 603 412 c 0
 590 388 570 369 543 355 c 0
 517 341 483 333 444 333 c 2
 391 333 l 2
 389 333 384 333 379 333 c 0
 366 333 346 333 340 333 c 0
 336 333 327 332 325 324 c 0
 324 318 322 261 321 210 c 2
 321 199 l 1
 34 198 l 1
57 681 m 1
 347 681 l 2
 377 681 387 666 391 654 c 0
 393 648 395 634 396 589 c 0
 396 582 396 552 396 546 c 0
 395 501 393 488 391 482 c 0
 388 470 377 456 348 455 c 2
 216 454 l 2
 181 454 153 448 130 436 c 0
 107 424 91 408 80 388 c 0
 69 367 62 346 59 324 c 0
 57 311 57 293 57 280 c 2
 57 222 l 1
 298 222 l 1
 299 270 300 324 302 330 c 0
 306 345 321 356 339 357 c 0
 346 357 366 357 380 357 c 0
 385 357 389 357 391 357 c 2
 444 357 l 2
 479 357 509 363 532 375 c 0
 555 387 571 403 582 423 c 0
 593 444 600 465 603 487 c 0
 605 500 604 519 604 532 c 0
 604 542 604 553 604 565 c 0
 604 578 605 593 605 604 c 0
 605 617 605 635 603 648 c 0
 600 670 593 691 582 712 c 0
 571 732 555 748 532 760 c 0
 509 772 479 779 444 779 c 2
 57 779 l 1
 57 681 l 1
EndSplineSet
Validated: 33
EndChar

StartChar: questiondown
Encoding: 191 191 99
Width: 637
VWidth: 0
Flags: HW
HStem: -225 24<123 589> -102 24<273 589> 104 24<273 499> 226 24<123 317> 429 24<345 589> 496 24<344 589> 630 24<344 589>
VStem: 10 24<-110 135> 245 24<-76 93> 321 24<254 429 520 630> 589 24<-201 -102 220 429 520 630>
LayerCount: 2
Fore
SplineSet
612 496 m 1
 321 496 l 1
 321 654 l 1
 612 654 l 1
 612 496 l 1
344 520 m 1
 589 520 l 1
 589 630 l 1
 344 630 l 1
 344 520 l 1
612 -225 m 1
 196 -225 l 2
 156 -225 123 -217 96 -203 c 0
 69 -189 48 -169 35 -145 c 0
 22 -122 15 -96 12 -71 c 0
 10 -57 10 -38 10 -24 c 0
 10 -14 10 1 10 15 c 0
 10 26 10 39 10 49 c 0
 10 63 10 83 12 97 c 0
 15 122 23 148 36 171 c 0
 49 195 69 215 96 229 c 0
 123 243 156 250 196 250 c 2
 250 250 l 2
 252 250 257 250 262 250 c 0
 275 250 296 250 302 250 c 0
 306 250 315 252 317 260 c 0
 318 268 320 375 321 441 c 2
 321 452 l 1
 612 453 l 1
 612 305 l 2
 612 291 613 271 611 257 c 0
 608 232 600 206 587 183 c 0
 574 159 553 139 526 125 c 0
 500 111 466 104 427 104 c 2
 294 104 l 2
 276 104 274 97 273 94 c 0
 272 90 270 76 269 34 c 0
 269 28 269 -2 269 -8 c 0
 270 -50 272 -64 273 -68 c 0
 274 -71 276 -78 295 -78 c 2
 612 -78 l 1
 612 -225 l 1
 612 -225 l 1
196 226 m 1
 160 226 130 220 107 208 c 0
 84 196 68 179 57 159 c 0
 46 138 39 116 36 94 c 0
 34 81 34 62 34 49 c 0
 34 39 34 27 34 15 c 0
 34 2 34 -13 34 -24 c 0
 34 -37 33 -56 35 -69 c 0
 38 -91 45 -113 56 -134 c 0
 67 -154 84 -170 107 -182 c 0
 130 -194 160 -201 196 -201 c 2
 589 -201 l 1
 589 -102 l 1
 295 -102 l 2
 264 -102 254 -88 250 -75 c 0
 248 -69 246 -55 245 -9 c 0
 245 -2 245 28 245 35 c 0
 246 81 248 94 250 100 c 0
 253 112 264 127 293 128 c 2
 427 128 l 2
 462 128 492 134 515 146 c 0
 538 158 555 175 566 195 c 0
 577 216 584 238 587 260 c 0
 589 273 589 292 589 305 c 2
 589 315 l 1
 589 429 l 1
 345 429 l 1
 344 318 342 258 340 253 c 0
 336 237 322 227 303 226 c 0
 296 226 276 226 262 226 c 0
 257 226 252 226 250 226 c 2
 196 226 l 1
EndSplineSet
Validated: 37
EndChar

StartChar: degree
Encoding: 176 176 100
Width: 380
VWidth: 0
Flags: HW
HStem: 438 24<132 247> 514 24<149 231> 699 24<149 231> 775 24<132 247>
VStem: 9 24<561 676> 86 24<578 660> 270 24<578 660> 347 24<561 676>
LayerCount: 2
Fore
SplineSet
190 438 m 0
 90 438 9 519 9 619 c 0
 9 719 90 799 190 799 c 0
 290 799 370 719 370 619 c 0
 370 519 290 438 190 438 c 0
190 775 m 0
 104 775 33 705 33 619 c 0
 33 533 104 462 190 462 c 0
 276 462 347 533 347 619 c 0
 347 705 276 775 190 775 c 0
190 514 m 0
 132 514 86 561 86 619 c 0
 86 677 132 723 190 723 c 0
 248 723 294 677 294 619 c 0
 294 561 248 514 190 514 c 0
190 699 m 0
 146 699 109 663 109 619 c 0
 109 575 146 538 190 538 c 0
 234 538 270 575 270 619 c 0
 270 663 234 699 190 699 c 0
EndSplineSet
Validated: 1
EndChar

StartChar: paragraph
Encoding: 182 182 101
Width: 888
VWidth: 0
Flags: HW
HStem: 0 23<246 484 597 839> 339 23<137 223> 626 23<507 573> 780 23<136 839>
VStem: 28 23<448 695> 223 23<24 339> 484 23<23 626> 573 23<23 626> 839 23<23 780>
LayerCount: 2
Fore
SplineSet
862 0 m 1
 573 0 l 1
 573 626 l 1
 507 626 l 1
 507 -0 l 1
 223 0 l 1
 223 339 l 1
 208 339 l 2
 169 339 136 346 110 360 c 0
 83 374 64 393 51 417 c 0
 39 440 31 464 28 489 c 0
 26 503 26 640 28 654 c 0
 31 679 39 703 51 726 c 0
 64 750 83 769 110 783 c 0
 136 797 169 804 208 804 c 2
 862 804 l 1
 862 0 l 1
 862 0 l 1
597 23 m 1
 839 23 l 1
 839 780 l 1
 208 780 l 2
 173 780 144 774 121 762 c 0
 99 750 81 735 71 715 c 0
 60 695 54 673 51 651 c 0
 49 638 49 505 51 492 c 0
 54 470 60 448 71 428 c 0
 81 408 99 393 121 381 c 0
 144 369 173 363 208 363 c 2
 246 363 l 1
 246 24 l 1
 484 23 l 1
 484 649 l 1
 597 649 l 1
 597 23 l 1
 597 23 l 1
EndSplineSet
Validated: 37
EndChar

StartChar: periodcentered
Encoding: 183 183 102
Width: 217
VWidth: 0
Flags: HW
HStem: 458 17<71 141> 637 17<71 141>
VStem: 8 17<520 591> 187 17<520 591>
LayerCount: 2
Fore
SplineSet
106 458 m 0
 52 458 8 502 8 556 c 0
 8 610 52 653 106 653 c 0
 160 653 203 610 203 556 c 0
 203 502 160 458 106 458 c 0
106 637 m 0
 61 637 25 601 25 556 c 0
 25 511 61 475 106 475 c 0
 151 475 187 511 187 556 c 0
 187 601 151 637 106 637 c 0
EndSplineSet
Validated: 1
EndChar

StartChar: asciitilde
Encoding: 126 126 103
Width: 318
VWidth: 0
Flags: HW
HStem: 498 20<169 287> 524 20<51 150> 596 20<177 271> 624 20<55 151>
VStem: 10 20<526 606> 288 20<525 612>
LayerCount: 2
Fore
SplineSet
10 487 m 1
 10 608 l 1
 13 611 l 2
 14 612 47 644 101 644 c 0
 121 644 142 640 163 631 c 0
 187 621 209 616 229 616 c 0
 272 616 289 639 290 640 c 2
 308 664 l 1
 308 515 l 1
 302 512 l 2
 301 511 269 498 226 498 c 0
 201 498 177 503 155 512 c 0
 137 520 117 524 99 524 c 0
 54 524 26 501 26 501 c 2
 10 487 l 1
99 544 m 0
 120 544 142 540 163 531 c 0
 182 523 203 518 226 518 c 0
 254 518 277 524 288 528 c 2
 288 612 l 2
 276 604 256 596 229 596 c 0
 206 596 182 602 155 613 c 0
 137 621 119 624 101 624 c 0
 63 624 38 607 30 600 c 2
 30 526 l 2
 45 534 68 544 99 544 c 0
EndSplineSet
Validated: 1
EndChar

StartChar: numbersign
Encoding: 35 35 104
Width: 848
VWidth: 0
Flags: HW
HStem: 0 24<66 308 416 658> 161 24<49 65 355 415 705 795> 322 24<49 96 386 446 736 795> 458 24<49 114 404 464 755 795> 619 24<49 145 435 495 785 795> 780 24<192 434 542 785>
VStem: 26 24<185 322 481 619> 795 24<185 322 481 619>
LayerCount: 2
Fore
SplineSet
678 0 m 1
 388 0 l 1
 415 161 l 1
 355 161 l 1
 328 0 l 1
 38 0 l 1
 65 161 l 1
 26 161 l 1
 26 346 l 1
 96 346 l 1
 114 458 l 1
 26 458 l 1
 26 642 l 1
 145 642 l 1
 172 804 l 1
 462 804 l 1
 435 642 l 1
 495 642 l 1
 522 804 l 1
 812 804 l 1
 785 642 l 1
 818 642 l 1
 818 458 l 1
 755 458 l 1
 736 346 l 1
 818 346 l 1
 818 161 l 1
 705 161 l 1
 678 0 l 1
416 24 m 1
 658 24 l 1
 685 185 l 1
 795 185 l 1
 795 322 l 1
 708 322 l 1
 735 481 l 1
 795 481 l 1
 795 619 l 1
 758 619 l 1
 785 780 l 1
 542 780 l 1
 515 619 l 1
 407 619 l 1
 434 780 l 1
 192 780 l 1
 165 619 l 1
 49 619 l 1
 49 481 l 1
 142 481 l 1
 115 322 l 1
 49 322 l 1
 49 185 l 1
 93 185 l 1
 66 24 l 1
 308 24 l 1
 335 185 l 1
 443 185 l 1
 416 24 l 1
466 322 m 1
 358 322 l 1
 384 481 l 1
 492 481 l 1
 466 322 l 1
386 346 m 1
 446 346 l 1
 464 458 l 1
 404 458 l 1
 386 346 l 1
EndSplineSet
Validated: 1
EndChar

StartChar: asciicircum
Encoding: 94 94 105
Width: 518
VWidth: 0
Flags: HW
HStem: 439 24<43 166 348 471> 775 24<148 366>
LayerCount: 2
Fore
SplineSet
504 439 m 1
 331 439 l 1
 257 659 l 1
 183 439 l 1
 10 439 l 1
 130 799 l 1
 383 799 l 1
 504 439 l 1
348 463 m 1
 471 463 l 1
 366 775 l 1
 148 775 l 1
 43 463 l 1
 166 463 l 1
 257 734 l 1
 348 463 l 1
EndSplineSet
Validated: 1
EndChar

StartChar: braceright
Encoding: 125 125 106
Width: 607
VWidth: 0
Flags: HW
HStem: -226 23<41 356> -75 23<41 186> 625 23<41 176> 776 23<41 356>
VStem: 18 23<-202 -75 649 776> 192 23<-41 207 370 622> 452 22<-94 207 366 667>
LayerCount: 2
Fore
SplineSet
18 -63 m 1
 18 -51 l 1
 30 -51 l 2
 34 -51 156 -52 164 -52 c 0
 182 -52 185 -44 186 -41 c 0
 188 -35 192 -12 192 73 c 2
 192 178 l 1
 192 180 l 2
 194 232 257 270 295 287 c 1
 257 304 193 341 192 394 c 2
 192 500 l 2
 192 585 188 609 186 615 c 0
 185 618 182 625 164 625 c 2
 153 625 l 2
 121 625 34 625 31 625 c 2
 18 624 l 1
 18 799 l 1
 282 799 l 2
 323 799 357 792 384 777 c 0
 412 762 432 743 445 718 c 0
 458 694 466 669 469 643 c 0
 472 621 474 582 474 525 c 2
 474 513 l 2
 474 470 475 399 475 394 c 2
 475 393 l 2
 478 337 577 298 578 298 c 2
 607 287 l 1
 578 276 l 2
 550 265 477 227 475 179 c 0
 475 174 474 103 474 60 c 2
 474 48 l 1
 474 48 l 1
 474 -9 472 -48 469 -70 c 0
 466 -96 458 -121 445 -145 c 0
 432 -170 412 -189 384 -204 c 0
 357 -219 323 -226 282 -226 c 2
 18 -226 l 1
 18 -63 l 1
452 181 m 2
 452 181 l 1
 454 233 512 270 546 287 c 1
 512 304 455 340 452 392 c 1
 451 402 451 460 451 502 c 2
 451 513 l 2
 451 575 449 618 446 640 c 0
 443 663 436 686 425 707 c 0
 414 727 396 744 373 757 c 0
 349 770 319 776 282 776 c 2
 41 776 l 1
 41 649 l 2
 74 649 176 648 176 648 c 2
 197 645 205 632 208 622 c 0
 211 613 215 591 215 500 c 2
 215 397 l 1
 215 395 l 2
 216 348 348 287 348 287 c 1
 348 287 217 235 215 179 c 2
 215 73 l 2
 215 -18 211 -40 208 -49 c 0
 204 -61 193 -75 164 -75 c 0
 163 -75 74 -75 41 -75 c 2
 41 -202 l 1
 282 -202 l 2
 319 -202 349 -196 373 -183 c 0
 396 -170 414 -154 425 -134 c 0
 436 -113 443 -90 446 -67 c 0
 449 -45 451 -2 451 60 c 2
 451 72 l 1
 451 72 l 1
 451 120 452 172 452 181 c 2
EndSplineSet
Validated: 5
EndChar

StartChar: underscore
Encoding: 95 95 107
Width: 637
VWidth: 0
Flags: HW
HStem: 0 24<34 602> 154 24<34 602>
VStem: 10 24<24 154> 602 24<24 154>
LayerCount: 2
Fore
SplineSet
626 0 m 1
 10 0 l 1
 10 178 l 1
 626 178 l 1
 626 0 l 1
 626 0 l 1
34 24 m 1
 602 24 l 1
 602 154 l 1
 34 154 l 1
 34 24 l 1
EndSplineSet
Validated: 5
EndChar

StartChar: germandbls
Encoding: 223 223 108
Width: 882
VWidth: 0
Flags: HW
HStem: 0 23<50 293 397 758> 130 23<397 643> 219 23<445 619 619 643> 343 23<558 756> 438 23<558 667> 561 23<446 559> 626 23<321 560> 781 23<150 224 224 667>
VStem: 27 23<23 673> 293 23<23 615> 374 23<23 130> 525 23<376 427> 562 23<588 623> 652 23<162 211>
LayerCount: 2
Fore
SplineSet
693 0 m 6
 374 0 l 5
 374 153 l 5
 385 153 l 5
 385 153 618 154 619 154 c 4
 637 154 652 168 652 186 c 4
 652 204 637 219 619 219 c 5
 619 219 518 219 510 219 c 4
 475 219 446 226 423 239 c 4
 400 252 383 270 372 292 c 4
 352 332 344 384 350 433 c 4
 351 443 353 453 355 463 c 4
 359 481 365 497 372 511 c 4
 383 533 400 551 423 564 c 4
 443 576 468 583 498 584 c 6
 499 584 l 6
 502 584 506 584 510 584 c 6
 529 584 l 6
 562 584 562 601 562 606 c 4
 562 613 562 625 531 626 c 6
 344 626 l 6
 325 626 322 618 321 615 c 4
 318 607 315 581 315 498 c 6
 316 0 l 5
 27 0 l 5
 27 511 l 6
 27 576 29 620 32 644 c 4
 35 670 43 697 56 721 c 4
 70 746 91 766 119 781 c 4
 147 796 182 804 224 804 c 6
 224 804 586 804 589 804 c 4
 621 804 657 802 690 783 c 4
 713 770 730 752 741 730 c 4
 748 716 754 700 758 682 c 4
 760 673 763 662 764 652 c 4
 770 603 761 551 741 511 c 4
 730 489 713 471 690 458 c 4
 667 445 638 438 603 438 c 6
 584 438 l 6
 565 438 548 421 548 401 c 4
 548 381 564 366 584 366 c 6
 606 366 l 6
 633 366 675 366 679 366 c 4
 711 366 747 364 780 345 c 4
 803 332 820 314 831 292 c 4
 838 278 844 262 848 244 c 4
 850 235 852 224 853 214 c 4
 859 165 851 113 831 73 c 4
 820 51 803 33 780 20 c 4
 757 7 728 0 693 0 c 6
397 23 m 5
 693 23 l 6
 724 23 749 29 768 40 c 4
 787 51 801 65 810 83 c 4
 828 119 835 167 830 212 c 4
 829 221 828 230 826 238 c 4
 822 254 816 270 810 282 c 4
 801 300 787 314 768 325 c 4
 740 341 708 343 679 343 c 4
 675 343 633 343 606 343 c 6
 584 342 l 6
 552 342 525 369 525 401 c 4
 525 434 552 461 584 461 c 6
 603 461 l 6
 634 461 660 467 679 478 c 4
 698 489 711 503 720 521 c 4
 738 557 745 604 740 649 c 4
 739 658 738 668 736 676 c 4
 732 692 726 708 720 720 c 4
 711 738 698 752 679 763 c 4
 651 779 618 781 589 781 c 4
 586 781 224 780 224 780 c 6
 186 780 154 774 130 761 c 4
 106 748 88 731 77 710 c 4
 65 688 58 665 55 641 c 4
 52 618 50 575 50 511 c 6
 50 23 l 5
 293 23 l 5
 292 498 l 6
 292 591 296 613 299 622 c 4
 303 634 314 649 344 649 c 6
 531 649 l 6
 578 648 585 622 585 606 c 4
 585 578 564 561 529 561 c 6
 510 561 l 6
 507 561 503 561 500 561 c 6
 498 561 l 6
 473 560 452 554 435 544 c 4
 416 533 402 519 393 501 c 4
 387 489 381 473 377 457 c 4
 375 448 374 439 373 430 c 4
 368 385 375 338 393 302 c 4
 402 284 416 270 435 259 c 4
 454 248 480 242 510 242 c 4
 518 242 619 243 619 243 c 6
 650 243 675 217 675 186 c 4
 675 155 650 130 619 130 c 4
 618 130 444 130 397 130 c 5
 397 23 l 5
EndSplineSet
Validated: 33
EndChar

StartChar: OE
Encoding: 140 338 109
Width: 906
VWidth: 0
Flags: HW
HStem: 0 23<158 855> 155 23<326 375 660 855> 380 23<660 855> 535 23<660 855> 625 23<326 375 660 855> 781 23<158 855>
VStem: 39 23<126 678> 297 23<177 627> 375 23<174 630> 637 23<178 380 558 625> 855 23<23 155 403 535 648 781>
LayerCount: 2
Fore
SplineSet
878 0 m 5
 231 0 l 6
 190 0 156 8 129 22 c 4
 101 37 80 56 67 81 c 4
 54 105 46 130 43 156 c 4
 40 179 39 222 39 285 c 6
 39 518 l 6
 39 581 40 625 43 648 c 4
 46 674 54 699 67 723 c 4
 80 748 101 767 129 782 c 4
 156 796 190 804 231 804 c 6
 878 804 l 5
 878 625 l 5
 660 625 l 5
 660 558 l 5
 878 558 l 5
 878 380 l 5
 660 380 l 5
 660 178 l 5
 878 178 l 5
 878 0 l 5
 878 0 l 5
231 781 m 6
 194 781 163 774 139 761 c 4
 116 749 99 732 88 712 c 4
 77 691 69 668 66 645 c 4
 63 623 62 580 62 518 c 6
 62 285 l 6
 62 223 63 181 66 159 c 4
 69 136 77 113 88 92 c 4
 99 72 116 55 139 42 c 4
 163 29 194 23 231 23 c 6
 855 23 l 5
 855 155 l 5
 637 155 l 5
 637 403 l 5
 855 403 l 5
 855 535 l 5
 637 535 l 5
 637 648 l 5
 855 648 l 5
 855 781 l 5
 231 781 l 6
348 150 m 6
 319 150 308 165 304 177 c 4
 301 186 297 207 297 298 c 6
 297 505 l 6
 297 596 301 618 304 627 c 4
 308 639 319 653 348 653 c 6
 398 653 l 5
 398 150 l 5
 348 150 l 6
348 630 m 6
 330 630 327 623 326 620 c 4
 324 614 320 590 320 505 c 6
 320 298 l 6
 320 213 324 190 326 184 c 4
 327 181 330 174 348 174 c 6
 375 174 l 5
 375 630 l 5
 348 630 l 6
EndSplineSet
Validated: 5
EndChar

StartChar: trademark
Encoding: 153 8482 110
Width: 823
VWidth: 0
Flags: HW
HStem: 439 24<114 244 378 497 587 639 729 781> 641 24<38 90 267 321> 650 24<521 558 667 701> 775 24<38 321 378 545 668 741>
VStem: 14 24<665 775> 90 24<463 641> 244 24<463 641> 321 24<665 775> 354 24<463 775> 497 24<463 650> 563 24<463 649> 639 24<463 643> 705 24<463 649> 781 24<463 739>
LayerCount: 2
Fore
SplineSet
267 439 m 1xdffc
 90 439 l 1
 90 641 l 1
 14 641 l 1
 14 799 l 1
 345 799 l 1
 345 641 l 1
 267 641 l 1
 267 439 l 1xdffc
114 463 m 1
 244 463 l 1
 244 665 l 1
 321 665 l 1
 321 775 l 1
 38 775 l 1
 38 665 l 1
 114 665 l 1
 114 463 l 1
805 439 m 1
 705 439 l 1
 705 549 l 2
 705 619 702 638 700 643 c 0
 699 645 698 650 684 650 c 0
 669 650 668 645 667 643 c 0
 665 638 663 617 663 543 c 2
 663 439 l 1
 563 439 l 1
 563 549 l 2
 563 619 560 638 558 643 c 0
 557 645 556 650 542 650 c 2
 521 650 l 1xbffc
 521 439 l 1
 354 439 l 1
 354 799 l 1
 525 799 l 2
 531 799 538 798 544 798 c 2
 545 798 l 2
 565 795 584 789 602 779 c 0
 610 775 616 770 623 764 c 0
 630 770 637 775 645 779 c 0
 659 787 677 793 693 795 c 0
 729 800 767 784 788 755 c 0
 796 743 801 729 803 715 c 0
 804 706 805 691 805 669 c 2
 805 439 l 1
 805 439 l 1
729 463 m 1
 781 463 l 1
 781 669 l 2
 781 689 780 704 779 712 c 0
 778 723 774 732 768 741 c 0
 753 763 724 776 697 772 c 0
 683 770 668 764 656 758 c 0
 647 753 639 747 632 739 c 2
 623 730 l 1
 615 739 l 2
 608 747 599 753 590 758 c 0
 575 766 559 772 542 775 c 0
 536 775 529 775 524 775 c 2
 378 775 l 1
 378 463 l 1
 497 463 l 1
 497 674 l 1
 542 674 l 2
 569 674 578 659 581 650 c 0
 583 643 587 625 587 549 c 2
 587 463 l 1
 639 463 l 1
 639 543 l 2
 639 622 642 641 644 649 c 0
 647 658 655 674 684 674 c 0
 711 674 720 659 723 650 c 0
 725 643 729 625 729 549 c 2
 729 463 l 1
 729 463 l 1
EndSplineSet
Validated: 37
EndChar

StartChar: dagger
Encoding: 134 8224 111
Width: 406
VWidth: 0
Flags: HW
HStem: 309 24<137 266> 578 24<36 114 291 369> 681 24<36 115 291 369> 775 24<139 268>
VStem: 12 24<602 681> 115 24<332 578 705 775> 267 24<332 577 704 775> 369 24<601 680>
LayerCount: 2
Fore
SplineSet
290 308 m 1
 113 309 l 1
 114 578 l 1
 12 578 l 1
 12 705 l 1
 115 705 l 1
 115 799 l 1
 291 799 l 1
 291 704 l 1
 393 704 l 1
 393 577 l 1
 291 577 l 1
 290 308 l 1
137 332 m 1
 266 332 l 1
 267 601 l 1
 369 601 l 1
 369 680 l 1
 267 681 l 1
 268 775 l 1
 139 775 l 1
 138 681 l 1
 36 681 l 1
 36 602 l 1
 138 602 l 1
 137 332 l 1
EndSplineSet
Validated: 1
EndChar

StartChar: daggerdbl
Encoding: 135 8225 112
Width: 405
VWidth: 0
Flags: HW
HStem: 309 24<139 268> 403 24<37 115 291 370> 506 24<37 115 291 370> 578 24<37 115 291 370> 681 24<37 115 291 370> 775 24<139 268>
VStem: 13 24<427 506 602 681> 115 24<332 403 530 578 705 775> 268 24<332 403 530 578 705 775> 370 24<427 506 602 681>
LayerCount: 2
Fore
SplineSet
291 309 m 1
 115 309 l 1
 115 403 l 1
 13 403 l 1
 13 530 l 1
 115 530 l 1
 115 578 l 1
 13 578 l 1
 13 705 l 1
 115 705 l 1
 115 799 l 1
 291 799 l 1
 291 705 l 1
 393 705 l 1
 393 578 l 1
 291 578 l 1
 291 530 l 1
 393 530 l 1
 393 403 l 1
 291 403 l 1
 291 309 l 1
139 332 m 1
 268 332 l 1
 268 427 l 1
 370 427 l 1
 370 506 l 1
 268 506 l 1
 268 602 l 1
 370 602 l 1
 370 681 l 1
 268 681 l 1
 268 775 l 1
 139 775 l 1
 139 681 l 1
 37 681 l 1
 37 602 l 1
 139 602 l 1
 139 506 l 1
 37 506 l 1
 37 427 l 1
 139 427 l 1
 139 332 l 1
 139 332 l 1
EndSplineSet
Validated: 5
EndChar

StartChar: uniFB01
Encoding: 256 64257 113
Width: 746
VWidth: 0
Flags: HW
HStem: 0 23<43 262 458 702> 377 23<285 434> 511 23<286 702> 649 23<290 354 458 702> 782 23<118 354 458 702>
VStem: 19 23<23 706> 262 23<23 377 535 646> 354 23<672 782> 434 23<23 377 672 782> 702 23<23 511 672 782>
LayerCount: 2
Fore
SplineSet
286 0 m 5
 19 0 l 5
 19 12 l 6
 19 663 20 665 20 666 c 4
 23 689 30 712 41 733 c 4
 53 755 71 773 96 786 c 4
 120 799 151 805 187 805 c 6
 377 805 l 5
 377 649 l 5
 365 649 l 5
 365 649 313 648 312 648 c 4
 293 648 291 641 290 638 c 4
 290 637 289 636 289 635 c 4
 287 619 287 575 286 535 c 5
 726 535 l 5
 726 0 l 5
 434 0 l 5
 434 377 l 5
 285 377 l 5
 286 0 l 5
43 23 m 5
 262 23 l 5
 262 400 l 5
 458 400 l 5
 458 23 l 5
 702 23 l 5
 702 511 l 5
 262 511 l 5
 262 523 l 6
 262 544 263 614 266 639 c 4
 266 642 267 644 267 645 c 4
 271 657 282 672 312 672 c 4
 313 672 339 672 354 672 c 6
 354 782 l 5
 187 782 l 6
 155 782 128 776 107 765 c 4
 86 754 72 740 62 722 c 4
 52 703 45 684 43 664 c 4
 43 647 43 245 43 23 c 5
726 649 m 5
 434 649 l 5
 434 805 l 5
 726 805 l 5
 726 649 l 5
 726 649 l 5
458 672 m 5
 702 672 l 5
 702 782 l 5
 458 782 l 5
 458 672 l 5
EndSplineSet
Validated: 5
EndChar

StartChar: uniFB02
Encoding: 257 64258 114
Width: 751
VWidth: 0
Flags: HW
HStem: 0 23<48 267 462 706> 376 23<290 439> 510 23<290 439> 648 23<294 358> 780 23<123 358 462 706>
VStem: 24 23<23 705> 266 23<23 376 534 645> 358 23<671 780> 439 23<23 376 534 780> 706 23<23 780>
LayerCount: 2
Fore
SplineSet
290 0 m 5
 24 0 l 5
 24 12 l 6
 24 662 25 664 25 665 c 4
 28 688 35 710 46 731 c 4
 58 753 76 771 101 784 c 4
 125 797 156 804 192 804 c 6
 381 804 l 5
 381 648 l 5
 370 648 l 5
 370 648 317 647 316 647 c 4
 297 647 295 640 294 637 c 4
 294 636 294 635 294 634 c 4
 292 618 291 574 290 534 c 5
 439 534 l 5
 439 804 l 5
 729 804 l 5
 729 0 l 5
 439 0 l 5
 439 376 l 5
 290 376 l 5
 290 0 l 5
48 23 m 5
 267 23 l 5
 266 400 l 5
 462 400 l 5
 462 23 l 5
 706 23 l 5
 706 780 l 5
 462 780 l 5
 462 510 l 5
 266 510 l 5
 267 522 l 6
 267 543 268 613 271 638 c 4
 271 641 272 643 272 644 c 4
 276 656 286 671 316 671 c 4
 317 671 343 671 358 671 c 6
 358 780 l 5
 192 780 l 6
 160 780 133 775 112 764 c 4
 92 753 77 738 67 720 c 4
 57 701 50 682 48 662 c 4
 48 645 48 245 48 23 c 5
EndSplineSet
Validated: 1
EndChar

StartChar: perthousand
Encoding: 137 8240 115
Width: 1478
VWidth: 0
Flags: HW
HStem: -14 23<785 950 1191 1353> 0 23<331 567> 127 23<846 887 1251 1291> 307 23<133 295 848 886 1251 1291> 445 23<193 233 788 947 1191 1353> 625 23<192 233> 766 23<133 295 519 755>
VStem: 26 23<413 683> 378 23<413 683> 680 23<92 361> 1032 23<92 361> 1085 23<92 362> 1436 23<92 362>
LayerCount: 2
Fore
SplineSet
1283 -14 m 2xbff8
 1261 -14 l 2
 1223 -14 1191 -7 1165 7 c 0
 1139 21 1119 39 1107 62 c 0
 1095 84 1087 109 1084 133 c 0
 1082 152 1082 302 1084 321 c 0
 1087 345 1095 370 1107 392 c 0
 1119 415 1139 433 1165 447 c 0
 1191 461 1223 468 1261 468 c 2
 1283 468 l 2
 1321 468 1353 461 1379 447 c 0
 1405 433 1424 415 1436 392 c 0
 1448 370 1456 345 1459 321 c 0
 1461 302 1461 152 1459 133 c 0
 1456 109 1448 84 1436 62 c 0
 1424 39 1405 21 1379 7 c 0
 1353 -7 1321 -14 1283 -14 c 2xbff8
1261 445 m 1
 1227 445 1198 439 1176 427 c 0
 1154 415 1137 400 1127 381 c 0
 1116 361 1110 340 1107 319 c 0
 1105 303 1105 151 1107 135 c 0
 1110 114 1116 93 1127 73 c 0
 1137 54 1154 39 1176 27 c 0
 1198 15 1227 9 1261 9 c 2
 1283 9 l 2
 1317 9 1346 15 1368 27 c 0
 1390 39 1406 54 1416 73 c 0
 1427 93 1433 114 1436 135 c 0
 1438 151 1438 303 1436 319 c 0
 1433 340 1427 361 1416 381 c 0
 1406 400 1390 415 1368 427 c 0
 1346 439 1317 445 1283 445 c 2
 1261 445 l 1
1271 127 m 2
 1271 127 l 2
 1243 127 1233 140 1229 152 c 0
 1224 166 1224 288 1229 302 c 0
 1233 314 1243 327 1271 327 c 0
 1299 327 1309 314 1313 302 c 0
 1318 288 1318 166 1313 152 c 0
 1309 140 1299 127 1271 127 c 2
1271 150 m 1
 1272 150 l 2
 1289 150 1290 156 1291 159 c 0
 1294 171 1294 283 1291 295 c 0
 1290 298 1288 304 1271 304 c 2
 1270 304 l 2
 1253 304 1252 298 1251 295 c 0
 1248 283 1248 171 1251 159 c 0
 1252 156 1253 150 1270 150 c 2
 1271 150 l 1
585 0 m 1x7ff8
 302 0 l 1
 502 789 l 1
 785 789 l 1
 585 0 l 1x7ff8
331 23 m 1
 567 23 l 1
 755 766 l 1
 519 766 l 1
 331 23 l 1
224 307 m 2
 203 307 l 2
 165 307 133 314 107 328 c 0
 81 342 61 360 49 383 c 0
 37 405 29 430 26 454 c 0
 24 473 24 624 26 643 c 0
 29 667 37 691 49 713 c 0
 61 736 81 754 107 768 c 0
 133 782 165 789 203 789 c 2
 224 789 l 2
 262 789 294 782 320 768 c 0
 346 754 366 736 378 713 c 0
 390 691 398 667 401 643 c 0
 403 624 403 473 401 454 c 0
 398 430 390 405 378 383 c 0
 366 360 346 342 320 328 c 0
 294 314 262 307 224 307 c 2
203 766 m 1
 169 766 139 760 117 748 c 0
 95 736 79 721 69 702 c 0
 58 682 52 661 49 640 c 0
 47 624 47 472 49 456 c 0
 52 435 58 414 69 394 c 0
 79 375 95 360 117 348 c 0
 139 336 169 330 203 330 c 2
 224 330 l 2
 258 330 288 336 310 348 c 0
 332 360 348 375 358 394 c 0
 369 414 375 435 378 456 c 0
 380 472 380 624 378 640 c 0
 375 661 369 682 358 702 c 0
 348 721 332 736 310 748 c 0
 288 760 258 766 224 766 c 2
 203 766 l 1
213 448 m 2
 213 448 l 2
 185 448 175 461 171 473 c 0
 166 487 166 609 171 623 c 0
 175 635 185 648 213 648 c 0
 241 648 251 635 255 623 c 0
 260 609 260 487 255 473 c 0
 251 461 241 448 213 448 c 2
213 471 m 1
 214 471 l 2
 231 471 232 477 233 480 c 0
 236 492 236 604 233 616 c 0
 232 619 230 625 213 625 c 2
 212 625 l 2
 195 625 193 619 192 616 c 0
 189 604 190 492 193 480 c 0
 194 477 195 471 212 471 c 2
 213 471 l 1
878 -15 m 2
 856 -15 l 2
 818 -15 787 -8 761 6 c 0
 735 20 715 38 703 61 c 0
 691 83 683 108 680 132 c 0
 678 151 678 302 680 321 c 0
 683 345 691 369 703 391 c 0
 715 414 735 433 761 447 c 0
 787 461 818 467 856 467 c 2
 878 467 l 2
 916 467 948 461 974 447 c 0
 1000 433 1020 414 1032 391 c 0
 1044 369 1052 345 1055 321 c 0
 1057 302 1057 151 1055 132 c 0
 1052 108 1044 84 1032 62 c 0
 1020 39 1000 20 974 6 c 0
 948 -8 916 -15 878 -15 c 2
856 445 m 1
 822 445 793 439 771 427 c 0
 749 415 733 399 723 380 c 0
 712 360 706 339 703 318 c 0
 701 302 701 151 703 135 c 0
 706 114 712 92 723 72 c 0
 733 53 749 38 771 26 c 0
 793 14 822 8 856 8 c 2
 878 8 l 2
 912 8 942 14 964 26 c 0
 986 38 1002 53 1012 72 c 0
 1023 92 1029 114 1032 135 c 0
 1034 151 1034 302 1032 318 c 0
 1029 339 1023 360 1012 380 c 0
 1002 399 986 415 964 427 c 0
 942 439 912 445 878 445 c 2
 856 445 l 1
867 126 m 2
 866 126 l 2
 838 126 829 140 825 152 c 0
 820 166 820 287 825 301 c 0
 829 313 838 326 866 326 c 0
 894 326 905 313 909 301 c 0
 914 287 914 166 909 152 c 0
 905 140 895 126 867 126 c 2
867 149 m 1
 867 149 l 2
 884 149 886 156 887 159 c 0
 890 171 890 282 887 294 c 0
 886 297 884 304 867 304 c 2
 866 304 l 2
 849 304 847 297 846 294 c 0
 843 282 843 170 846 158 c 0
 847 155 849 149 866 149 c 2
 867 149 l 1
EndSplineSet
Validated: 37
EndChar

StartChar: percent
Encoding: 37 37 116
Width: 1082
VWidth: 0
Flags: HW
HStem: -15 23<786 948> 0 23<331 567> 126 23<846 887> 307 23<133 295 848 886> 448 23<193 233 796 938> 625 23<192 233> 766 23<133 295 519 755>
VStem: 26 23<413 683> 378 23<413 683> 680 23<92 361> 1032 23<92 361>
LayerCount: 2
Fore
SplineSet
585 0 m 1x7fe0
 302 0 l 1
 502 789 l 1
 785 789 l 1
 585 0 l 1x7fe0
331 23 m 1
 567 23 l 1
 755 766 l 1
 519 766 l 1
 331 23 l 1
224 307 m 2
 203 307 l 2
 165 307 133 314 107 328 c 0
 81 342 61 360 49 383 c 0
 37 405 29 430 26 454 c 0
 24 473 24 624 26 643 c 0
 29 667 37 691 49 713 c 0
 61 736 81 754 107 768 c 0
 133 782 165 789 203 789 c 2
 224 789 l 2
 262 789 294 782 320 768 c 0
 346 754 366 736 378 713 c 0
 390 691 398 667 401 643 c 0
 403 624 403 473 401 454 c 0
 398 430 390 405 378 383 c 0
 366 360 346 342 320 328 c 0
 294 314 262 307 224 307 c 2
203 766 m 1
 169 766 139 760 117 748 c 0
 95 736 79 721 69 702 c 0
 58 682 52 661 49 640 c 0
 47 624 47 472 49 456 c 0
 52 435 58 414 69 394 c 0
 79 375 95 360 117 348 c 0
 139 336 169 330 203 330 c 2
 224 330 l 2
 258 330 288 336 310 348 c 0
 332 360 348 375 358 394 c 0
 369 414 375 435 378 456 c 0
 380 472 380 624 378 640 c 0
 375 661 369 682 358 702 c 0
 348 721 332 736 310 748 c 0
 288 760 258 766 224 766 c 2
 203 766 l 1
213 448 m 2
 213 448 l 2
 185 448 175 461 171 473 c 0
 166 487 166 609 171 623 c 0
 175 635 185 648 213 648 c 0
 241 648 251 635 255 623 c 0
 260 609 260 487 255 473 c 0
 251 461 241 448 213 448 c 2
213 471 m 1
 214 471 l 2
 231 471 232 477 233 480 c 0
 236 492 236 604 233 616 c 0
 232 619 230 625 213 625 c 2
 212 625 l 2
 195 625 193 619 192 616 c 0
 189 604 190 492 193 480 c 0
 194 477 195 471 212 471 c 2
 213 471 l 1
878 -15 m 2xbfe0
 856 -15 l 2
 818 -15 787 -8 761 6 c 0
 735 20 715 38 703 61 c 0
 691 83 683 108 680 132 c 0
 678 151 678 302 680 321 c 0
 683 345 691 369 703 391 c 0
 715 414 735 433 761 447 c 0
 787 461 818 467 856 467 c 2
 878 467 l 2
 916 467 948 461 974 447 c 0
 1000 433 1020 414 1032 391 c 0
 1044 369 1052 345 1055 321 c 0
 1057 302 1057 151 1055 132 c 0
 1052 108 1044 84 1032 62 c 0
 1020 39 1000 20 974 6 c 0
 948 -8 916 -15 878 -15 c 2xbfe0
856 445 m 1
 822 445 793 439 771 427 c 0
 749 415 733 399 723 380 c 0
 712 360 706 339 703 318 c 0
 701 302 701 151 703 135 c 0
 706 114 712 92 723 72 c 0
 733 53 749 38 771 26 c 0
 793 14 822 8 856 8 c 2
 878 8 l 2
 912 8 942 14 964 26 c 0
 986 38 1002 53 1012 72 c 0
 1023 92 1029 114 1032 135 c 0
 1034 151 1034 302 1032 318 c 0
 1029 339 1023 360 1012 380 c 0
 1002 399 986 415 964 427 c 0
 942 439 912 445 878 445 c 2
 856 445 l 1
867 126 m 2
 866 126 l 2
 838 126 829 140 825 152 c 0
 820 166 820 287 825 301 c 0
 829 313 838 326 866 326 c 0
 894 326 905 313 909 301 c 0
 914 287 914 166 909 152 c 0
 905 140 895 126 867 126 c 2
867 149 m 1
 867 149 l 2
 884 149 886 156 887 159 c 0
 890 171 890 282 887 294 c 0
 886 297 884 304 867 304 c 2
 866 304 l 2
 849 304 847 297 846 294 c 0
 843 282 843 170 846 158 c 0
 847 155 849 149 866 149 c 2
 867 149 l 1
EndSplineSet
Validated: 37
EndChar

StartChar: slash
Encoding: 47 47 117
Width: 540
VWidth: 0
Flags: HW
HStem: 0 23<49 289> 781 23<241 481>
LayerCount: 2
Fore
SplineSet
223 804 m 1
 511 804 l 1
 307 0 l 1
 19 0 l 1
 223 804 l 1
481 781 m 1
 241 781 l 1
 49 23 l 1
 289 23 l 1
 481 781 l 1
EndSplineSet
Validated: 1
EndChar

StartChar: less
Encoding: 60 60 118
Width: 600
VWidth: 0
Flags: HW
VStem: 564 24<64 165 632 732>
LayerCount: 2
Fore
SplineSet
587 20 m 5
 10 398 l 5
 587 776 l 5
 587 619 l 5
 257 398 l 5
 587 177 l 5
 587 20 l 5
54 398 m 5
 564 64 l 5
 564 165 l 5
 214 398 l 5
 564 632 l 5
 564 732 l 5
 54 398 l 5
EndSplineSet
Validated: 1
EndChar

StartChar: greater
Encoding: 62 62 119
Width: 606
VWidth: 0
Flags: HW
VStem: 12 24<65 165 632 733>
LayerCount: 2
Fore
SplineSet
12 178 m 1
 343 399 l 1
 12 619 l 1
 12 777 l 1
 589 399 l 1
 12 20 l 1
 12 178 l 1
36 733 m 1
 36 632 l 1
 385 399 l 1
 36 165 l 1
 36 65 l 1
 546 399 l 1
 36 733 l 1
EndSplineSet
Validated: 1
EndChar

StartChar: oe
Encoding: 156 339 120
Width: 999
VWidth: 0
Flags: HW
HStem: 0 24<143 944> 147 24<310 353 625 944> 221 24<626 943> 371 24<636 688> 485 24<310 353 636 684> 632 24<143 852>
VStem: 32 24<111 545> 281 24<174 482> 358 24<174 482> 601 24<174 205> 613 24<395 485> 688 24<395 475> 944 24<24 148 245 531>
LayerCount: 2
Fore
SplineSet
968 0 m 1xffd8
 216 0 l 2
 176 0 143 8 116 22 c 0
 89 36 69 56 56 80 c 0
 43 103 35 128 32 153 c 0
 30 173 30 483 32 503 c 0
 35 528 43 553 56 576 c 0
 69 600 89 621 116 635 c 0
 143 649 176 656 216 656 c 2
 778 656 l 2
 818 656 852 649 879 635 c 0
 906 621 926 600 939 576 c 0
 952 553 960 528 963 503 c 0
 964 491 965 474 966 451 c 2
 966 451 l 1
 967 439 l 1
 967 268 l 1
 966 221 l 1
 647 221 l 2
 629 221 627 214 626 211 c 0
 626 210 626 208 625 204 c 0
 625 198 625 192 625 188 c 0
 625 185 624 182 624 181 c 0
 625 178 627 171 645 171 c 2
 968 171 l 1
 968 0 l 1xffd8
216 632 m 2
 180 632 150 626 127 614 c 0
 104 602 88 585 77 565 c 0
 66 544 59 522 56 500 c 0
 54 482 54 174 56 156 c 0
 59 134 66 112 77 91 c 0
 88 71 104 54 127 42 c 0
 150 30 180 24 216 24 c 2
 944 24 l 1
 944 148 l 1
 645 147 l 2
 616 147 606 162 602 174 c 0
 601 178 601 183 601 189 c 0
 601 193 601 198 601 203 c 2
 601 205 l 1
 601 206 l 2
 602 212 602 215 603 218 c 0
 607 230 618 245 647 245 c 2
 943 245 l 1
 943 268 l 1
 943 431 l 1
 943 439 l 2
 942 467 941 487 939 500 c 0
 936 522 929 544 918 565 c 0
 907 585 891 602 868 614 c 0
 845 626 814 632 778 632 c 2
 216 632 l 1
 216 632 l 2
332 148 m 2
 332 148 l 2
 303 148 292 162 288 174 c 0
 285 183 281 204 281 293 c 2
 281 363 l 2
 281 452 285 473 288 482 c 0
 292 494 302 509 331 509 c 0
 361 509 372 494 376 482 c 0
 379 473 382 452 382 363 c 2
 382 293 l 2
 382 204 379 183 376 174 c 0
 372 162 361 148 332 148 c 2
332 171 m 1
 332 171 l 2
 349 171 352 178 353 181 c 0
 355 187 358 210 358 293 c 2
 358 363 l 2
 358 446 355 469 353 475 c 0
 352 478 350 485 332 485 c 2
 331 485 l 2
 314 485 311 478 310 475 c 0
 308 469 305 446 305 363 c 2
 305 293 l 2
 305 210 308 187 310 181 c 0
 311 178 313 171 331 171 c 2
 332 171 l 1
712 371 m 1
 613 371 l 1
 613 509 l 1xffb8
 663 509 l 2
 692 509 703 494 707 482 c 0
 708 480 710 475 712 383 c 2
 712 371 l 1
636 395 m 1
 688 395 l 2
 687 433 685 471 684 476 c 0
 683 478 681 485 663 485 c 2
 636 485 l 1
 636 395 l 1
EndSplineSet
Validated: 37
EndChar

StartChar: backslash
Encoding: 92 92 121
Width: 530
VWidth: 0
Flags: HW
HStem: 0 23<235 475> 781 23<43 283>
LayerCount: 2
Fore
SplineSet
505 0 m 5
 217 0 l 5
 13 804 l 5
 301 804 l 5
 505 0 l 5
235 23 m 5
 475 23 l 5
 283 781 l 5
 43 781 l 5
 235 23 l 5
EndSplineSet
Validated: 1
EndChar

StartChar: bar
Encoding: 124 124 122
Width: 336
VWidth: 0
Flags: HW
HStem: -226 23<46 291> 776 23<46 291>
VStem: 23 23<-203 776> 291 23<-203 776>
LayerCount: 2
Fore
SplineSet
314 -226 m 1
 23 -226 l 1
 23 799 l 1
 314 799 l 1
 314 -226 l 1
46 -203 m 1
 291 -203 l 1
 291 776 l 1
 46 776 l 1
 46 -203 l 1
EndSplineSet
Validated: 1
EndChar

StartChar: Oslash
Encoding: 216 216 123
Width: 654
VWidth: 0
Flags: HW
HStem: -138 23<75 133> 0 23<208 516> 151 23<304 347> 632 23<324 347> 782 23<135 443> 921 23<518 576>
VStem: 15 23<126 679> 274 23<465 628> 353 23<177 341 587 628> 608 23<115 691>
LayerCount: 2
Fore
SplineSet
149 -138 m 5
 40 -138 l 5
 108 21 l 6
 107 21 106 22 105 22 c 4
 77 37 57 56 44 81 c 4
 31 105 23 130 20 156 c 4
 17 179 15 223 15 286 c 6
 15 520 l 6
 15 583 17 626 20 649 c 4
 23 675 31 700 44 724 c 4
 57 749 77 769 105 784 c 4
 132 799 167 806 208 806 c 6
 443 806 l 6
 443 806 l 6
 502 944 l 5
 611 944 l 5
 543 785 l 6
 544 785 544 784 545 784 c 4
 573 769 594 749 607 724 c 4
 620 700 628 675 631 649 c 4
 634 626 636 300 636 286 c 4
 636 281 634 179 631 156 c 4
 628 130 620 105 607 81 c 4
 594 56 573 37 545 22 c 4
 518 7 484 0 443 0 c 6
 208 0 l 6
 208 0 l 6
 149 -138 l 5
75 -115 m 5
 133 -115 l 5
 193 24 l 5
 203 23 l 6
 205 23 206 23 208 23 c 6
 443 23 l 6
 480 23 511 29 535 42 c 4
 559 55 576 72 587 92 c 4
 598 113 605 136 608 159 c 4
 611 181 612 285 612 286 c 4
 612 380 610 629 608 647 c 4
 605 670 598 692 587 713 c 4
 576 733 559 750 535 763 c 4
 531 765 528 766 524 768 c 6
 513 773 l 5
 576 921 l 5
 518 921 l 5
 458 782 l 5
 448 782 l 6
 446 782 445 782 443 782 c 6
 208 782 l 6
 171 782 140 776 116 763 c 4
 93 750 75 734 64 713 c 4
 53 692 46 670 43 647 c 4
 40 625 39 581 39 519 c 6
 39 286 l 6
 39 224 40 181 43 159 c 4
 46 136 53 113 64 92 c 4
 75 72 93 55 116 42 c 4
 120 40 123 39 127 37 c 6
 138 33 l 5
 75 -115 l 5
326 151 m 6
 325 151 l 6
 296 151 285 165 281 177 c 4
 280 181 277 190 276 216 c 6
 276 219 l 5
 377 454 l 5
 377 299 l 6
 377 208 373 186 370 177 c 4
 366 165 355 151 326 151 c 6
325 174 m 5
 327 174 l 6
 345 174 347 182 348 185 c 4
 350 191 353 214 353 299 c 6
 353 341 l 5
 299 215 l 6
 300 195 302 188 303 185 c 4
 304 182 306 174 325 174 c 6
 325 174 l 5
274 351 m 5
 274 507 l 6
 274 598 278 619 281 628 c 4
 285 640 296 655 325 655 c 6
 326 655 l 6
 355 655 366 640 370 628 c 4
 371 624 374 615 375 589 c 6
 375 587 l 5
 274 351 l 5
324 632 m 5
 325 632 l 6
 306 632 304 624 303 621 c 4
 301 615 298 592 298 507 c 6
 298 465 l 5
 351 591 l 6
 350 611 349 618 348 621 c 4
 347 624 345 632 326 632 c 6
 324 632 l 5
EndSplineSet
Validated: 5
EndChar

StartChar: oslash
Encoding: 248 248 124
Width: 641
VWidth: 0
Flags: HW
HStem: -142 24<99 159> 0 24<236 509> 148 24<310 342> 485 24<299 331> 632 24<132 405> 774 24<481 541>
VStem: 21 24<111 545> 270 24<397 475> 347 24<182 259> 596 24<111 545>
LayerCount: 2
Fore
SplineSet
175 -142 m 5
 63 -142 l 5
 129 11 l 6
 120 14 112 17 105 21 c 4
 78 35 57 56 44 80 c 4
 31 103 24 128 21 153 c 4
 19 173 19 483 21 503 c 4
 24 528 31 553 44 576 c 4
 57 600 78 621 105 635 c 4
 132 649 165 656 205 656 c 6
 405 656 l 5
 465 798 l 5
 577 798 l 5
 512 645 l 6
 521 642 529 639 536 635 c 4
 563 621 583 600 596 576 c 4
 609 553 617 528 620 503 c 4
 622 483 622 173 620 153 c 4
 617 128 609 103 596 80 c 4
 583 56 563 36 536 22 c 4
 509 8 475 0 435 0 c 6
 236 0 l 5
 175 -142 l 5
99 -118 m 5
 159 -118 l 5
 220 24 l 5
 435 24 l 6
 471 24 502 31 525 43 c 4
 548 55 564 71 575 91 c 4
 586 112 593 134 596 156 c 4
 598 174 598 482 596 500 c 4
 593 522 586 544 575 565 c 4
 564 585 548 602 525 614 c 4
 516 619 505 623 493 626 c 6
 479 629 l 5
 541 774 l 5
 481 774 l 5
 420 632 l 5
 205 632 l 6
 169 632 139 626 116 614 c 4
 93 602 76 585 65 565 c 4
 54 544 47 522 44 500 c 4
 42 482 42 174 44 156 c 4
 47 134 54 112 65 91 c 4
 76 71 93 55 116 43 c 4
 125 38 136 33 148 30 c 6
 161 27 l 5
 99 -118 l 5
320 148 m 6
 320 148 l 6
 306 148 294 151 286 158 c 6
 280 164 l 5
 371 376 l 5
 371 293 l 6
 371 204 367 183 364 174 c 4
 360 162 349 148 320 148 c 6
320 171 m 5
 321 171 l 6
 338 171 341 178 342 181 c 4
 344 186 346 203 347 259 c 6
 310 172 l 6
 313 171 316 171 319 171 c 6
 320 171 l 5
270 280 m 5
 270 363 l 6
 270 452 273 473 276 482 c 4
 280 494 291 509 320 509 c 6
 321 509 l 6
 335 509 346 505 354 498 c 6
 360 492 l 5
 270 280 l 5
319 485 m 6
 302 485 300 478 299 475 c 4
 297 470 295 453 294 397 c 6
 331 484 l 6
 328 485 324 485 321 485 c 6
 320 485 l 5
 319 485 l 6
EndSplineSet
Validated: 37
EndChar

StartChar: bullet
Encoding: 149 8226 125
Width: 469
VWidth: 0
Flags: HW
HStem: 217 24<165 298> 633 24<165 298>
VStem: 12 24<370 503> 428 24<370 503>
LayerCount: 2
Fore
SplineSet
232 217 m 0
 111 217 12 316 12 437 c 0
 12 558 111 656 232 656 c 0
 353 656 451 558 451 437 c 0
 451 316 353 217 232 217 c 0
232 633 m 0
 124 633 36 545 36 437 c 0
 36 329 124 241 232 241 c 0
 340 241 428 329 428 437 c 0
 428 545 340 633 232 633 c 0
EndSplineSet
Validated: 1
EndChar

StartChar: guillemotleft
Encoding: 171 171 126
Width: 1083
VWidth: 0
Flags: HW
HStem: 0 21G<614 645> 0 21G<614 645>
VStem: 619 25<47 154 651 759> 1031 25<47 154 651 759>
LayerCount: 2
Fore
SplineSet
645 0 m 1xb0
 30 403 l 1
 645 806 l 1
 645 638 l 1
 293 403 l 1
 645 168 l 1
 645 0 l 1xb0
76 403 m 1
 619 47 l 1
 619 154 l 1
 247 403 l 1
 619 651 l 1
 619 759 l 1
 76 403 l 1
1056 0 m 1x70
 441 403 l 1
 1056 806 l 1
 1056 638 l 1
 704 403 l 1
 1056 168 l 1
 1056 0 l 1
 1056 0 l 1x70
487 403 m 1
 1031 47 l 1
 1031 154 l 1
 658 403 l 1
 1031 651 l 1
 1031 759 l 1
 487 403 l 1
EndSplineSet
Validated: 5
EndChar

StartChar: guillemotright
Encoding: 187 187 127
Width: 1092
VWidth: 0
Flags: HW
VStem: 30 25<47 154 651 759> 442 25<47 154 651 759>
LayerCount: 2
Fore
SplineSet
442 168 m 1
 794 403 l 1
 442 638 l 1
 442 806 l 1
 1056 403 l 1
 442 0 l 1
 442 168 l 1
467 759 m 1
 467 651 l 1
 839 403 l 1
 467 154 l 1
 467 47 l 1
 1010 403 l 1
 467 759 l 1
30 168 m 1
 382 403 l 1
 30 638 l 1
 30 806 l 1
 645 403 l 1
 30 0 l 1
 30 168 l 1
56 759 m 1
 56 651 l 1
 428 403 l 1
 56 154 l 1
 56 47 l 1
 599 403 l 1
 56 759 l 1
EndSplineSet
Validated: 1
EndChar

StartChar: mu
Encoding: 181 181 128
Width: 639
VWidth: 0
Flags: HW
HStem: -223 24<39 269> 0 24<477 601> 30 24<293 413> 177 24<293 341> 632 24<39 269 370 601>
VStem: 15 24<-199 632> 269 24<-199 30 201 632> 347 24<211 632> 453 24<24 59> 601 24<24 632>
LayerCount: 2
Fore
SplineSet
293 -223 m 1
 15 -223 l 1
 15 656 l 1
 293 656 l 1
 293 201 l 1
 320 201 l 2
 338 201 340 208 341 211 c 0
 343 217 347 240 347 323 c 2
 347 656 l 1
 624 656 l 1
 624 0 l 1
 453 0 l 1
 453 59 l 2
 449 56 444 53 440 51 c 0
 413 37 379 30 339 30 c 2
 293 30 l 1
 293 -223 l 1
 293 -223 l 1
39 -199 m 1
 269 -199 l 1
 269 53 l 1
 339 53 l 2
 375 53 406 60 429 72 c 0
 439 78 449 85 457 92 c 2
 477 110 l 1
 477 24 l 1
 601 24 l 1
 601 632 l 1
 370 632 l 1
 370 323 l 2
 370 234 367 213 364 204 c 0
 360 192 349 177 320 177 c 2
 269 177 l 1
 269 632 l 1
 39 632 l 1
 39 -199 l 1
EndSplineSet
Validated: 5
EndChar

StartChar: guilsinglleft
Encoding: 139 8249 129
Width: 648
VWidth: 0
Flags: HW
HStem: 0 21G<572 621> 0 21G<572 621> 635 20G<572 621>
VStem: 19 24<261 395> 597 24<36 160 496 619>
LayerCount: 2
Fore
SplineSet
621 0 m 1xb8
 19 244 l 1
 19 410 l 1
 26 414 l 1
 621 655 l 1
 621 479 l 1
 247 328 l 1
 621 176 l 1
 621 0 l 1xb8
43 261 m 1
 597 36 l 1
 597 160 l 1
 183 328 l 1
 597 496 l 1
 597 619 l 1
 43 395 l 1
 43 261 l 1
EndSplineSet
Validated: 1
EndChar

StartChar: guilsinglright
Encoding: 155 8250 130
Width: 668
VWidth: 0
Flags: HW
HStem: 0 21G<32 81> 0 21G<32 81> 635 20G<32 81>
VStem: 32 24<36 160 496 619> 611 24<261 395>
LayerCount: 2
Fore
SplineSet
32 176 m 1xb8
 406 328 l 1
 32 479 l 1
 32 655 l 1
 627 414 l 1
 635 410 l 1
 635 244 l 1
 32 0 l 1
 32 176 l 1xb8
611 395 m 1
 56 619 l 1
 56 496 l 1
 471 328 l 1
 56 160 l 1
 56 36 l 1
 611 261 l 1
 611 395 l 1
EndSplineSet
Validated: 1
EndChar

StartChar: quotedblright
Encoding: 148 8221 131
Width: 442
VWidth: 0
Flags: HW
HStem: 549 24<37 162 238 362> 775 24<77 202 278 403>
LayerCount: 2
Fore
SplineSet
258 799 m 1
 432 799 l 1
 382 549 l 1
 209 549 l 1
 258 799 l 1
403 775 m 1
 278 775 l 1
 238 573 l 1
 362 573 l 1
 403 775 l 1
58 799 m 1
 231 799 l 1
 181 549 l 1
 8 549 l 1
 58 799 l 1
202 775 m 1
 77 775 l 1
 37 573 l 1
 162 573 l 1
 202 775 l 1
EndSplineSet
Validated: 1
EndChar

StartChar: quoteright
Encoding: 146 8217 132
Width: 250
VWidth: 0
Flags: HW
HStem: 549 24<46 171> 775 24<86 211>
VStem: 17 223
LayerCount: 2
Fore
SplineSet
67 799 m 1
 240 799 l 1
 190 549 l 1
 17 549 l 1
 67 799 l 1
211 775 m 1
 86 775 l 1
 46 573 l 1
 171 573 l 1
 211 775 l 1
EndSplineSet
Validated: 1
EndChar

StartChar: quoteleft
Encoding: 145 8216 133
Width: 248
VWidth: 0
Flags: HW
HStem: 549 24<82 207> 775 24<42 167>
VStem: 13 223
LayerCount: 2
Fore
SplineSet
236 549 m 1
 63 549 l 1
 13 799 l 1
 186 799 l 1
 236 549 l 1
82 573 m 1
 207 573 l 1
 167 775 l 1
 42 775 l 1
 82 573 l 1
EndSplineSet
Validated: 1
EndChar

StartChar: ellipsis
Encoding: 133 8230 134
Width: 630
VWidth: 0
Flags: HW
HStem: 0 24<45 170 253 378 461 586> 149 24<45 170 253 378 461 586>
VStem: 21 24<24 149> 170 24<24 149> 229 24<24 149> 378 24<24 149> 437 24<24 149> 586 24<24 149>
LayerCount: 2
Fore
SplineSet
194 0 m 1
 21 0 l 1
 21 173 l 1
 194 173 l 1
 194 0 l 1
45 24 m 1
 170 24 l 1
 170 149 l 1
 45 149 l 1
 45 24 l 1
402 0 m 1
 229 0 l 1
 229 173 l 1
 402 173 l 1
 402 0 l 1
 402 0 l 1
253 24 m 1
 378 24 l 1
 378 149 l 1
 253 149 l 1
 253 24 l 1
610 0 m 1
 437 0 l 1
 437 173 l 1
 610 173 l 1
 610 0 l 1
 610 0 l 1
461 24 m 1
 586 24 l 1
 586 149 l 1
 461 149 l 1
 461 24 l 1
EndSplineSet
Validated: 5
EndChar

StartChar: quotesingle
Encoding: 39 39 135
Width: 196
VWidth: 0
Flags: HW
HStem: 550 24<35 89> 775 24<35 155>
VStem: 11 24<573 775>
LayerCount: 2
Fore
SplineSet
106 549 m 1
 11 550 l 1
 11 799 l 1
 188 799 l 1
 106 549 l 1
35 573 m 1
 89 573 l 1
 155 775 l 1
 35 775 l 1
 35 573 l 1
EndSplineSet
Validated: 1
EndChar

StartChar: comma
Encoding: 44 44 136
Width: 196
VWidth: 0
Flags: HW
HStem: -76 24<37 91> 149 24<37 157>
VStem: 13 24<-53 149>
LayerCount: 2
Fore
SplineSet
108 -77 m 1
 13 -76 l 1
 13 173 l 1
 190 173 l 1
 108 -77 l 1
37 -53 m 1
 91 -53 l 1
 157 149 l 1
 37 149 l 1
 37 -53 l 1
EndSplineSet
Validated: 1
EndChar

StartChar: period
Encoding: 46 46 137
Width: 201
VWidth: 0
Flags: HW
HStem: 0 24<39 164> 149 24<39 164>
VStem: 15 24<24 149> 164 24<24 149>
LayerCount: 2
Fore
SplineSet
188 0 m 1
 15 0 l 1
 15 173 l 1
 188 173 l 1
 188 0 l 1
 188 0 l 1
39 24 m 1
 164 24 l 1
 164 149 l 1
 39 149 l 1
 39 24 l 1
EndSplineSet
Validated: 5
EndChar

StartChar: colon
Encoding: 58 58 138
Width: 203
VWidth: 0
Flags: HW
HStem: 0 24<37 162> 149 24<37 162> 227 24<37 162> 375 24<37 162>
VStem: 13 24<24 149 250 375> 162 24<24 149 250 375>
LayerCount: 2
Fore
SplineSet
186 0 m 1
 13 0 l 1
 13 173 l 1
 186 173 l 1
 186 0 l 1
37 24 m 1
 162 24 l 1
 162 149 l 1
 37 149 l 1
 37 24 l 1
186 227 m 1
 13 227 l 1
 13 399 l 1
 186 399 l 1
 186 227 l 1
37 250 m 1
 162 250 l 1
 162 375 l 1
 37 375 l 1
 37 250 l 1
EndSplineSet
Validated: 1
EndChar

StartChar: semicolon
Encoding: 59 59 139
Width: 196
VWidth: 0
Flags: HW
HStem: -76 24<37 91> 149 24<37 157> 227 24<37 162> 376 24<37 162>
VStem: 13 24<-53 149 251 376> 162 24<251 376>
LayerCount: 2
Fore
SplineSet
108 -77 m 1
 13 -76 l 1
 13 173 l 1
 190 173 l 1
 108 -77 l 1
37 -53 m 1
 91 -53 l 1
 157 149 l 1
 37 149 l 1
 37 -53 l 1
186 227 m 1
 13 227 l 1
 13 400 l 1
 186 400 l 1
 186 227 l 1
37 251 m 1
 162 251 l 1
 162 376 l 1
 37 376 l 1
 37 251 l 1
EndSplineSet
Validated: 1
EndChar

StartChar: quotedbl
Encoding: 34 34 140
Width: 364
VWidth: 0
Flags: HW
HStem: 549 24<60 128 231 300> 775 24<33 155 205 326>
LayerCount: 2
Fore
SplineSet
6 799 m 1
 354 799 l 1
 321 549 l 1
 210 549 l 1
 180 782 l 1
 149 549 l 1
 39 549 l 1
 6 799 l 1
128 573 m 1
 155 775 l 1
 33 775 l 1
 60 573 l 1
 128 573 l 1
300 573 m 1
 326 775 l 1
 205 775 l 1
 231 573 l 1
 300 573 l 1
EndSplineSet
Validated: 1
EndChar

StartChar: hyphen
Encoding: 45 45 141
Width: 299
VWidth: 0
Flags: HW
HStem: 244 20<35 266> 368 20<35 266>
VStem: 15 20<264 368> 266 20<264 368>
LayerCount: 2
Fore
SplineSet
286 244 m 1
 15 244 l 1
 15 388 l 1
 286 388 l 1
 286 244 l 1
35 264 m 1
 266 264 l 1
 266 368 l 1
 35 368 l 1
 35 264 l 1
EndSplineSet
Validated: 1
EndChar

StartChar: fraction
Encoding: 258 8260 142
Width: 540
VWidth: 0
Flags: HW
HStem: 0 23<49 289> 781 23<241 481>
LayerCount: 2
Fore
SplineSet
223 804 m 1
 511 804 l 1
 307 0 l 1
 19 0 l 1
 223 804 l 1
481 781 m 1
 241 781 l 1
 49 23 l 1
 289 23 l 1
 481 781 l 1
EndSplineSet
Validated: 1
EndChar

StartChar: quotesinglbase
Encoding: 130 8218 143
Width: 196
VWidth: 0
Flags: HW
HStem: -76 24<37 91> 149 24<37 157>
VStem: 13 24<-53 149>
LayerCount: 2
Fore
SplineSet
108 -77 m 1
 13 -76 l 1
 13 173 l 1
 190 173 l 1
 108 -77 l 1
37 -53 m 1
 91 -53 l 1
 157 149 l 1
 37 149 l 1
 37 -53 l 1
EndSplineSet
Validated: 1
EndChar

StartChar: grave
Encoding: 96 96 144
Width: 382
VWidth: 0
Flags: HW
HStem: 620 179
VStem: 12 24<687 769> 345 24<647 698>
LayerCount: 2
Fore
SplineSet
369 620 m 1
 12 666 l 1
 12 799 l 1
 369 717 l 1
 369 620 l 1
36 687 m 1
 345 647 l 1
 345 698 l 1
 36 769 l 1
 36 687 l 1
EndSplineSet
Validated: 1
EndChar

StartChar: acute
Encoding: 180 180 145
Width: 375
VWidth: 0
Flags: HW
HStem: 620 179
VStem: 10 24<647 698> 343 24<687 769>
LayerCount: 2
Fore
SplineSet
10 717 m 1
 367 799 l 1
 367 666 l 1
 10 620 l 1
 10 717 l 1
343 769 m 1
 34 698 l 1
 34 647 l 1
 343 687 l 1
 343 769 l 1
EndSplineSet
Validated: 1
EndChar

StartChar: quotedblbase
Encoding: 132 8222 146
Width: 442
VWidth: 0
Flags: HW
HStem: -78 24<37 162 238 362> 149 24<77 202 278 403>
LayerCount: 2
Fore
SplineSet
258 173 m 1
 432 173 l 1
 382 -78 l 1
 209 -78 l 1
 258 173 l 1
403 149 m 1
 278 149 l 1
 238 -54 l 1
 362 -54 l 1
 403 149 l 1
58 173 m 1
 231 173 l 1
 181 -78 l 1
 8 -78 l 1
 58 173 l 1
202 149 m 1
 77 149 l 1
 37 -54 l 1
 162 -54 l 1
 202 149 l 1
EndSplineSet
Validated: 1
EndChar

StartChar: dieresis
Encoding: 168 168 147
Width: 418
VWidth: 0
Flags: HW
HStem: 625 24<40 167 254 381> 775 24<40 167 254 381>
VStem: 16 24<648 775> 167 24<648 775> 230 24<648 775> 381 24<648 775>
LayerCount: 2
Fore
SplineSet
191 625 m 1
 16 625 l 1
 16 799 l 1
 191 799 l 1
 191 625 l 1
40 648 m 1
 167 648 l 1
 167 775 l 1
 40 775 l 1
 40 648 l 1
405 625 m 1
 230 625 l 1
 230 799 l 1
 405 799 l 1
 405 625 l 1
254 648 m 1
 381 648 l 1
 381 775 l 1
 254 775 l 1
 254 648 l 1
EndSplineSet
Validated: 1
EndChar

StartChar: ring
Encoding: 259 730 148
Width: 380
VWidth: 0
Flags: HW
HStem: 438 24<132 247> 514 24<149 231> 699 24<149 231> 775 24<132 247>
VStem: 9 24<561 676> 86 24<578 660> 270 24<578 660> 347 24<561 676>
LayerCount: 2
Fore
SplineSet
190 438 m 0
 90 438 9 519 9 619 c 0
 9 719 90 799 190 799 c 0
 290 799 370 719 370 619 c 0
 370 519 290 438 190 438 c 0
190 775 m 0
 104 775 33 705 33 619 c 0
 33 533 104 462 190 462 c 0
 276 462 347 533 347 619 c 0
 347 705 276 775 190 775 c 0
190 514 m 0
 132 514 86 561 86 619 c 0
 86 677 132 723 190 723 c 0
 248 723 294 677 294 619 c 0
 294 561 248 514 190 514 c 0
190 699 m 0
 146 699 109 663 109 619 c 0
 109 575 146 538 190 538 c 0
 234 538 270 575 270 619 c 0
 270 663 234 699 190 699 c 0
EndSplineSet
Validated: 1
EndChar

StartChar: tilde
Encoding: 152 732 149
Width: 318
VWidth: 0
Flags: HW
HStem: 633 20<169 287> 659 20<51 150> 731 20<177 272> 759 20<55 151>
VStem: 10 20<662 742> 288 20<661 747>
LayerCount: 2
Fore
SplineSet
10 622 m 1
 10 744 l 1
 13 746 l 2
 14 747 47 779 101 779 c 0
 121 779 142 775 163 766 c 0
 187 756 209 751 229 751 c 0
 272 751 289 774 290 775 c 2
 308 799 l 1
 308 650 l 1
 302 647 l 2
 301 646 269 633 226 633 c 0
 201 633 177 638 155 647 c 0
 137 655 118 659 100 659 c 0
 55 659 26 636 26 636 c 2
 10 622 l 1
100 679 m 0
 121 679 142 675 163 666 c 0
 182 658 203 653 226 653 c 0
 254 653 277 659 288 663 c 2
 288 747 l 2
 276 739 256 731 229 731 c 0
 206 731 182 737 155 748 c 0
 137 756 119 759 101 759 c 0
 63 759 38 742 30 735 c 2
 30 662 l 2
 45 670 69 679 100 679 c 0
EndSplineSet
Validated: 1
EndChar

StartChar: circumflex
Encoding: 136 710 150
Width: 364
VWidth: 0
Flags: HW
HStem: 651 148
VStem: 18 20<677 741> 322 20<677 741>
LayerCount: 2
Fore
SplineSet
18 651 m 1
 18 756 l 1
 179 799 l 1
 342 756 l 1
 342 651 l 1
 179 694 l 1
 18 651 l 1
179 715 m 1
 322 677 l 1
 322 741 l 1
 179 779 l 1
 38 741 l 1
 38 677 l 1
 179 715 l 1
EndSplineSet
Validated: 1
EndChar

StartChar: endash
Encoding: 150 8211 151
Width: 657
VWidth: 0
Flags: HW
HStem: 207 24<35 621> 366 24<35 621>
VStem: 11 24<231 366> 621 24<231 366>
LayerCount: 2
Fore
SplineSet
645 207 m 1
 11 207 l 1
 11 390 l 1
 645 390 l 1
 645 207 l 1
35 231 m 1
 621 231 l 1
 621 366 l 1
 35 366 l 1
 35 231 l 1
EndSplineSet
Validated: 1
EndChar

StartChar: emdash
Encoding: 151 8212 152
Width: 827
VWidth: 0
Flags: HW
HStem: 207 24<37 791> 366 24<37 791>
VStem: 13 24<231 366> 791 24<231 366>
LayerCount: 2
Fore
SplineSet
815 207 m 1
 13 207 l 1
 13 390 l 1
 815 390 l 1
 815 207 l 1
37 231 m 1
 791 231 l 1
 791 366 l 1
 37 366 l 1
 37 231 l 1
EndSplineSet
Validated: 1
EndChar

StartChar: dotaccent
Encoding: 260 729 153
Width: 213
VWidth: 0
Flags: HW
HStem: 604 17<71 141> 783 17<71 141>
VStem: 8 17<666 737> 187 17<666 737>
LayerCount: 2
Fore
SplineSet
106 604 m 0
 52 604 8 648 8 702 c 0
 8 756 52 799 106 799 c 0
 160 799 203 756 203 702 c 0
 203 648 160 604 106 604 c 0
106 783 m 0
 61 783 25 747 25 702 c 0
 25 657 61 621 106 621 c 0
 151 621 187 657 187 702 c 0
 187 747 151 783 106 783 c 0
EndSplineSet
Validated: 1
EndChar

StartChar: macron
Encoding: 175 175 154
Width: 313
VWidth: 0
Flags: HW
HStem: 655 20<41 272> 779 20<41 272>
VStem: 21 20<675 779> 272 20<675 779>
LayerCount: 2
Fore
SplineSet
292 655 m 1
 21 655 l 1
 21 799 l 1
 292 799 l 1
 292 655 l 1
41 675 m 1
 272 675 l 1
 272 779 l 1
 41 779 l 1
 41 675 l 1
EndSplineSet
Validated: 1
EndChar

StartChar: dotlessi
Encoding: 261 305 155
Width: 319
VWidth: 0
Flags: HW
HStem: 0 23<40 283> 579 23<40 283>
VStem: 16 23<23 579> 283 23<23 579>
LayerCount: 2
Fore
SplineSet
307 0 m 5
 16 0 l 5
 16 603 l 5
 307 603 l 5
 307 0 l 5
40 23 m 5
 283 23 l 5
 283 579 l 5
 40 579 l 5
 40 23 l 5
EndSplineSet
Validated: 1
EndChar

StartChar: approxequal
Encoding: 262 8776 156
Width: 381
VWidth: 0
Flags: HW
HStem: 324 24<205 346> 355 24<63 182> 436 24<230 347> 475 24<68 183> 489 24<205 346> 520 24<64 182> 601 24<230 347> 635 20G<351 371> 640 24<68 183>
VStem: 14 24<358 454 523 619> 347 24<357 444 522 609>
LayerCount: 2
Fore
SplineSet
14 476 m 1xef60
 14 621 l 1
 18 625 l 2
 20 627 58 664 123 664 c 0xeee0
 147 664 172 658 197 648 c 0
 235 632 269 625 298 625 c 0
 335 625 351 638 351 638 c 2
 371 655 l 1
 371 629 l 1
 371 509 l 1
 364 506 l 2
 362 505 324 489 273 489 c 0
 243 489 214 495 188 506 c 0
 166 515 143 520 121 520 c 0
 68 520 33 492 33 492 c 2
 14 476 l 1xef60
121 544 m 0
 146 544 172 539 197 528 c 0
 220 518 246 513 273 513 c 0
 307 513 334 521 347 525 c 2
 347 609 l 2
 336 605 320 601 298 601 c 0
 266 601 229 609 188 626 c 0
 166 635 144 640 123 640 c 0
 78 640 48 619 38 611 c 2
 38 523 l 2
 56 533 84 544 121 544 c 0
14 311 m 1
 14 456 l 1
 18 460 l 2
 20 462 58 499 123 499 c 0xf660
 147 499 172 493 197 483 c 0
 235 467 269 460 298 460 c 0
 335 460 351 473 351 473 c 2
 371 490 l 1
 371 464 l 1
 371 344 l 1
 364 341 l 2
 362 340 324 324 273 324 c 0
 243 324 214 330 188 341 c 0
 166 350 143 355 121 355 c 0
 68 355 34 327 34 327 c 2
 14 311 l 1
121 379 m 0
 146 379 172 374 197 363 c 0
 220 353 246 348 273 348 c 0
 307 348 334 356 347 360 c 2
 347 444 l 2
 336 440 320 436 298 436 c 0
 266 436 229 444 188 461 c 0
 166 470 144 475 123 475 c 0
 78 475 48 454 38 446 c 2
 38 358 l 2
 56 368 84 379 121 379 c 0
EndSplineSet
Validated: 1
EndChar

StartChar: notequal
Encoding: 263 8800 157
Width: 515
VWidth: 0
Flags: HW
HStem: 94 24<49 102> 256 24<41 95 203 470> 405 24<41 187 295 470> 482 24<41 216 323 470> 631 24<41 308 415 470> 792 24<408 462>
VStem: 17 24<280 405 506 631> 470 24<280 405 506 631>
LayerCount: 2
Fore
SplineSet
117 94 m 5
 9 94 l 5
 95 256 l 5
 17 256 l 5
 17 428 l 5
 187 428 l 5
 216 482 l 5
 17 482 l 5
 17 655 l 5
 308 655 l 5
 394 816 l 5
 501 816 l 5
 415 655 l 5
 494 655 l 5
 494 482 l 5
 323 482 l 5
 295 428 l 5
 494 428 l 5
 494 256 l 5
 203 256 l 5
 117 94 l 5
49 118 m 5
 102 118 l 5
 188 280 l 5
 470 280 l 5
 470 405 l 5
 255 405 l 5
 309 506 l 5
 470 506 l 5
 470 631 l 5
 376 631 l 5
 462 792 l 5
 408 792 l 5
 322 631 l 5
 41 631 l 5
 41 506 l 5
 256 506 l 5
 202 405 l 5
 41 405 l 5
 41 280 l 5
 135 280 l 5
 49 118 l 5
EndSplineSet
Validated: 1
EndChar

StartChar: lessequal
Encoding: 264 8804 158
Width: 614
VWidth: 0
Flags: HW
HStem: 0 21<41 569> 143 21<41 569> 783 20G<541 590>
VStem: 20 21<21 143 429 556> 568 23<21 143 216 334 652 769>
LayerCount: 2
Fore
SplineSet
590 0 m 1
 20 0 l 1
 20 164 l 1
 590 164 l 1
 590 0 l 1
41 21 m 1
 569 21 l 1
 569 143 l 1
 41 143 l 1
 41 21 l 1
590 182 m 1
 20 414 l 1
 20 571 l 1
 27 574 l 1
 590 803 l 1
 590 636 l 1
 236 493 l 1
 590 349 l 1
 590 182 l 1
 590 182 l 1
42 429 m 1
 568 216 l 1
 568 334 l 1
 175 493 l 1
 568 652 l 1
 568 769 l 1
 42 556 l 1
 42 429 l 1
EndSplineSet
Validated: 5
EndChar

StartChar: greaterequal
Encoding: 265 8805 159
Width: 613
VWidth: 0
Flags: HW
HStem: 0 21<44 572> 143 21<44 572> 783 20G<23 72>
VStem: 23 23<21 143 216 334 652 769> 572 21<21 143 429 556>
LayerCount: 2
Fore
SplineSet
23 164 m 1
 593 164 l 1
 593 0 l 1
 23 0 l 1
 23 164 l 1
572 143 m 1
 44 143 l 1
 44 21 l 1
 572 21 l 1
 572 143 l 1
23 349 m 1
 377 493 l 1
 23 636 l 1
 23 803 l 1
 586 574 l 1
 593 571 l 1
 593 414 l 1
 23 182 l 1
 23 349 l 1
571 556 m 1
 45 769 l 1
 45 652 l 1
 438 493 l 1
 45 334 l 1
 45 216 l 1
 571 429 l 1
 571 556 l 1
EndSplineSet
Validated: 1
EndChar

StartChar: atilde
Encoding: 227 227 160
Width: 650
VWidth: 0
Flags: HW
HStem: 0 23<136 607> 148 23<303 345> 269 23<304 346> 417 23<136 346> 486 23<120 332> 634 23<120 516> 677 23<338 475> 707 23<201 316> 790 23<347 457> 823 23<205 317>
VStem: 22 23<121 319> 97 23<509 634> 153 23<709 802> 276 23<173 267> 346 23<171 269 440 483> 476 23<708 809> 607 23<23 536>
LayerCount: 2
Fore
SplineSet
630 0 m 1
 210 0 l 2
 170 0 136 7 109 21 c 0
 82 35 62 56 49 80 c 0
 36 103 28 128 25 153 c 0
 24 164 23 196 22 220 c 0
 23 256 24 278 25 287 c 0
 28 312 36 337 49 360 c 0
 62 384 82 404 109 418 c 0
 136 432 170 440 210 440 c 2
 346 440 l 1
 346 469 l 2
 346 475 342 483 329 485 c 0
 317 485 110 486 108 486 c 2
 97 486 l 1
 97 657 l 1
 442 657 l 2
 483 657 516 649 543 635 c 0
 570 621 590 601 603 577 c 0
 616 554 624 528 627 503 c 0
 628 494 629 472 630 437 c 2
 630 0 l 1
210 417 m 2
 174 417 143 410 120 398 c 0
 97 386 80 369 69 349 c 0
 58 328 51 306 48 284 c 0
 47 276 46 254 45 220 c 0
 46 187 47 164 48 156 c 0
 51 134 58 112 69 91 c 0
 80 71 97 54 120 42 c 0
 143 30 174 23 210 23 c 2
 607 23 l 1
 607 437 l 2
 606 470 605 493 604 501 c 0
 601 524 594 545 583 566 c 0
 572 586 555 603 532 615 c 0
 509 627 478 634 442 634 c 2
 120 634 l 1
 120 509 l 1
 165 509 329 509 330 509 c 2
 332 508 l 2
 358 504 368 486 369 470 c 2
 369 417 l 1
 210 417 l 1
 210 417 l 2
327 148 m 2
 325 148 l 2
 296 148 285 162 281 174 c 0
 279 179 277 188 276 219 c 2
 276 220 l 1
 276 220 l 2
 277 251 279 261 281 266 c 0
 285 278 296 292 325 292 c 2
 369 292 l 1
 369 170 l 1
 367 168 l 2
 362 159 352 148 327 148 c 2
299 220 m 0
 300 193 302 184 303 181 c 0
 304 178 307 171 325 171 c 2
 327 171 l 2
 339 171 344 175 346 177 c 2
 346 269 l 1
 325 269 l 2
 307 269 304 262 303 259 c 0
 302 256 300 247 299 220 c 0
153 664 m 1
 153 804 l 1
 157 808 l 2
 159 810 196 846 259 846 c 0
 282 846 306 841 330 831 c 0
 358 819 384 813 407 813 c 0
 456 813 477 840 478 841 c 2
 499 869 l 1
 499 696 l 1
 492 693 l 2
 490 692 453 677 403 677 c 0
 374 677 346 682 321 693 c 0
 300 702 278 707 257 707 c 0
 205 707 172 679 172 679 c 2
 153 664 l 1
257 730 m 0
 281 730 306 724 330 714 c 0
 352 705 377 700 403 700 c 0
 436 700 464 707 476 711 c 2
 476 809 l 2
 462 800 439 790 407 790 c 0
 381 790 353 796 322 809 c 0
 301 818 279 823 259 823 c 0
 215 823 186 802 176 794 c 2
 176 709 l 2
 193 718 221 730 257 730 c 0
EndSplineSet
Validated: 5
EndChar

StartChar: aacute
Encoding: 225 225 161
Width: 648
VWidth: 0
Flags: HW
HStem: 0 23<130 601> 148 23<297 339> 269 23<298 340> 417 23<130 340> 486 23<114 326> 633 23<114 510>
VStem: 16 23<121 319> 91 23<509 633> 147 23<701 750> 275 22<172 268> 340 23<171 269 440 483> 470 23<740 819> 601 23<23 536>
LayerCount: 2
Fore
SplineSet
624 0 m 1
 204 0 l 2
 164 0 130 7 103 21 c 0
 76 35 56 56 43 80 c 0
 30 103 22 128 19 153 c 0
 18 164 17 195 16 219 c 0
 17 255 18 278 19 287 c 0
 22 312 30 337 43 360 c 0
 56 384 76 404 103 418 c 0
 130 432 164 440 204 440 c 2
 340 440 l 1
 340 469 l 2
 340 475 336 483 323 485 c 0
 311 485 105 486 103 486 c 2
 91 486 l 1
 91 656 l 1
 436 656 l 2
 477 656 510 649 537 635 c 0
 564 621 584 601 597 577 c 0
 610 554 618 528 621 503 c 0
 622 494 623 472 624 437 c 2
 624 0 l 1
204 417 m 2
 168 417 137 410 114 398 c 0
 91 386 74 369 63 349 c 0
 52 328 45 306 42 284 c 0
 41 276 40 253 39 219 c 0
 40 186 41 164 42 156 c 0
 45 134 52 112 63 91 c 0
 74 71 91 54 114 42 c 0
 137 30 168 23 204 23 c 2
 601 23 l 1
 601 436 l 2
 600 469 599 492 598 500 c 0
 595 522 588 545 577 566 c 0
 566 586 549 603 526 615 c 0
 503 627 473 633 437 633 c 2
 114 633 l 1
 114 509 l 1
 159 509 323 508 324 508 c 2
 326 508 l 2
 352 504 362 485 363 469 c 2
 363 417 l 1
 204 417 l 1
 204 417 l 2
321 148 m 2
 319 148 l 2
 290 148 279 162 275 174 c 0
 273 179 271 188 270 219 c 2
 270 220 l 1
 270 220 l 2
 271 251 273 261 275 266 c 0
 279 278 290 292 319 292 c 2
 363 292 l 1
 363 170 l 1
 361 168 l 2
 356 159 346 148 321 148 c 2
293 220 m 0
 294 193 296 184 297 181 c 0
 298 178 301 171 319 171 c 2
 321 171 l 2
 333 171 338 175 340 177 c 2
 340 269 l 1
 319 269 l 2
 301 269 298 262 297 259 c 0
 296 256 294 247 293 220 c 0
147 675 m 1
 147 768 l 1
 492 848 l 1
 493 720 l 1
 147 675 l 1
171 750 m 1
 171 701 l 1
 470 740 l 1
 470 819 l 1
 171 750 l 1
EndSplineSet
Validated: 5
EndChar

StartChar: agrave
Encoding: 224 224 162
Width: 649
VWidth: 0
Flags: HW
HStem: 0 23<134 605> 148 23<301 343> 269 23<302 344> 417 23<134 344> 486 23<118 330> 633 23<118 514>
VStem: 20 23<121 319> 95 23<509 633> 151 23<740 819> 279 22<172 268> 344 23<171 269 440 483> 474 23<701 750> 605 23<23 536>
LayerCount: 2
Fore
SplineSet
628 0 m 1
 208 0 l 2
 168 0 134 7 107 21 c 0
 80 35 60 56 47 80 c 0
 34 103 26 128 23 153 c 0
 22 164 21 195 20 219 c 0
 21 255 22 278 23 287 c 0
 26 312 34 337 47 360 c 0
 60 384 80 404 107 418 c 0
 134 432 168 440 208 440 c 2
 344 440 l 1
 344 469 l 2
 344 475 340 483 327 485 c 0
 315 485 109 486 107 486 c 2
 95 486 l 1
 95 656 l 1
 440 656 l 2
 481 656 514 649 541 635 c 0
 568 621 588 601 601 577 c 0
 614 554 622 528 625 503 c 0
 626 494 627 472 628 437 c 2
 628 0 l 1
208 417 m 2
 172 417 141 410 118 398 c 0
 95 386 78 369 67 349 c 0
 56 328 49 306 46 284 c 0
 45 276 44 253 43 219 c 0
 44 186 45 164 46 156 c 0
 49 134 56 112 67 91 c 0
 78 71 95 54 118 42 c 0
 141 30 172 23 208 23 c 2
 605 23 l 1
 605 436 l 2
 604 469 603 492 602 500 c 0
 599 522 592 545 581 566 c 0
 570 586 553 603 530 615 c 0
 507 627 477 633 441 633 c 2
 118 633 l 1
 118 509 l 1
 163 509 327 508 328 508 c 2
 330 508 l 2
 356 504 366 485 367 469 c 2
 367 417 l 1
 208 417 l 1
 208 417 l 2
325 148 m 2
 323 148 l 2
 294 148 283 162 279 174 c 0
 277 179 275 188 274 219 c 2
 274 220 l 1
 274 220 l 2
 275 251 277 261 279 266 c 0
 283 278 294 292 323 292 c 2
 367 292 l 1
 367 170 l 1
 365 168 l 2
 360 159 350 148 325 148 c 2
297 220 m 0
 298 193 300 184 301 181 c 0
 302 178 305 171 323 171 c 2
 325 171 l 2
 337 171 342 175 344 177 c 2
 344 269 l 1
 323 269 l 2
 305 269 302 262 301 259 c 0
 300 256 298 247 297 220 c 0
151 720 m 1
 152 848 l 1
 497 768 l 1
 497 675 l 1
 151 720 l 1
175 819 m 1
 175 740 l 1
 474 701 l 1
 474 750 l 1
 175 819 l 1
EndSplineSet
Validated: 5
EndChar

StartChar: adieresis
Encoding: 228 228 163
Width: 652
VWidth: 0
Flags: HW
HStem: 0 23<137 608> 148 23<304 346> 269 23<304 347> 417 23<137 347> 486 23<121 332> 634 23<121 517> 677 23<162 285 369 492> 823 23<162 285 369 492>
VStem: 22 23<121 319> 98 23<509 634> 139 23<700 823> 282 22<172 268> 285 23<700 823> 346 23<171 269 440 484 700 823> 492 23<700 823> 608 23<23 536>
LayerCount: 2
Fore
SplineSet
631 0 m 1xffe7
 210 0 l 2
 170 0 137 7 110 21 c 0
 83 35 62 56 49 80 c 0
 36 103 29 128 26 153 c 0
 25 164 23 196 22 220 c 0
 23 256 25 278 26 287 c 0
 29 312 36 337 49 360 c 0
 62 384 83 405 110 419 c 0
 137 433 170 440 210 440 c 2
 347 440 l 1
 347 469 l 2
 347 475 343 484 330 486 c 0
 317 486 111 486 109 486 c 2
 98 486 l 1
 98 657 l 1
 443 657 l 2
 484 657 517 649 544 635 c 0
 571 621 591 601 604 577 c 0
 617 554 625 529 628 504 c 0
 629 495 630 472 631 437 c 2
 631 0 l 1xffe7
210 417 m 2
 174 417 144 410 121 398 c 0
 98 386 81 370 70 350 c 0
 59 329 52 306 49 284 c 0
 48 276 46 254 45 220 c 0
 46 187 48 164 49 156 c 0
 52 134 59 112 70 91 c 0
 81 71 98 54 121 42 c 0
 144 30 174 23 210 23 c 2
 608 23 l 1
 608 437 l 2
 607 470 606 493 605 501 c 0
 602 523 595 545 584 566 c 0
 573 586 556 603 533 615 c 0
 510 627 479 634 443 634 c 2
 121 634 l 1
 121 509 l 1
 166 509 330 509 331 509 c 2
 332 509 l 2
 358 505 369 486 370 470 c 2
 370 417 l 1
 210 417 l 1
 210 417 l 2
328 148 m 2
 326 148 l 2
 297 148 286 162 282 174 c 0xfff7
 280 179 278 189 277 220 c 2
 277 220 l 1
 277 221 l 2
 278 252 280 261 282 266 c 0
 286 278 297 292 326 292 c 2
 370 292 l 1
 370 170 l 1
 368 168 l 2
 363 159 353 148 328 148 c 2
300 220 m 0
 301 193 303 184 304 181 c 0
 305 178 308 171 326 171 c 2
 328 171 l 2
 340 171 345 175 347 177 c 2
 347 269 l 1
 326 269 l 2
 308 269 305 262 304 259 c 0
 303 256 301 247 300 220 c 0
308 677 m 1xffef
 139 677 l 1
 139 846 l 1
 308 846 l 1
 308 677 l 1xffef
162 700 m 1
 285 700 l 1
 285 823 l 1
 162 823 l 1
 162 700 l 1
515 677 m 1
 346 677 l 1
 346 846 l 1
 515 846 l 1
 515 677 l 1
369 700 m 1
 492 700 l 1
 492 823 l 1
 369 823 l 1
 369 700 l 1
EndSplineSet
Validated: 5
EndChar

StartChar: acircumflex
Encoding: 226 226 164
Width: 636
VWidth: 0
Flags: HW
HStem: 0 23<126 596> 148 23<293 335> 269 23<293 335> 416 23<126 335> 485 23<110 321> 633 23<110 505>
VStem: 11 23<120 319> 87 23<508 633> 128 23<703 777> 266 23<173 266> 335 23<171 269 439 483> 480 23<703 777> 596 23<23 535>
LayerCount: 2
Fore
SplineSet
619 0 m 1
 199 0 l 2
 159 0 126 7 99 21 c 0
 72 35 52 56 39 80 c 0
 26 103 18 128 15 153 c 0
 14 164 12 195 11 219 c 0
 12 255 14 277 15 286 c 0
 18 311 26 337 39 360 c 0
 52 384 72 404 99 418 c 0
 126 432 159 439 199 439 c 2
 335 439 l 1
 335 468 l 2
 335 474 331 483 318 485 c 0
 306 485 100 485 98 485 c 2
 87 485 l 1
 87 656 l 1
 431 656 l 2
 472 656 505 648 532 634 c 0
 559 620 579 600 592 576 c 0
 605 553 613 528 616 503 c 0
 617 494 618 471 619 436 c 2
 619 0 l 1
199 416 m 2
 163 416 133 410 110 398 c 0
 87 386 70 369 59 349 c 0
 48 328 41 306 38 284 c 0
 37 276 35 252 34 219 c 0
 35 186 37 164 38 156 c 0
 41 134 48 111 59 90 c 0
 70 70 87 54 110 42 c 0
 133 30 163 23 199 23 c 2
 596 23 l 1
 596 436 l 2
 595 469 594 492 593 500 c 0
 590 522 583 544 572 565 c 0
 561 585 544 602 521 614 c 0
 498 626 468 633 432 633 c 2
 110 633 l 1
 110 508 l 1
 155 508 319 508 320 508 c 2
 321 508 l 2
 347 504 357 485 358 469 c 2
 358 416 l 1
 199 416 l 1
 199 416 l 2
316 148 m 2
 315 148 l 2
 286 148 275 162 271 174 c 0
 269 179 267 188 266 219 c 2
 266 220 l 1
 266 220 l 2
 267 251 269 261 271 266 c 0
 275 278 285 292 314 292 c 2
 358 292 l 1
 358 170 l 1
 357 167 l 2
 352 158 341 148 316 148 c 2
289 220 m 0
 290 193 292 184 293 181 c 0
 294 178 296 171 314 171 c 2
 316 171 l 2
 328 171 333 174 335 176 c 2
 335 269 l 1
 314 269 l 2
 296 269 294 261 293 258 c 0
 292 255 290 247 289 220 c 0
128 673 m 1
 128 794 l 1
 314 844 l 1
 503 794 l 1
 503 673 l 1
 314 723 l 1
 128 673 l 1
314 746 m 1
 480 703 l 1
 480 777 l 1
 314 820 l 1
 151 777 l 1
 151 703 l 1
 314 746 l 1
EndSplineSet
Validated: 5
EndChar

StartChar: ccedilla
Encoding: 231 231 165
Width: 460
VWidth: 0
Flags: HW
HStem: -215 23<173 347> -141 23<173 311> -110 23<208 311> -37 23<281 347> 0 23<281 415> 148 23<309 415> 486 23<309 415> 634 23<143 415>
VStem: 26 23<123 535> 150 23<-192 -141> 185 23<-87 3> 258 23<-14 0> 280 23<174 476> 312 23<-118 -111> 386 23<-153 -75> 415 23<23 148 509 634>
LayerCount: 2
Fore
SplineSet
308 -215 m 6xfff7
 150 -215 l 5
 150 -118 l 5
 308 -118 l 6
 310 -118 312 -116 312 -114 c 4
 312 -112 310 -110 308 -110 c 6
 185 -110 l 5
 185 2 l 6
 158 5 134 12 114 22 c 4
 87 36 67 56 54 80 c 4
 41 103 33 128 30 153 c 4
 28 171 27 204 26 249 c 4
 26 273 28 486 30 504 c 4
 33 529 41 555 54 578 c 4
 67 602 87 622 114 636 c 4
 141 650 175 657 215 657 c 6
 438 657 l 5
 438 486 l 5
 330 486 l 6
 312 486 310 479 309 476 c 4
 307 470 303 447 303 364 c 6
 303 294 l 6xffef
 303 211 307 187 309 181 c 4
 310 178 312 171 330 171 c 6
 438 171 l 5
 438 0 l 5
 281 0 l 5
 281 -14 l 5
 308 -14 l 6
 363 -14 409 -59 409 -114 c 4
 409 -169 363 -215 308 -215 c 6xfff7
173 -192 m 5
 308 -192 l 6
 351 -192 386 -157 386 -114 c 4
 386 -71 351 -37 308 -37 c 6
 258 -37 l 5
 258 23 l 5xfff7
 415 23 l 5
 415 148 l 5
 330 148 l 6
 301 148 291 162 287 174 c 4
 284 183 280 205 280 294 c 6
 280 364 l 6
 280 453 284 474 287 483 c 4
 291 495 301 509 330 509 c 6
 415 509 l 5
 415 634 l 5
 215 634 l 6
 179 634 148 628 125 616 c 4
 102 604 85 587 74 567 c 4
 63 546 56 524 53 501 c 4
 51 489 50 344 49 249 c 4
 50 205 51 174 53 156 c 4
 56 133 63 112 74 91 c 4
 85 71 102 54 125 42 c 4
 144 32 169 26 197 24 c 6
 208 23 l 5
 208 -87 l 5
 308 -87 l 6
 323 -87 335 -99 335 -114 c 4
 335 -129 323 -141 308 -141 c 6
 173 -141 l 5
 173 -192 l 5
EndSplineSet
Validated: 1
EndChar

StartChar: Ccedilla
Encoding: 199 199 166
Width: 482
VWidth: 0
Flags: HW
HStem: -219 23<179 356> -144 23<179 320> -113 23<214 320> -37 23<289 356> 0 23<131 191 289 445> 151 23<301 445> 632 24<310 445> 783 23<130 445>
VStem: 12 24<126 680> 155 24<-196 -144> 191 23<-89 0> 266 23<-14 0> 271 23<177 621> 321 23<-121 -113> 396 23<-157 -76> 445 24<23 151 655 783>
LayerCount: 2
Fore
SplineSet
316 -219 m 2xfff7
 155 -219 l 1
 155 -121 l 1
 316 -121 l 2
 318 -121 321 -119 321 -117 c 0
 321 -115 318 -113 316 -113 c 2
 191 -113 l 1
 191 0 l 2
 156 2 126 9 102 22 c 0
 74 37 54 56 41 81 c 0
 28 105 20 130 17 156 c 0
 14 178 12 218 12 275 c 1
 12 275 l 1
 12 286 l 1
 12 532 l 2
 12 589 14 628 17 650 c 0
 20 676 28 701 41 725 c 0
 54 750 74 769 102 784 c 0
 129 799 164 806 205 806 c 2
 469 806 l 1
 469 631 l 1
 456 632 l 2
 453 632 365 632 333 632 c 2
 322 632 l 2
 304 632 301 624 300 621 c 0
 298 615 295 592 295 507 c 2
 295 299 l 2xffef
 295 214 298 191 300 185 c 0
 301 182 304 174 322 174 c 0
 330 174 452 175 456 175 c 2
 468 175 l 1
 469 163 l 1
 469 0 l 1
 289 0 l 1
 289 -14 l 1
 316 -14 l 2
 373 -14 419 -60 419 -117 c 0
 419 -174 373 -219 316 -219 c 2xfff7
179 -196 m 1
 316 -196 l 2
 360 -196 396 -161 396 -117 c 0
 396 -73 360 -37 316 -37 c 2
 266 -37 l 1
 266 23 l 1xfff7
 445 23 l 1
 445 151 l 2
 412 151 323 151 322 151 c 0
 293 151 282 165 278 177 c 0
 275 186 271 208 271 299 c 2
 271 507 l 2
 271 598 275 620 278 629 c 0
 281 639 289 651 310 654 c 2
 310 655 l 1
 322 655 l 2
 323 655 412 655 445 655 c 2
 445 783 l 1
 205 783 l 2
 168 783 137 776 113 763 c 0
 90 750 72 734 61 714 c 0
 50 693 43 670 40 647 c 0
 37 625 36 582 36 520 c 2
 35 509 l 1
 36 286 l 2
 36 224 37 181 40 159 c 0
 43 136 50 113 61 92 c 0
 72 72 90 56 113 43 c 0
 136 31 166 24 202 24 c 2
 214 23 l 1
 214 -89 l 1
 316 -89 l 2
 331 -89 344 -102 344 -117 c 0
 344 -132 331 -144 316 -144 c 2
 179 -144 l 1
 179 -196 l 1
 179 -196 l 1
EndSplineSet
Validated: 5
EndChar

StartChar: eacute
Encoding: 233 233 168
Width: 651
VWidth: 0
Flags: HW
HStem: 0 23<139 608> 147 23<287 608> 221 23<289 607> 372 23<299 351> 486 23<305 348> 634 23<139 513>
VStem: 22 23<124 533> 154 23<701 750> 264 23<174 205> 276 23<395 483> 351 23<395 484> 476 23<739 819> 608 23<23 148 244 533>
LayerCount: 2
Fore
SplineSet
631 0 m 1xffb8
 211 0 l 2
 171 0 137 7 110 21 c 0
 83 35 63 56 50 80 c 0
 37 103 29 128 26 153 c 0
 24 169 22 231 22 234 c 2
 22 440 l 2
 22 443 24 489 26 503 c 0
 29 528 37 554 50 577 c 0
 63 601 83 621 110 635 c 0
 137 649 171 657 211 657 c 2
 442 657 l 2
 482 657 515 649 542 635 c 0
 569 621 589 601 602 577 c 0
 615 554 623 528 626 503 c 0
 627 491 628 474 629 451 c 2
 630 451 l 1
 631 440 l 1
 631 268 l 1
 630 221 l 1
 310 221 l 2
 292 221 289 214 288 211 c 0
 288 210 288 208 287 204 c 0
 287 198 287 192 287 188 c 0
 287 185 287 182 287 181 c 0
 288 178 290 170 308 170 c 2
 631 171 l 1
 631 0 l 1xffb8
211 634 m 2
 175 634 144 627 121 615 c 0
 98 603 81 586 70 566 c 0
 59 545 52 524 49 501 c 0
 47 488 45 439 45 439 c 2
 45 235 l 2
 45 235 47 171 49 156 c 0
 52 133 59 112 70 91 c 0
 81 71 98 54 121 42 c 0
 144 30 175 23 211 23 c 2
 608 23 l 1
 608 148 l 1
 308 147 l 2
 279 147 269 162 265 174 c 0
 264 178 264 183 264 189 c 0
 264 193 264 198 264 203 c 2
 264 205 l 1
 264 206 l 2
 265 212 266 215 267 218 c 0
 271 230 281 244 310 244 c 2
 607 244 l 1
 608 268 l 1
 608 431 l 1
 607 440 l 2
 606 468 605 488 603 501 c 0
 600 524 593 545 582 566 c 0
 571 586 554 603 531 615 c 0
 508 627 478 634 442 634 c 2
 211 634 l 1
 211 634 l 2
375 372 m 1
 276 372 l 1
 276 383 l 2xff78
 277 456 280 475 283 483 c 0
 287 495 297 509 326 509 c 2
 327 509 l 2
 355 509 366 495 370 483 c 0
 371 481 373 476 375 384 c 2
 375 372 l 1
299 395 m 1
 351 395 l 2
 350 433 349 471 348 476 c 0
 347 478 344 486 327 486 c 2
 325 486 l 1
 325 486 l 2
 308 486 305 478 304 475 c 0
 302 470 300 453 299 395 c 1
154 674 m 1
 154 768 l 1
 499 847 l 1
 499 719 l 1
 154 674 l 1
177 750 m 1
 177 701 l 1
 476 739 l 1
 476 819 l 1
 177 750 l 1
EndSplineSet
Validated: 5
EndChar

StartChar: egrave
Encoding: 232 232 169
Width: 643
VWidth: 0
Flags: HW
HStem: 0 23<137 606> 147 23<285 606> 221 23<287 605> 372 23<297 349> 486 23<303 346> 634 23<137 512>
VStem: 20 23<124 533> 152 23<739 819> 262 23<174 205> 274 23<395 483> 349 23<395 476> 474 23<701 750> 606 23<23 148 244 533>
LayerCount: 2
Fore
SplineSet
629 0 m 1xffb8
 209 0 l 2
 169 0 135 7 108 21 c 0
 81 35 61 56 48 80 c 0
 35 103 27 128 24 153 c 0
 22 169 20 231 20 234 c 2
 20 440 l 2
 20 443 22 489 24 503 c 0
 27 528 35 554 48 577 c 0
 61 601 81 621 108 635 c 0
 135 649 169 657 209 657 c 2
 440 657 l 2
 480 657 513 649 540 635 c 0
 567 621 587 601 600 577 c 0
 613 554 621 528 624 503 c 0
 625 491 626 474 627 451 c 2
 628 451 l 1
 629 440 l 1
 629 268 l 1
 628 221 l 1
 308 221 l 2
 290 221 288 214 287 211 c 0
 287 210 286 208 285 204 c 0
 285 198 285 192 285 188 c 0
 285 185 285 182 285 181 c 0
 286 178 289 170 307 170 c 2
 629 171 l 1
 629 0 l 1xffb8
209 634 m 2
 173 634 142 627 119 615 c 0
 96 603 79 586 68 566 c 0
 57 545 50 524 47 501 c 0
 45 488 43 439 43 439 c 2
 43 234 l 2
 43 234 45 171 47 156 c 0
 50 133 57 112 68 91 c 0
 79 71 96 54 119 42 c 0
 142 30 173 23 209 23 c 2
 606 23 l 1
 606 148 l 1
 307 147 l 2
 278 147 267 162 263 174 c 0
 262 178 262 183 262 189 c 0
 262 193 262 198 262 203 c 2
 262 205 l 1
 262 206 l 2
 263 212 264 215 265 218 c 0
 269 230 279 244 308 244 c 2
 605 244 l 1
 606 269 l 1
 606 431 l 1
 605 440 l 2
 604 468 603 488 601 501 c 0
 598 524 591 545 580 566 c 0
 569 586 552 603 529 615 c 0
 506 627 476 634 440 634 c 2
 209 634 l 1
 209 634 l 2
373 372 m 1
 274 372 l 1
 274 383 l 2xff78
 275 456 278 475 281 483 c 0
 285 495 295 509 324 509 c 2
 325 509 l 2
 353 509 364 495 368 483 c 0
 369 481 371 476 373 384 c 2
 373 372 l 1
297 395 m 1
 349 395 l 2
 348 433 347 471 346 476 c 0
 345 478 342 486 325 486 c 2
 323 486 l 1
 323 486 l 2
 306 486 303 478 302 475 c 0
 300 470 298 453 297 395 c 1
497 674 m 1
 152 719 l 1
 153 847 l 1
 497 768 l 1
 497 674 l 1
175 739 m 1
 474 701 l 1
 474 750 l 1
 175 819 l 1
 175 739 l 1
EndSplineSet
Validated: 5
EndChar

StartChar: edieresis
Encoding: 235 235 170
Width: 651
VWidth: 0
Flags: HW
HStem: 0 23<135 604> 147 23<284 604> 221 23<285 603> 372 23<295 348> 486 23<301 344> 633 23<135 510> 676 23<158 281 365 487> 821 23<158 281 365 487>
VStem: 18 23<124 533> 135 23<699 821> 260 23<174 205> 272 23<395 482> 281 23<699 821> 342 23<395 476 699 821> 487 23<699 821> 604 23<23 148 244 533>
LayerCount: 2
Fore
SplineSet
627 0 m 1xffe7
 207 0 l 2
 167 0 134 7 107 21 c 0
 80 35 59 56 46 80 c 0
 33 103 26 128 23 153 c 0
 21 169 18 231 18 234 c 2
 18 440 l 2
 18 443 21 489 23 503 c 0
 26 528 33 554 46 577 c 0
 59 601 80 621 107 635 c 0
 134 649 167 656 207 656 c 2
 438 656 l 2
 478 656 511 649 538 635 c 0
 565 621 585 601 598 577 c 0
 611 554 619 528 622 503 c 0
 623 491 624 474 625 451 c 2
 626 451 l 1
 627 440 l 1
 627 268 l 1
 626 221 l 1
 306 221 l 2
 288 221 286 214 285 211 c 0
 285 210 284 208 283 204 c 0
 283 198 283 192 283 188 c 0
 283 185 283 181 283 180 c 0
 284 177 287 170 305 170 c 2
 627 171 l 1
 627 0 l 1
 627 0 l 1xffe7
207 633 m 2
 171 633 140 627 117 615 c 0
 94 603 78 586 67 566 c 0
 56 545 48 523 45 500 c 0
 43 487 41 439 41 439 c 2
 41 234 l 2
 41 234 43 171 45 156 c 0
 48 133 56 111 67 90 c 0
 78 70 94 54 117 42 c 0
 140 30 171 23 207 23 c 2
 604 23 l 1
 604 148 l 1
 305 147 l 2
 276 147 265 162 261 174 c 0
 260 178 260 183 260 189 c 0
 260 193 260 198 260 203 c 2
 260 205 l 1
 260 206 l 2
 261 212 262 215 263 218 c 0
 267 230 277 244 306 244 c 2
 603 244 l 1
 604 268 l 1
 604 431 l 1
 603 439 l 2
 602 467 601 487 599 500 c 0
 596 523 589 545 578 566 c 0
 567 586 550 603 527 615 c 0
 504 627 474 633 438 633 c 2
 207 633 l 1
 207 633 l 2
371 372 m 1
 272 372 l 1
 272 383 l 2xffd7
 273 456 276 474 279 482 c 0
 283 494 293 509 322 509 c 2
 323 509 l 2
 351 509 362 494 366 482 c 0
 367 480 369 475 371 383 c 2
 371 372 l 1
295 395 m 1
 348 395 l 2
 347 433 345 471 344 476 c 0
 343 478 341 486 324 486 c 2
 321 486 l 1
 321 486 l 2
 304 486 302 478 301 475 c 0
 299 470 296 453 295 395 c 1
304 676 m 1xffcf
 135 676 l 1
 135 844 l 1
 304 844 l 1
 304 676 l 1xffcf
158 699 m 1
 281 699 l 1
 281 821 l 1
 158 821 l 1
 158 699 l 1
510 676 m 1
 342 676 l 1
 342 844 l 1
 510 844 l 1
 510 676 l 1
365 699 m 1
 487 699 l 1
 487 821 l 1
 365 821 l 1
 365 699 l 1
EndSplineSet
Validated: 5
EndChar

StartChar: ecircumflex
Encoding: 234 234 171
Width: 660
VWidth: 0
Flags: HW
HStem: 0 23<142 612> 148 23<291 612> 221 23<293 611> 372 23<303 355> 486 23<309 351> 634 23<142 517>
VStem: 25 23<124 533> 143 23<704 778> 268 23<174 205> 280 23<395 483> 355 23<395 476> 495 23<704 778> 612 23<23 148 244 533>
LayerCount: 2
Fore
SplineSet
635 0 m 1xffb8
 214 0 l 2
 174 0 141 8 114 22 c 0
 87 36 66 56 53 80 c 0
 40 103 33 128 30 153 c 0
 28 169 25 231 25 234 c 2
 25 440 l 2
 25 443 28 490 30 504 c 0
 33 529 40 554 53 577 c 0
 66 601 87 622 114 636 c 0
 141 650 174 657 214 657 c 2
 445 657 l 2
 485 657 519 650 546 636 c 0
 573 622 593 602 606 578 c 0
 619 555 627 529 630 504 c 0
 631 492 632 475 633 452 c 2
 634 452 l 1
 635 440 l 1
 635 268 l 1
 634 221 l 1
 314 221 l 2
 296 221 293 214 292 211 c 0
 292 210 292 208 291 204 c 0
 291 198 291 192 291 188 c 0
 291 185 291 182 291 181 c 0
 292 178 294 171 312 171 c 2
 635 171 l 1
 635 0 l 1
 635 0 l 1xffb8
214 634 m 1
 178 634 148 627 125 615 c 0
 102 603 85 587 74 567 c 0
 63 546 56 524 53 501 c 0
 51 488 48 440 48 440 c 2
 48 235 l 2
 48 235 51 171 53 156 c 0
 56 133 63 112 74 91 c 0
 85 71 102 54 125 42 c 0
 148 30 178 23 214 23 c 2
 612 23 l 1
 612 148 l 1
 312 148 l 2
 283 148 273 162 269 174 c 0
 268 178 268 183 268 189 c 0
 268 193 268 199 268 204 c 2
 268 205 l 1
 268 206 l 2
 269 212 269 215 270 218 c 0
 274 230 285 244 314 244 c 2
 611 244 l 1
 612 269 l 1
 612 432 l 1
 611 440 l 2
 610 468 609 488 607 501 c 0
 604 524 597 546 586 567 c 0
 575 587 558 603 535 615 c 0
 512 627 481 634 445 634 c 2
 214 634 l 1
379 372 m 1
 280 372 l 1
 280 384 l 2xff78
 281 457 283 475 286 483 c 0
 290 495 301 509 330 509 c 2
 331 509 l 2
 359 509 370 495 374 483 c 0
 375 481 376 476 378 384 c 2
 379 372 l 1
303 395 m 1
 355 395 l 2
 354 433 353 472 352 477 c 0
 351 479 348 486 331 486 c 2
 329 486 l 1
 329 486 l 2
 312 486 309 479 308 476 c 0
 306 471 304 453 303 395 c 1
143 674 m 1
 143 795 l 1
 329 845 l 1
 518 795 l 1
 518 674 l 1
 329 723 l 1
 143 674 l 1
329 747 m 1
 495 704 l 1
 495 778 l 1
 329 821 l 1
 166 778 l 1
 166 704 l 1
 329 747 l 1
EndSplineSet
Validated: 5
EndChar

